<svg width="94" height="28" viewBox="0 0 94 28" fill="none" xmlns="http://www.w3.org/2000/svg">
<path d="M87.7797 11.7323H82.1649V6.07134C82.1649 5.31582 81.7334 4.65541 81.0959 4.31842C80.8064 4.16622 80.4752 4.07654 80.1216 4.07654H61.284C60.7885 4.07654 60.3347 4.25047 59.9812 4.53583C59.7195 4.70433 59.4912 4.93262 59.3242 5.21798L52.9383 16.7846L47.1759 5.73978C47.0702 5.31038 46.8224 4.91903 46.4494 4.63639C45.8509 4.10915 44.9656 3.95424 44.1945 4.3157C43.5431 4.6228 43.1339 5.22342 43.0532 5.87567L37.0319 16.7819L31.0135 5.24787C30.7963 4.80489 30.4317 4.47604 30.003 4.29124C29.7274 4.15535 29.4156 4.07654 29.0843 4.07654H13.8656C13.512 4.07654 13.1808 4.16351 12.8913 4.31842C12.2538 4.65541 11.8223 5.3131 11.8223 6.07134V11.7323H6.20748C5.08006 11.7323 4.16699 12.6238 4.16699 13.7244C4.16699 14.8251 5.08006 15.7165 6.20748 15.7165H11.8223V21.1982C11.8223 22.2988 12.7354 23.1902 13.8628 23.1902C14.9902 23.1902 15.9033 22.2988 15.9033 21.1982V15.7165H25.5991C26.7265 15.7165 27.6396 14.8251 27.6396 13.7244C27.6396 12.6238 26.7265 11.7323 25.5991 11.7323H15.9033V8.06343H27.8985L35.0805 21.8259C35.1306 21.951 35.1947 22.0678 35.2698 22.182C35.8015 23.0707 36.9484 23.4267 37.9144 22.9728C38.5185 22.6902 38.9138 22.1521 39.0335 21.5542L45.1048 10.5556L50.9869 21.8259C51.037 21.9482 51.101 22.0678 51.1762 22.1793C51.7079 23.0679 52.8548 23.424 53.8207 22.9701C54.4248 22.6875 54.8201 22.1494 54.937 21.5515L62.3836 8.06071H78.0756V11.7296H64.4825C63.3857 11.7296 62.4949 12.5748 62.4448 13.632H62.4392V21.0813C62.4392 22.182 63.3523 23.0734 64.4797 23.0734H79.4396C79.6512 23.1468 79.8794 23.0788 80.1161 23.0788C81.2435 23.0788 82.1565 22.1874 82.1565 21.0867V15.7138H87.7714C88.8988 15.7138 89.8119 14.8224 89.8119 13.7217C89.8119 12.621 88.8988 11.7296 87.7714 11.7296L87.7797 11.7323ZM78.0839 19.0919H66.4395V15.7192H78.0839V19.0919Z" fill="#434343"/>
<path d="M80.1247 4.07658C80.4782 4.07658 80.8095 4.16354 81.099 4.31845C81.7365 4.65545 82.168 5.31314 82.168 6.07138V11.7324H87.7828C88.9102 11.7324 89.8233 12.6238 89.8233 13.7245C89.8233 14.8251 88.9102 15.7166 87.7828 15.7166H82.168V21.0895C82.168 22.1902 81.2549 23.0816 80.1275 23.0816C79.8909 23.0816 64.4911 23.0761 64.4911 23.0761C63.3637 23.0761 62.4507 22.1847 62.4507 21.0841V13.6348H62.4562C62.5063 12.5776 63.3971 11.7324 64.4939 11.7324H78.087V8.06347H62.395L54.9485 21.5542C54.8288 22.1521 54.4362 22.6875 53.8322 22.9729C53.5482 23.106 53.2476 23.1713 52.9497 23.1713C52.2426 23.1713 51.5606 22.8098 51.1876 22.182C51.1124 22.0706 51.0484 21.951 50.9983 21.8287L45.1162 10.5583L39.1674 21.576C38.9113 22.1657 38.5327 22.6902 37.9286 22.9729C37.6447 23.106 37.344 23.1713 37.0462 23.1713C36.3391 23.1713 35.6571 22.8098 35.2813 22.182C35.2061 22.0706 35.1421 21.951 35.092 21.826L27.9099 8.06347H15.9147V11.7324H25.6105C26.7379 11.7324 27.651 12.6238 27.651 13.7245C27.651 14.8251 26.7379 15.7166 25.6105 15.7166H15.9147V21.1982C15.9147 22.2989 15.0016 23.1903 13.8742 23.1903C12.7468 23.1903 11.8337 22.2989 11.8337 21.1982V15.7166H6.2189C5.09148 15.7166 4.17841 14.8251 4.17841 13.7245C4.17841 12.6238 5.09148 11.7324 6.2189 11.7324H11.8337V6.07138C11.8337 5.31586 12.2652 4.65545 12.9027 4.31845C13.1922 4.16626 13.5235 4.07658 13.877 4.07658H29.0958C29.427 4.07658 29.7388 4.15539 30.0144 4.29128C30.4403 4.47608 30.805 4.80492 31.0249 5.24791L37.0434 16.7819L43.0813 5.767C43.3848 5.16366 43.5518 4.62284 44.206 4.31573C44.4899 4.18257 44.7905 4.11734 45.0884 4.11734C45.5923 4.11734 46.085 4.30215 46.4608 4.63371C46.8338 4.91635 47.0036 5.10931 47.2597 5.59306L52.9497 16.7819L59.3356 5.2153C59.5027 4.92994 59.7309 4.70165 59.9926 4.53315C60.3461 4.24779 60.7999 4.07386 61.2954 4.07386H80.133M66.4398 19.092H78.0842V15.7193H66.4398V19.092ZM80.1247 0H61.2871C59.9202 0 58.584 0.442988 57.5012 1.25559C56.7635 1.76652 56.1427 2.43507 55.6973 3.20147L55.6722 3.24224L55.65 3.283L53.0444 8.00096C53.0444 8.00096 50.0212 2.22038 49.1415 1.51649C48.0113 0.565285 46.5749 0.0407658 45.0773 0.0407658C44.1531 0.0407658 43.2205 0.247312 42.3854 0.641381C40.7652 1.40234 39.8689 2.79653 39.1033 4.43803L37.1352 8.00096L34.7496 3.42704C34.1232 2.18776 33.0793 1.19036 31.7932 0.608769C30.9497 0.209264 30.0172 0 29.0846 0H13.8659C12.8331 0 11.8059 0.252748 10.8984 0.733784C8.89408 1.79641 7.64696 3.84013 7.64696 6.06866V7.65309H6.20776C2.78932 7.65581 0 10.3762 0 13.7245C0 17.0727 2.78932 19.7931 6.21611 19.7931H7.65531V21.1982C7.65531 24.5437 10.4446 27.2669 13.8714 27.2669C17.2982 27.2669 20.0875 24.5437 20.0875 21.1982V19.7931H25.6077C26.802 19.7931 27.921 19.4616 28.8675 18.8909L31.3005 23.5545C31.423 23.8208 31.5649 24.079 31.7264 24.329C32.8483 26.1309 34.8748 27.2451 37.0378 27.2451C37.962 27.2451 38.8946 27.0386 39.7297 26.6445C41.2468 25.9325 42.5635 24.7312 43.2372 23.1903L45.0049 19.3338L47.2068 23.5545C47.3293 23.8208 47.4685 24.0763 47.63 24.3236C48.7518 26.1254 50.7784 27.2424 52.9442 27.2424C53.8684 27.2424 54.8009 27.0359 55.636 26.6418C57.0585 25.9759 58.1637 24.7937 58.7316 23.3751C59.6613 25.5873 61.8911 27.15 64.4884 27.15L80.1247 27.1554C83.5515 27.1554 86.3408 24.5437 86.3408 21.1955V19.7904H87.78C91.2068 19.7904 93.9961 17.0673 93.9961 13.7218C93.9961 10.3762 91.2068 7.65309 87.78 7.65309H86.3408V6.06866C86.3408 3.84285 85.0965 1.79641 83.0894 0.733784C82.1819 0.252748 81.1575 0 80.1219 0L80.1247 0Z" fill="white"/>
</svg>
