<svg xmlns="http://www.w3.org/2000/svg" width="90" height="60" fill="none"><g clip-path="url(#a)"><path fill="#fff" d="M13.776 15.163c2.545-.022 4.544.763 5.934 2.33 1.47 1.658 2.215 4.154 2.22 7.422a.55.55 0 0 1-.55.536h-6.13a.42.42 0 0 1-.406-.41c-.05-2.26-.72-3.36-2.052-3.36-2.35 0-3.737 3.19-4.472 4.958-1.027 2.47-1.55 5.153-1.446 7.825.049 1.244.249 2.994 1.43 3.719 1.047.641 2.54.215 3.446-.495.904-.713 1.631-1.944 1.937-3.067.043-.156.046-.277.005-.331-.043-.056-.162-.07-.253-.07h-1.574a.57.57 0 0 1-.437-.2.42.42 0 0 1-.087-.363l1.076-4.674c.053-.239.27-.42.536-.452v-.011h10.33q.038-.001.072.004c.268.035.457.284.452.556h.003v.013l-1.075 4.666c-.058.264-.322.457-.626.457H20.81a.22.22 0 0 0-.208.156c-1.198 4.064-2.82 6.857-4.962 8.534C13.818 44.334 11.572 45 8.571 45c-2.696 0-4.514-.867-6.056-2.58C.478 40.16-.365 36.456.145 31.994c.92-8.377 5.265-16.83 13.631-16.83M33.466 15c2.783.02 4.892.814 6.27 2.36 1.303 1.465 1.93 3.582 1.861 6.29h-.003a.55.55 0 0 1-.547.53H35.4c-.37 0-.679-.3-.679-.665 0-1.647-.57-2.448-1.736-2.449s-1.918.716-1.94 1.967c-.025 1.395.765 2.663 3.01 4.841 2.957 2.774 4.142 5.23 4.085 8.479C38.048 41.605 34.477 45 29.043 45c-2.775 0-4.895-.742-6.305-2.206-1.43-1.487-2.087-3.67-1.95-6.485a.55.55 0 0 1 .549-.53h5.84a.55.55 0 0 1 .517.388.5.5 0 0 1 .01.204c-.064 1.016.113 1.775.513 2.195.256.272.613.41 1.058.41 1.08 0 1.71-.762 1.735-2.09.02-1.148-.343-2.154-2.32-4.189-2.556-2.496-4.847-5.075-4.776-9.13.042-2.352.976-4.503 2.63-6.057 1.75-1.642 4.144-2.51 6.922-2.51m38.082.543c6.841 0 10.258 3.1 10.15 9.22-.126 7.172-4.496 12.442-11.076 13.657-.935.172-1.886.24-2.836.234l-3.177-.014a.2.2 0 0 0-.2.194q0 .054.027.1.028.046.075.07l.388.201 1 .522 1.005.523.312.162c.222.116.308.308.258.556l-.704 3.176c-.058.265-.27.42-.583.42H60.39a.58.58 0 0 1-.438-.203.43.43 0 0 1-.088-.363l6.456-28.03c.064-.292.34-.422.584-.422h4.639zm-12.945.003a.525.525 0 0 1 .53.533l-.038 27.933a.46.46 0 0 1-.104.369.53.53 0 0 1-.403.181h-6.171a.524.524 0 0 1-.528-.533l.131-2.71c.006-.396-.002-.404-.408-.404h-5.836c-.424 0-.451.036-.6.425l-1.214 2.915c-.107.208-.326.307-.656.307h-6.108c-.37 0-.637-.366-.497-.71l.005-.006v-.005l12.652-27.875c.084-.167.213-.42.507-.42zm-5.836 7.6c-.027-.108-.113-.099-.184.047a3 3 0 0 0-.136.314l-4.376 10.828a3 3 0 0 0-.054.162.15.15 0 0 0 .022.122.15.15 0 0 0 .108.062q.069.005.138.005h-.001l-.003.002h.008l3.51.04c.406-.034.425-.052.466-.464 0 0 .525-11.029.502-11.119m15.7-1.37a.196.196 0 0 0-.17.292.2.2 0 0 0 .075.072s2.682 1.414 2.866 1.516c.144.08.146.213.099.446-.001.01-1.824 8.015-1.833 8.083.008.01.057.04.336.04h.124v.002c3.045-.123 4.705-3.722 4.766-7.213.035-2.017-.701-3.198-2.021-3.238z"/></g><defs><clipPath id="a"><path fill="#fff" d="M0 0h90v60H0z"/></clipPath></defs></svg>