<svg width="94" height="25" viewBox="0 0 94 25" fill="none" xmlns="http://www.w3.org/2000/svg">
<path fill-rule="evenodd" clip-rule="evenodd" d="M9.29771 13.8229L10.8729 16.5197H3.00558L2.07581 18.0517H11.7141L11.7396 18.0079L13.3318 20.7351L15.1386 20.7654L11.0925 13.8245H9.29431L9.29771 13.8229ZM12.964 8.66481H12.9555L14.5341 5.93764L13.6571 4.37541L11.1692 8.63451H11.1573L11.1624 8.64461L9.62637 11.2741L10.5357 12.8414L12.0666 10.1951L15.9747 16.885L17.7814 16.9153L12.9623 8.66313L12.964 8.66481ZM4.79701 13.8144L4.81063 13.7909H8.11932L8.98779 12.2589H5.70634L9.61785 5.56223L8.74087 4L3.92173 12.2522L3.92513 12.2589H0.929771L0 13.7909H4.78509L4.79701 13.8144Z" fill="white"/>
<path d="M28.6981 19H26.3648V7.88333H22.2814V6H32.7814V7.88333H28.6981V19ZM36.1687 19H33.8687V6H39.052C40.1631 6 41.0576 6.16111 41.7353 6.48333C42.4131 6.79444 42.9076 7.21667 43.2187 7.75C43.5409 8.28333 43.702 8.89444 43.702 9.58333C43.702 10.4167 43.4742 11.1278 43.0187 11.7167C42.5631 12.3056 41.8965 12.7167 41.0187 12.95L44.052 18.9V19H41.5853L38.7353 13.2833H36.1687V19ZM36.1687 7.8V11.5333H38.802C39.6576 11.5333 40.2909 11.3833 40.702 11.0833C41.1131 10.7833 41.3187 10.3111 41.3187 9.66667C41.3187 9.01111 41.1076 8.53889 40.6853 8.25C40.2742 7.95 39.6465 7.8 38.802 7.8H36.1687ZM47.3494 19H45.0161V6H47.3494V19ZM54.6085 19.2333C53.253 19.2333 52.1252 18.9611 51.2252 18.4167C50.3363 17.8611 49.6696 17.0778 49.2252 16.0667C48.7919 15.0556 48.5752 13.8667 48.5752 12.5C48.5752 11.1222 48.7919 9.93333 49.2252 8.93333C49.6696 7.92222 50.3363 7.14444 51.2252 6.6C52.1252 6.04444 53.253 5.76667 54.6085 5.76667C55.9641 5.76667 57.0863 6.04444 57.9752 6.6C58.8641 7.14444 59.5252 7.92222 59.9585 8.93333C60.403 9.93333 60.6252 11.1222 60.6252 12.5C60.6252 13.8667 60.403 15.0556 59.9585 16.0667C59.5252 17.0778 58.8641 17.8611 57.9752 18.4167C57.0863 18.9611 55.9641 19.2333 54.6085 19.2333ZM54.6085 17.4333C55.8419 17.4333 56.753 17.0056 57.3419 16.15C57.9307 15.2833 58.2252 14.0667 58.2252 12.5C58.2252 10.9333 57.9307 9.72222 57.3419 8.86667C56.753 8 55.8419 7.56667 54.6085 7.56667C53.3641 7.56667 52.4474 8 51.8585 8.86667C51.2696 9.72222 50.9752 10.9333 50.9752 12.5C50.9752 14.0667 51.2696 15.2833 51.8585 16.15C52.4474 17.0056 53.3641 17.4333 54.6085 17.4333ZM63.9174 19H61.8007V6H65.9174L70.5174 17.15H70.9174V6H73.034V19H68.9007L64.3174 7.85H63.9174V19ZM73.1213 19H71.0046V6H75.1213L79.7213 17.15H80.1213V6H82.2379V19H78.1046L73.5213 7.85H73.1213V19Z" fill="white"/>
<path d="M86.7814 10.46C86.3081 10.46 85.8848 10.3533 85.5114 10.14C85.1448 9.92667 84.8548 9.63667 84.6414 9.27C84.4281 8.89667 84.3214 8.47333 84.3214 8C84.3214 7.52667 84.4281 7.10667 84.6414 6.74C84.8548 6.36667 85.1448 6.07333 85.5114 5.86C85.8848 5.64667 86.3081 5.54 86.7814 5.54C87.2548 5.54 87.6748 5.64667 88.0414 5.86C88.4148 6.07333 88.7081 6.36667 88.9214 6.74C89.1348 7.10667 89.2414 7.52667 89.2414 8C89.2414 8.47333 89.1348 8.89667 88.9214 9.27C88.7081 9.63667 88.4148 9.92667 88.0414 10.14C87.6748 10.3533 87.2548 10.46 86.7814 10.46ZM86.7814 9.89C87.3614 9.89 87.8148 9.72 88.1414 9.38C88.4748 9.04 88.6414 8.58 88.6414 8C88.6414 7.42 88.4748 6.96 88.1414 6.62C87.8148 6.28 87.3614 6.11 86.7814 6.11C86.2014 6.11 85.7448 6.28 85.4114 6.62C85.0848 6.96 84.9214 7.42 84.9214 8C84.9214 8.58 85.0848 9.04 85.4114 9.38C85.7448 9.72 86.2014 9.89 86.7814 9.89ZM86.4214 9.2H85.8214V6.8H86.9914C87.2981 6.8 87.5248 6.86333 87.6714 6.99C87.8181 7.11667 87.8914 7.29 87.8914 7.51C87.8914 7.65667 87.8514 7.78667 87.7714 7.9C87.6981 8.01333 87.5848 8.09667 87.4314 8.15L87.9614 9.15V9.2H87.3114L86.8214 8.24H86.4214V9.2ZM86.4214 7.25V7.79H86.9114C87.0048 7.79 87.0848 7.77333 87.1514 7.74C87.2248 7.70667 87.2614 7.63667 87.2614 7.53C87.2614 7.41667 87.2248 7.34333 87.1514 7.31C87.0781 7.27 86.9981 7.25 86.9114 7.25H86.4214Z" fill="white"/>
</svg>
