<svg xmlns="http://www.w3.org/2000/svg" width="94" height="25" fill="none"><g fill="#fff" clip-path="url(#a)"><path stroke="#fff" stroke-width=".25" d="m10.796 14.06 2.007.002h.071l.037.061 4.524 7.815.11.19-.22-.003-2.02-.034-.071-.001-.035-.06-1.738-2.96H2.5l.114-.19 1.04-1.725.036-.06h8.65l-1.652-2.848-.11-.188zM16.898 2.36l.98 1.76.035.06-.036.062-1.72 3.007 5.351 9.227.11.191-.22-.003-2.02-.034-.07-.002-.036-.06-4.262-7.345-1.603 2.792-.109.188-.108-.188-1.017-1.765-.036-.062.036-.063 1.718-2.96 2.79-4.807.11-.19zm-6.615-.422.98 1.76.034.06-.035.062-4.265 7.352h3.667l-.106.186-.97 1.725-.037.064H.178l.114-.19 1.04-1.725.037-.06h3.34l5.356-9.235.11-.19z"/><path d="M87.46 10.92q-.71 0-1.27-.32a2.37 2.37 0 0 1-.87-.87A2.5 2.5 0 0 1 85 8.46q0-.71.32-1.26.32-.56.87-.88.56-.32 1.27-.32t1.26.32q.56.32.88.88.32.55.32 1.26t-.32 1.27a2.34 2.34 0 0 1-.88.87 2.46 2.46 0 0 1-1.26.32m0-.57q.87 0 1.36-.51.5-.51.5-1.38t-.5-1.38q-.49-.51-1.36-.51t-1.37.51q-.49.51-.49 1.38t.49 1.38q.5.51 1.37.51m-.36-.69h-.6v-2.4h1.17q.46 0 .68.19t.22.52a.66.66 0 0 1-.46.64l.53 1v.05h-.65l-.49-.96h-.4zm0-1.95v.54h.49a.5.5 0 0 0 .24-.05q.11-.05.11-.21 0-.17-.11-.22a.5.5 0 0 0-.24-.06zM71.923 17.15h.399V6h4.196l4.59 11.15h.4V6h2.112v13h-4.125L74.921 7.85h-.4V19H70.31L65.735 7.85h-.399V19h-2.112V6h4.108zM55.828 6a6.5 6.5 0 1 1 0 13 6.5 6.5 0 0 1 0-13m0 2.241a4.259 4.259 0 1 0 0 8.518 4.259 4.259 0 0 0 0-8.518M48.43 19h-2.24V6h2.24zM39.943 6c1 0 1.857.147 2.562.448l.132.059c.648.3 1.152.73 1.503 1.293l.07.113q.5.863.498 2.057a3.6 3.6 0 0 1-.388 1.667q-.38.75-1.096 1.278-.42.309-.937.52l2.984 5.207.206.358h-2.31l-.048-.087-2.802-5.043H37.51V19H35.43V6zm-2.433 5.94h2.487c.606 0 1.097-.102 1.48-.295q.583-.303.869-.796c.194-.332.292-.478.292-.884 0-.464-.094-.63-.277-.967-.178-.329-.461-.586-.859-.77l-.002-.001c-.39-.188-.906-.288-1.557-.288H37.51zM34.535 8.109h-4.097V19h-2.341V8.109H24V6h10.535z"/></g><defs><clipPath id="a"><path fill="#fff" d="M0 0h94v25H0z"/></clipPath></defs></svg>