<svg width="108" height="19" viewBox="0 0 108 19" fill="none" xmlns="http://www.w3.org/2000/svg">
<mask id="mask0_11183_140" style="mask-type:luminance" maskUnits="userSpaceOnUse" x="0" y="-1" width="108" height="20">
<path d="M107.615 -0.000244141H0V18.2297H107.615V-0.000244141Z" fill="white"/>
</mask>
<g mask="url(#mask0_11183_140)">
<path d="M13.8513 11.9547L14.8343 9.33352H19.203L20.5137 5.83848H16.1449L17.7832 1.46973L13.0868 2.34348L11.7761 5.83848H7.40739L6.09676 9.33352H10.4655L8.82723 13.7023H11.4485C12.7591 13.7023 13.196 13.7023 12.5407 15.4497L11.8854 17.1973H16.2541L17.5647 13.7023H14.9435C13.6329 13.7023 13.196 13.7023 13.8513 11.9547Z" fill="#434343"/>
<path d="M23.4997 12.8281H33.5893L35.0562 8.89626C35.6361 7.47641 34.5439 5.83813 32.1618 5.83813H25.7802C22.6227 5.84032 21.4234 6.71516 20.6054 8.89626L18.6394 14.1388C18.0245 15.777 19.226 17.1969 21.5337 17.1969H31.6016L32.7484 14.1388H23.3239C23.171 14.1388 23.0661 13.987 23.1196 13.8439L23.5008 12.8281H23.4997ZM24.8147 9.32112C24.9108 9.06555 25.1555 8.89626 25.4285 8.89626H30.3849C30.5378 8.89626 30.6426 9.04917 30.5891 9.19116L30.2068 10.2069H24.4827L24.8147 9.32112Z" fill="#434343"/>
<path d="M91.3608 9.32112C91.4569 9.06555 91.7018 8.89626 91.9742 8.89626H100.372L101.518 5.83813H92.3274C90.7481 5.83923 89.6594 6.05875 88.8617 6.55024C88.0648 7.04173 87.5597 7.80626 87.1515 8.89626L86.8948 9.58218C86.3049 11.1527 87.4667 12.8281 89.1446 12.8281H95.1473C95.3768 12.8281 95.5352 13.0564 95.4544 13.2705L95.2879 13.7139C95.1917 13.9695 94.9476 14.1388 94.6745 14.1388H85.1898L84.043 17.1969H94.3229C95.9021 17.1958 96.9908 16.9763 97.7869 16.4848C98.5846 15.9933 99.089 15.2288 99.4979 14.1388L99.7541 13.4529C100.344 11.8823 99.1819 10.2069 97.504 10.2069H91.5014C91.2735 10.2069 91.1151 9.97861 91.1951 9.76459L91.3608 9.32112Z" fill="#434343"/>
<path d="M38.6953 13.8439L40.3915 9.32112C40.4876 9.06555 40.7323 8.89626 41.0053 8.89626H49.1891L50.3359 5.83813H41.3581C38.2005 5.84032 37.0014 6.71516 36.1833 8.89626L34.2174 14.1388C33.6024 15.777 34.8038 17.1969 37.1116 17.1969H46.0775L47.2242 14.1388H38.9018C38.7488 14.1388 38.644 13.987 38.6975 13.8439H38.6953Z" fill="#434343"/>
<path d="M61.8148 5.83835H55.7968L57.6121 1.03271H53.2433L47.1686 17.1971H51.5373L54.6631 8.89648H60.0367C60.1896 8.89648 60.2945 9.04939 60.241 9.19138L57.2156 17.1971H61.5844L64.708 8.89648C65.288 7.47663 64.1957 5.83835 61.8137 5.83835H61.8148Z" fill="#434343"/>
<path d="M77.5008 5.83813H71.0788C67.9212 5.84032 66.722 6.71516 65.904 8.89626L62.7869 17.1969H67.1556L70.1133 9.32112C70.2094 9.06555 70.4541 8.89626 70.7271 8.89626H75.7249C75.8779 8.89626 75.9827 9.04917 75.9292 9.19116L72.9038 17.1969H77.2726L80.3962 8.89626C80.9762 7.47641 79.884 5.83813 77.502 5.83813H77.5008Z" fill="#434343"/>
<path d="M82.7728 5.83813L78.4729 17.1969H82.8416L87.1418 5.83813H82.7728Z" fill="#434343"/>
<path d="M88.6306 1.90649H84.2615L83.1038 4.96463H87.4724L88.6306 1.90649Z" fill="#434343"/>
</g>
</svg>
