<svg width="108" height="18" viewBox="0 0 108 18" fill="none" xmlns="http://www.w3.org/2000/svg">
<path d="M15.844 10.4529V10.4158C15.844 6.98144 18.155 4.15967 21.4458 4.15967C25.2358 4.15967 26.9736 7.27845 26.9736 10.6942C26.9736 10.9727 26.9552 11.2698 26.9366 11.5853H19.0424C19.3567 13.1262 20.3735 13.943 21.8156 13.943C22.8878 13.943 23.6828 13.5902 24.5702 12.7177L26.419 14.4442C25.3652 15.8365 23.8307 16.6904 21.7786 16.6904C18.3584 16.6719 15.844 14.1286 15.844 10.4529ZM23.8492 9.45043C23.6458 7.90961 22.7954 6.88859 21.4458 6.88859C20.1147 6.88859 19.2458 7.89104 18.987 9.45043H23.8492Z" fill="#434343"/>
<path d="M29.0817 0.019043H32.2985V16.3926H29.0817V0.019043Z" fill="#434343"/>
<path d="M35.9032 0.019043H39.1201V16.3926H35.9032V0.019043Z" fill="#434343"/>
<path d="M42.0221 10.4529V10.4158C42.0221 6.96287 44.6473 4.15967 48.1785 4.15967C51.6911 4.15967 54.2979 6.92573 54.2979 10.3787V10.4158C54.2979 13.8687 51.6726 16.6719 48.1415 16.6719C44.6288 16.6719 42.0221 13.9058 42.0221 10.4529ZM51.118 10.4529V10.4158C51.118 8.6522 49.9163 7.09281 48.1415 7.09281C46.2927 7.09281 45.2019 8.59649 45.2019 10.3601V10.3972C45.2019 12.1608 46.4037 13.7202 48.1785 13.7202C50.0272 13.7202 51.118 12.2165 51.118 10.4529Z" fill="#434343"/>
<path d="M55.5918 4.36307H58.8452L60.657 11.6587L62.8016 4.32593H65.5752L67.7382 11.6773L69.6054 4.36307H72.8035L69.2727 16.4854H66.3698L64.1884 9.09689L61.97 16.4854H59.0857L55.5918 4.36307Z" fill="#434343"/>
<path d="M75.7073 12.9774V7.29674H74.3574V4.36367H75.7073V1.30054H78.9238V4.38218H81.5862V7.29674H78.9238V12.4391C78.9238 13.2187 79.2381 13.6086 79.9595 13.6086C80.5511 13.6086 81.0868 13.4601 81.5493 13.1816V15.9105C80.8654 16.3375 80.0886 16.5974 79.0167 16.5974C77.0382 16.5974 75.7073 15.762 75.7073 12.9774Z" fill="#434343"/>
<path d="M84.1181 12.9392V12.9021C84.1181 10.2845 86.0037 9.05933 88.6845 9.05933C89.8309 9.05933 90.6446 9.26349 91.4576 9.56056V9.35634C91.4576 7.94545 90.6261 7.16579 89.0172 7.16579C87.7971 7.16579 86.9281 7.40709 85.893 7.81552L85.0978 5.21653C86.3555 4.64102 87.5756 4.25122 89.4982 4.25122C91.2546 4.25122 92.5302 4.75245 93.3248 5.58783C94.1753 6.47891 94.5456 7.81552 94.5456 9.43056V16.4107H91.4392V15.1112C90.663 16.0394 89.572 16.6334 88.0191 16.6334C85.8745 16.6149 84.1181 15.3154 84.1181 12.9392ZM91.5136 12.1595V11.5469C90.9588 11.2685 90.2374 11.1014 89.4613 11.1014C88.0929 11.1014 87.2423 11.6768 87.2423 12.7536V12.7907C87.2423 13.7189 87.9637 14.2572 88.9988 14.2572C90.4963 14.2572 91.5136 13.3847 91.5136 12.1595Z" fill="#434343"/>
<path d="M97.8195 0.019043H101.203V3.04503H97.8195V0.019043ZM97.9117 4.36307H101.129V16.3926H97.9117V4.36307Z" fill="#434343"/>
<path d="M104.714 0.019043H107.932V16.3926H104.714V0.019043Z" fill="#434343"/>
<path d="M4.51101 7.51846L6.19337 10.3402V17.0418H9.74302V10.266L11.3884 7.53703L4.51101 7.51846ZM13.6624 0.0185702H11.9061L8.00519 6.85016L7.08083 5.19797L4.14126 0H0L3.27232 5.45784L4.08579 6.83159H11.7767L15.9179 0L13.6624 0.0185702Z" fill="#434343"/>
</svg>
