<svg width="105" height="38" viewBox="0 0 105 38" fill="none" xmlns="http://www.w3.org/2000/svg">
<path d="M12.8201 27.6971V34.9593L14.7475 32.6793V25.8394L12.8201 27.6971Z" fill="#434343"/>
<path d="M20.1122 11.6532C19.777 8.35993 16.3412 6.67103 12.9891 6.33328C12.4025 6.24884 11.7321 6.24884 11.1455 6.33328V0L9.1343 2.19554V18.4088H9.05051H8.88294C7.3745 18.2398 5.94991 17.6488 4.6929 16.8043C3.60346 16.0443 2.93303 14.9465 2.59788 13.7643C2.51402 13.1732 2.51402 12.4976 2.68166 11.9066C2.84924 11.3155 3.10067 10.7243 3.43588 10.2177C4.27389 9.0355 5.44705 8.1066 6.8717 7.51551L7.3745 7.3466L7.54207 7.26218V7.00885H7.3745C7.12307 7.09327 6.8717 7.17769 6.62028 7.17769C4.94426 7.59993 3.35203 8.35993 2.01123 9.45768C1.42465 9.96434 1.00565 10.471 0.670432 11.1466C0.251428 11.8221 0.0838512 12.5821 0 13.2576C0 14.0176 0.167639 14.6932 0.419004 15.3688C0.75422 16.0443 1.17322 16.5509 1.75987 17.0576C4.02246 19.0843 6.95549 19.3376 9.1343 19.1687V37.9997L11.1455 36.1419V7.09327C13.9948 7.51551 17.3468 9.11992 17.682 12.2443C17.8496 14.1865 16.5926 16.7199 12.9053 18.1554V18.3243H12.9891C14.8328 17.8176 16.6764 17.2265 18.1848 15.8754C18.8552 15.3688 19.358 14.6932 19.6932 13.9332C19.9446 13.3421 20.1122 12.4976 20.1122 11.6532Z" fill="#434343"/>
<path d="M30.1667 7.26294H31.2561V16.9739H35.6137V17.7339H30.1667V7.26294Z" fill="#434343"/>
<path fill-rule="evenodd" clip-rule="evenodd" d="M30.0005 7.177H31.3413V16.888H35.699V17.9858H30.0005V7.177ZM31.1737 16.9725V7.26142H30.1681V17.7325H35.6152V16.9725H31.1737Z" fill="#434343"/>
<path d="M38.2138 7.34736H39.3033V13.4273C39.3033 15.7917 40.0575 16.9739 42.2363 16.9739C43.9961 16.9739 45.1693 16.0451 45.1693 13.5962V7.26294H46.0073V13.5118C46.0073 16.5518 44.4989 17.9028 42.1525 17.9028C39.9737 17.9028 38.2977 16.8051 38.2977 14.0185L38.2138 7.34736Z" fill="#434343"/>
<path fill-rule="evenodd" clip-rule="evenodd" d="M38.045 7.177H39.4696V13.4259C39.4696 14.608 39.6372 15.4525 40.0562 16.0436C40.4752 16.5503 41.1457 16.888 42.235 16.888C43.073 16.888 43.7435 16.6347 44.2463 16.128C44.7491 15.6214 45.0005 14.8614 45.0005 13.5947V7.177H46.0899V13.5947C46.0899 15.1147 45.6709 16.2969 45.0005 17.0569C44.2463 17.8169 43.2407 18.1547 42.0675 18.1547C40.978 18.1547 39.9724 17.9013 39.2182 17.2258C38.464 16.5503 38.045 15.5369 38.045 14.1014V7.177ZM38.2126 14.0169C38.2126 16.8036 39.8887 17.9013 42.0675 17.9013C44.4139 17.9013 45.9223 16.5503 45.9223 13.5103V7.26142H45.0843V13.5947C45.0843 16.0436 43.9111 16.9725 42.1512 16.9725C40.0562 16.9725 39.2182 15.7903 39.2182 13.4259V7.34591H38.1289L38.2126 14.0169Z" fill="#434343"/>
<path d="M50.616 7.26294L53.2139 11.1473L55.8957 7.26294H56.8173L53.6326 11.8229L57.5714 17.6495H56.2306L52.9621 12.6673L49.5266 17.7339H48.6048L52.5435 12.0762L49.359 7.26294H50.616Z" fill="#434343"/>
<path fill-rule="evenodd" clip-rule="evenodd" d="M50.6984 7.1772L53.2126 10.9772L55.81 7.1772H57.1508L53.883 11.9061L57.905 17.9016H56.2292L53.0445 13.0883L49.6927 17.9016H48.3519L52.3741 12.075L49.0224 7.09277H50.6984V7.1772ZM52.5422 12.075L48.6034 17.7327H49.6089L53.0445 12.7505L56.3129 17.7327H57.6538L53.7149 11.9061L56.8997 7.3461H55.978L53.2963 11.2305L50.6984 7.3461H49.3576L52.5422 12.075Z" fill="#434343"/>
<path d="M60.4201 7.34736H61.5091V13.4273C61.5091 15.7917 62.2633 16.9739 64.4427 16.9739C66.2022 16.9739 67.3756 16.0451 67.3756 13.5962V7.26294H68.2135V13.5118C68.2135 16.5518 66.7051 17.9028 64.3583 17.9028C62.1796 17.9028 60.5038 16.8051 60.5038 14.0185V7.34736H60.4201Z" fill="#434343"/>
<path fill-rule="evenodd" clip-rule="evenodd" d="M60.2519 7.177H61.5928V13.4259C61.5928 14.608 61.7602 15.4525 62.1789 16.0436C62.5981 16.5503 63.2685 16.888 64.3576 16.888C65.1961 16.888 65.8665 16.6347 66.3689 16.128C66.8719 15.6214 67.123 14.8614 67.123 13.5947V7.177H68.2127V13.5947C68.2127 15.1147 67.7935 16.2969 67.123 17.0569C66.3689 17.8169 65.3636 18.1547 64.1901 18.1547C63.1011 18.1547 62.0951 17.9013 61.341 17.2258C60.5868 16.5503 60.1676 15.5369 60.1676 14.1014V7.177H60.2519ZM60.4194 7.34591V14.0169C60.4194 16.8036 62.0951 17.9013 64.2739 17.9013C66.6207 17.9013 68.129 16.5503 68.129 13.5103V7.26142H67.2911V13.5947C67.2911 16.0436 66.1177 16.9725 64.3576 16.9725C62.1789 16.9725 61.4247 15.7903 61.4247 13.4259V7.34591H60.4194Z" fill="#434343"/>
<path d="M77.6843 17.7339L74.5834 13.2585C74.3322 13.3429 73.9973 13.3429 73.7455 13.3429H73.075V17.7339H72.0697V7.26294H74.4159C76.2598 7.26294 77.6843 8.10736 77.6843 10.0496C77.6843 10.6407 77.5169 11.3162 77.0976 11.8229C76.7621 12.3296 76.2597 12.7518 75.673 12.9206L79.1089 17.7339H77.6843ZM72.9913 7.93851V12.5829H73.6618C75.4219 12.5829 76.4272 11.4851 76.4272 10.134C76.4272 8.6985 75.5056 7.93851 74.081 7.93851H72.9913Z" fill="#434343"/>
<path fill-rule="evenodd" clip-rule="evenodd" d="M77.5988 17.9013L74.4141 13.4259C74.1629 13.4259 73.9117 13.5103 73.5762 13.5103H73.0732V17.9858H71.7323V7.177H74.2466C75.1682 7.177 76.0904 7.34591 76.6772 7.85257C77.3476 8.35924 77.6825 9.03474 77.6825 10.0481C77.6825 10.7236 77.4313 11.3147 77.0958 11.9059C76.7609 12.4125 76.2579 12.7503 75.7549 13.0036L79.1908 17.9013H77.5988ZM75.6712 12.9192C75.7549 12.9192 75.7549 12.9192 75.8386 12.8347C76.2579 12.6659 76.7609 12.2436 77.0958 11.8214C77.4313 11.3147 77.6825 10.7236 77.6825 10.0481C77.6825 8.1059 76.2579 7.26142 74.4141 7.26142H72.0679V17.7325H73.0732V13.257H73.7436C73.9954 13.257 74.3303 13.2569 74.5821 13.1725L77.7662 17.7325H79.1071L75.6712 12.9192ZM72.9895 12.5814V7.937H74.0792C75.5037 7.937 76.4254 8.69699 76.4254 10.1326C76.4254 11.4836 75.5037 12.5814 73.6599 12.5814H72.9895ZM73.1575 8.1059V12.4125H73.6599C74.4978 12.4125 75.1682 12.1592 75.5875 11.737C76.0067 11.3147 76.2579 10.7236 76.2579 10.1326C76.2579 9.45698 76.0067 8.95032 75.6712 8.61257C75.3363 8.27475 74.7496 8.1059 74.0792 8.1059H73.1575Z" fill="#434343"/>
<path d="M83.7158 13.0896L79.6932 7.26294H81.0341L84.3862 12.2451L87.7384 7.26294H88.66L84.7211 13.0896V17.7339H83.6321L83.7158 13.0896Z" fill="#434343"/>
<path fill-rule="evenodd" clip-rule="evenodd" d="M84.807 13.0883V17.7327H83.7173V13.0883L79.6947 7.26168H81.0355L84.3877 12.2438L87.7399 7.26168H88.6615L84.807 13.0883ZM84.3877 11.9905L81.0355 7.09277H79.3598L83.4661 13.0883V17.8171H84.8907V13.0883L88.997 7.09277H87.6561L84.3877 11.9905Z" fill="#434343"/>
<path d="M31.1723 29.1329V33.6929H30.1667V23.053H32.6807C34.5243 23.053 35.8651 23.8974 35.8651 25.924C35.8651 27.9507 33.9377 29.1329 31.9265 29.1329H31.1723ZM31.1723 23.7285V28.4574H31.9265C33.6863 28.4574 34.6919 27.444 34.6919 26.0085C34.6919 25.6707 34.6919 25.4174 34.6081 25.0796C34.5243 24.8263 34.3567 24.4885 34.1053 24.3196C33.8539 24.0663 33.6025 23.8974 33.3511 23.813C33.0997 23.7285 32.7645 23.6441 32.4293 23.7285H31.1723Z" fill="#434343"/>
<path fill-rule="evenodd" clip-rule="evenodd" d="M31.3413 33.8624H30.0005V22.8848H32.6822C33.604 22.8848 34.442 23.1381 35.0285 23.6448C35.6152 24.1514 36.0342 24.9114 36.0342 25.9247C36.0342 27.0225 35.5313 27.867 34.7772 28.4581C34.023 29.0491 33.0173 29.3025 31.9279 29.3025H31.3413V33.8624ZM31.1737 29.1336H31.9279C33.9392 29.1336 35.8666 27.9514 35.8666 25.9247C35.8666 23.9825 34.442 23.0537 32.6822 23.0537H30.1681V33.6936H31.2575V29.1336H31.1737ZM34.6095 26.0092C34.6095 25.6714 34.6095 25.4181 34.5258 25.1647C34.442 24.9114 34.2743 24.6581 34.1068 24.4048C33.9392 24.2358 33.6877 24.067 33.4363 23.9825C33.185 23.8981 32.9335 23.8981 32.5983 23.8981H31.4252V28.2891H32.0955C32.9335 28.2891 33.604 28.0358 34.023 27.6136C34.3582 27.2758 34.6095 26.6847 34.6095 26.0092ZM31.1737 28.4581V23.7292H32.4307C32.766 23.7292 33.0173 23.7292 33.3525 23.8137C33.604 23.8981 33.9392 24.067 34.1068 24.3203C34.3582 24.5737 34.5258 24.827 34.6095 25.0803C34.6933 25.3337 34.7772 25.6714 34.6933 26.0092C34.6933 27.4447 33.6877 28.4581 31.9279 28.4581H31.1737Z" fill="#434343"/>
<path d="M44.7498 33.6929L41.5655 29.1329C41.314 29.2174 40.9788 29.2174 40.6436 29.2174H39.9732V33.7773H38.8838V23.053H41.3978C43.2415 23.053 44.7498 23.8974 44.7498 25.8396C44.7498 26.5152 44.5823 27.1063 44.1633 27.6129C43.8281 28.1196 43.3253 28.5418 42.6548 28.7107L46.0906 33.6085H44.7498V33.6929ZM39.9732 23.7285V28.4574H40.6436C42.4872 28.4574 43.409 27.3596 43.409 26.0085C43.409 24.4885 42.4872 23.7285 41.0626 23.7285H39.9732Z" fill="#434343"/>
<path fill-rule="evenodd" clip-rule="evenodd" d="M44.6675 33.8624L41.4831 29.3025C41.2316 29.3025 40.9803 29.387 40.645 29.387H40.1422V33.9469H38.7177V22.8848H41.3155C42.2373 22.8848 43.1591 23.1381 43.7456 23.5603C44.4161 24.067 44.7513 24.827 44.7513 25.8403C44.7513 26.5158 44.4999 27.1914 44.1646 27.6981C43.8295 28.2047 43.3266 28.5425 42.8239 28.7958L46.3435 33.778H44.6675V33.8624ZM42.6563 28.7958C42.7401 28.7958 42.7401 28.7958 42.8239 28.7114C43.3266 28.4581 43.8295 28.1203 44.1646 27.6136C44.4999 27.107 44.7513 26.5158 44.7513 25.8403C44.7513 23.8981 43.2429 23.0537 41.3993 23.0537H38.8852V33.6936H39.9747V29.1336H40.645C40.9803 29.1336 41.2316 29.1336 41.5668 29.0491L44.7513 33.6091H46.0921L42.6563 28.7958ZM39.9747 28.4581V23.7292H41.064C42.4886 23.7292 43.4105 24.4892 43.4105 26.0092C43.4105 27.3603 42.4048 28.4581 40.645 28.4581H39.9747ZM40.1422 23.8981V28.2891H40.645C41.5668 28.2891 42.1535 28.0358 42.6563 27.6136C43.0753 27.1914 43.3266 26.6003 43.3266 26.0092C43.3266 25.3337 43.0753 24.7425 42.7401 24.4048C42.4048 24.067 41.8183 23.8981 41.1478 23.8981H40.1422Z" fill="#434343"/>
<path d="M48.7716 23.053H54.2187V23.813H49.861V27.6974H53.4645V28.4574H49.861V32.9329H54.3024V33.6929H48.6878L48.7716 23.053Z" fill="#434343"/>
<path fill-rule="evenodd" clip-rule="evenodd" d="M48.6048 22.8848H54.3867V23.9825H50.0293V27.5291H53.6325V28.5425H50.0293V32.7647H54.4711V33.8624H48.6048V22.8848ZM49.8618 32.9336V28.4581H53.4651V27.6981H49.8618V23.8137H54.2193V23.0537H48.7723V33.6936H54.3867V32.9336H49.8618Z" fill="#434343"/>
<path d="M63.0184 25.2494L61.7612 25.4183C61.7612 25.1649 61.7612 24.9116 61.6775 24.6583C61.5938 24.4049 61.51 24.236 61.3426 24.0672C61.1745 23.8983 61.0071 23.7294 60.7559 23.645C60.5041 23.5605 60.2529 23.476 60.0017 23.476C59.7499 23.476 59.5825 23.476 59.3313 23.5605C59.0795 23.645 58.912 23.7294 58.7446 23.8983C58.5771 24.0672 58.4934 24.236 58.4091 24.4894C58.3253 24.7427 58.3253 24.9116 58.3253 25.1649C58.3253 26.0938 58.912 26.7694 60.0017 27.4449L61.0908 28.1205C62.3479 28.8805 63.2695 29.6405 63.2695 30.9916C63.2695 32.596 61.6775 33.7782 59.8336 33.7782C57.823 33.7782 56.5658 32.5115 56.6496 30.8226L57.9067 30.6538C57.9067 32.0049 58.4091 33.1027 60.0855 33.1027C60.3366 33.1027 60.5884 33.1026 60.8396 33.0182C61.0908 32.9338 61.3426 32.7649 61.51 32.596C61.6775 32.4271 61.8449 32.1738 61.9287 32.0049C62.013 31.7516 62.0968 31.4982 62.0968 31.2449C62.0968 30.316 61.5938 29.7249 60.2529 28.8805L58.9958 28.036C58.4934 27.7827 58.0742 27.3605 57.7386 26.9383C57.4037 26.4316 57.2363 25.9249 57.2363 25.3338C57.2363 24.0672 58.3253 22.8005 60.2529 22.8005C61.9287 22.885 63.0184 23.9827 63.0184 25.2494Z" fill="#434343"/>
<path fill-rule="evenodd" clip-rule="evenodd" d="M63.1035 25.4175L61.5114 25.5864V25.4175C61.5114 25.1642 61.5114 24.9953 61.4277 24.742C61.344 24.4886 61.2596 24.3197 61.0922 24.1508C60.9247 23.982 60.7573 23.8131 60.5892 23.7287C60.4218 23.6442 60.1706 23.5597 59.9188 23.6442C59.7513 23.6442 59.5002 23.6442 59.3327 23.7287C59.1646 23.8131 58.9972 23.8975 58.8297 24.0664C58.6623 24.2353 58.5785 24.4042 58.4942 24.5731C58.4105 24.742 58.4105 24.9953 58.4105 25.1642C58.4105 26.0086 58.9134 26.5997 60.0031 27.2753L61.0922 27.9508C62.3493 28.7108 63.3547 29.4708 63.3547 30.9064C63.3547 32.6797 61.6789 33.8619 59.8351 33.8619C58.746 33.8619 57.9081 33.5241 57.3214 33.0174C56.7347 32.4263 56.3992 31.6663 56.4835 30.8219V30.653L57.9918 30.4841V30.653C57.9918 31.3286 58.0756 31.9197 58.4105 32.3419C58.746 32.7641 59.1646 33.0174 60.0031 33.0174C60.2543 33.0174 60.5055 33.0174 60.6736 32.933C60.9247 32.8486 61.0922 32.7641 61.2596 32.5952C61.4277 32.4263 61.5952 32.2574 61.6789 32.0041C61.7626 31.7508 61.8464 31.5819 61.8464 31.3286C61.8464 30.9064 61.7626 30.5686 61.4277 30.2308C61.1759 29.893 60.6736 29.5553 60.0869 29.133L58.8297 28.2886C58.3267 28.0353 57.9081 27.613 57.5726 27.1064C57.2377 26.5997 57.0696 26.0086 56.9859 25.4175C56.9859 24.0664 58.1593 22.7153 60.0869 22.7153C61.8463 22.7153 63.0198 23.8975 63.0198 25.2486V25.4175H63.1035ZM58.9972 28.2041L60.2543 29.0486C61.5952 29.893 62.0982 30.4841 62.0982 31.413C62.0982 31.6663 62.0138 31.9197 61.9301 32.173C61.8463 32.4263 61.6789 32.5953 61.5114 32.7641C61.344 32.933 61.0922 33.1019 60.841 33.1863C60.5892 33.2708 60.338 33.2708 60.0869 33.2708C58.4942 33.2708 57.9918 32.2574 57.9081 30.9908C57.9081 30.9064 57.9081 30.9064 57.9081 30.8219L56.651 30.9908C56.5672 32.6797 57.8238 33.9463 59.8351 33.9463C61.6789 33.9463 63.2709 32.7641 63.2709 31.1597C63.2709 29.8086 62.3493 29.0486 61.0922 28.2886L60.0031 27.613C58.9134 26.9375 58.3267 26.262 58.3267 25.3331C58.3267 25.0797 58.3267 24.9108 58.4105 24.6575C58.4942 24.4042 58.5785 24.2353 58.746 24.0664C58.9134 23.8975 59.0809 23.8131 59.3327 23.7287C59.5839 23.6442 59.7513 23.6442 60.0031 23.6442C60.2543 23.6442 60.5055 23.6442 60.7573 23.8131C61.0085 23.8975 61.1759 24.0664 61.344 24.2353C61.5114 24.4042 61.5952 24.6575 61.6789 24.8264C61.7626 24.9953 61.7626 25.2486 61.7626 25.4175C61.7626 25.502 61.7626 25.502 61.7626 25.5864L63.0198 25.4175C63.0198 24.1508 61.9301 23.0531 60.2543 23.0531C58.3267 23.0531 57.2377 24.3197 57.2377 25.5864C57.3214 26.1775 57.4889 26.6841 57.74 27.1908C58.0756 27.5286 58.4942 27.9508 58.9972 28.2041Z" fill="#434343"/>
<path d="M66.5389 23.053H71.986V23.813H67.6279V27.6974H71.2319V28.4574H67.6279V32.9329H72.0698V33.6929H66.4551L66.5389 23.053Z" fill="#434343"/>
<path fill-rule="evenodd" clip-rule="evenodd" d="M66.3708 22.8848H72.1529V23.9825H67.7954V27.5291H71.3988V28.5425H67.7954V32.7647H72.2366V33.8624H66.3708V22.8848ZM67.628 32.9336V28.4581H71.2313V27.6981H67.628V23.8137H71.9855V23.0537H66.5383V33.6936H72.1529V32.9336H67.628Z" fill="#434343"/>
<path d="M75.2537 22.8848L82.9633 31.498V23.2225H83.8012V34.0313L76.0916 25.4181V33.6936H75.2537V22.8848Z" fill="#434343"/>
<path fill-rule="evenodd" clip-rule="evenodd" d="M75.0844 22.5464L82.794 31.1597V23.1375H83.8837V34.453L76.2578 25.8397V33.8618H75.1681V22.5464H75.0844ZM76.0897 25.4175L83.7993 34.0307V23.2219H82.9615V31.4974L75.2518 22.8841V33.693H76.0897V25.4175Z" fill="#434343"/>
<path d="M91.9293 33.8624C89.3313 33.8624 87.0689 31.8358 87.0689 28.4581C87.0689 24.9958 89.4151 22.8848 92.0968 22.8848C93.9406 22.8848 95.5327 23.9825 95.6164 25.587L94.3593 25.7558C94.3593 25.4181 94.2755 25.1647 94.1081 24.827C93.9406 24.5737 93.7725 24.3203 93.5214 24.067C93.2702 23.8981 93.0184 23.7292 92.6835 23.6448C92.348 23.5603 92.0968 23.4759 91.7613 23.5603C89.8343 23.5603 88.1579 25.3337 88.1579 28.0358C88.1579 30.6536 89.8343 32.7647 92.1805 32.7647C92.9347 32.7647 93.6051 32.5958 94.2755 32.1736C94.946 31.7514 95.4489 31.2447 95.7838 30.5691C95.5327 32.8491 93.7725 33.8624 91.9293 33.8624Z" fill="#434343"/>
<path fill-rule="evenodd" clip-rule="evenodd" d="M95.7844 25.756L94.1924 25.9249V25.756C94.1924 25.4183 94.1087 25.1649 93.9412 24.9116C93.7732 24.6583 93.6057 24.4049 93.3545 24.236C93.1027 24.0672 92.8515 23.8983 92.6004 23.8139C92.3486 23.7294 92.0137 23.7294 91.7619 23.7294C89.9186 23.7294 88.326 25.4183 88.326 28.036C88.326 30.6538 90.0024 32.6805 92.1811 32.6805C92.8515 32.6805 93.6057 32.5115 94.1924 32.1738C94.7791 31.836 95.2815 31.3293 95.617 30.6538L95.8682 30.7382C95.7007 31.9205 95.1977 32.6805 94.4436 33.2715C93.6894 33.7782 92.7678 34.0315 91.8462 34.0315C89.1645 34.0315 86.8177 31.9205 86.8177 28.5427C86.8177 24.996 89.2482 22.8005 91.9299 22.8005C93.7732 22.8005 95.5333 23.8983 95.617 25.6716L95.7844 25.756ZM95.7844 31.076C95.3658 33.0182 93.6894 33.8626 92.0137 33.8626C89.4157 33.8626 87.1532 31.836 87.1532 28.4582C87.1532 24.996 89.4994 22.885 92.1811 22.885C94.025 22.885 95.617 23.9827 95.7007 25.5872L94.4436 25.756C94.4436 25.6716 94.4436 25.6716 94.4436 25.5872C94.4436 25.3339 94.3599 25.0805 94.1924 24.8272C94.025 24.5739 93.8569 24.3205 93.6057 24.0672C93.3545 23.8983 93.1027 23.7294 92.7678 23.645C92.4323 23.5605 92.1811 23.476 91.8462 23.5605C89.9186 23.5605 88.2422 25.3339 88.2422 28.036C88.2422 30.6538 89.9186 32.7649 92.2648 32.7649C93.019 32.7649 93.6894 32.596 94.3599 32.1738C94.8628 31.836 95.2815 31.4138 95.617 30.9916C95.7007 30.9071 95.7844 30.7382 95.8682 30.6538C95.7844 30.8227 95.7844 30.9071 95.7844 31.076Z" fill="#434343"/>
<path d="M98.9697 23.053H104.249V23.813H99.975V27.6974H103.495V28.4574H99.975V32.9329H104.332V33.6929H98.8853V23.053H98.9697Z" fill="#434343"/>
<path fill-rule="evenodd" clip-rule="evenodd" d="M98.8005 22.8848H104.415V23.9825H100.141V27.5291H103.66V28.5425H100.141V32.7647H104.499V33.8624H98.8005V22.8848ZM100.057 32.9336V28.4581H103.577V27.6981H100.057V23.8137H104.331V23.0537H99.0517V33.6936H104.499V32.9336H100.057Z" fill="#434343"/>
</svg>
