<svg width="88" height="19" viewBox="0 0 88 19" fill="none" xmlns="http://www.w3.org/2000/svg">
<path fill-rule="evenodd" clip-rule="evenodd" d="M45.1937 6.42311V3.21162V0H46.9748H48.7565V8.92398V17.848H47.0247H45.2923V17.1194V16.3906L44.7731 16.9111C44.1227 17.5626 43.5401 17.8942 42.7178 18.081C41.9104 18.2646 41.084 18.2661 40.1954 18.086C38.1409 17.6692 36.669 16.2212 35.927 13.8871C35.6696 13.0778 35.6539 12.9232 35.6539 11.2146C35.6539 9.50695 35.6698 9.35133 35.9264 8.5448C36.2781 7.43898 36.7052 6.67506 37.3396 6.01672C38.3147 5.00466 39.5506 4.502 41.0901 4.49138C42.558 4.48118 43.6231 4.89458 44.6142 5.85881L45.1937 6.42311ZM55.3878 17.848V8.92398V0H57.1695H58.9513V3.19559V6.39118L59.5704 5.79641C60.5581 4.84731 61.4923 4.49236 63.0131 4.48812C64.4311 4.48424 65.5118 4.86383 66.4856 5.70792C68.3506 7.32452 69.0669 10.9099 68.1396 13.9825C67.2609 16.8939 64.7136 18.568 61.8116 18.1412C60.8295 17.9967 60.1083 17.6433 59.4212 16.9695L58.852 16.4115V17.1298V17.848H57.1203H55.3878ZM69.7395 17.848V8.92398V0H71.5205H73.3023V8.92398V17.848H71.5205H69.7395ZM0.187094 8.78086C0.851962 6.42796 2.28894 5.08018 4.61414 4.62875C5.49729 4.45724 7.0143 4.4571 7.94306 4.62847C10.1196 5.03007 11.7983 6.53 12.281 8.50433C12.3864 8.93571 12.4742 9.17149 12.3927 9.29983C12.2792 9.47877 11.8369 9.44892 10.6554 9.44892H8.87765L8.7761 9.09105C8.47445 8.02819 7.5223 7.36269 6.2896 7.35339C5.10375 7.34437 4.26751 7.91755 3.80955 9.05315C3.47604 9.88016 3.42717 11.8955 3.71397 12.9898C3.96266 13.9382 4.38176 14.5893 4.99956 14.9873C5.51444 15.3191 5.94012 15.4111 6.60659 15.3351C7.38633 15.246 8.07119 14.8356 8.44329 14.2342C8.61757 13.9527 8.7736 13.6092 8.79026 13.4707L8.82053 13.2189L10.5453 13.1928C11.4938 13.1784 12.3065 13.2019 12.3514 13.2451C12.3961 13.2883 12.365 13.5792 12.2823 13.8916C11.7522 15.8944 9.96321 17.5468 7.78134 18.0493C7.08586 18.2094 5.33356 18.2079 4.56465 18.0464C2.37195 17.586 0.91089 16.1147 0.196811 13.6483C-0.0609043 12.7581 -0.0669428 9.68019 0.187094 8.78086ZM18.0584 5.06852C18.3158 4.90923 18.77 4.71578 19.0676 4.63867C19.3653 4.56156 19.9761 4.49562 20.4253 4.49215L21.2418 4.48583L21.2413 6.22772L21.2408 7.96954L20.1774 7.97481C18.9203 7.98092 18.2937 8.18977 17.7313 8.79009C17.5735 8.95855 17.4518 9.08404 17.3573 9.2275C17.0304 9.72413 17.0298 10.4356 16.9866 13.8871L16.9364 17.8957L15.1301 17.9217L13.3238 17.9477V11.36V4.77221H15.0065H16.689V5.53571C16.689 5.98118 16.7303 6.29928 16.788 6.29928C16.8424 6.29928 16.887 6.25645 16.887 6.20412C16.887 6.03532 17.5767 5.36663 18.0584 5.06852ZM22.536 7.65074C23.2617 6.14602 24.7734 4.99398 26.4945 4.63409C27.3454 4.45619 29.2345 4.45404 30.1 4.63006C32.0654 5.02979 33.6371 6.49321 34.2502 8.49448C34.4957 9.29615 34.7015 10.6542 34.7019 11.4771L34.7023 12.2168H30.0367H25.371L25.4289 12.7577C25.5507 13.8962 26.3774 14.9914 27.3579 15.3136C28.6359 15.7334 30.237 15.2792 30.6845 14.3697L30.8516 14.0303H32.6846H34.5177L34.4552 14.245C34.4207 14.3631 34.2322 14.7819 34.0361 15.1756C33.378 16.4973 31.9326 17.6021 30.3351 18.0049C29.4884 18.2183 27.4978 18.2112 26.4875 17.9912C23.3747 17.3131 21.7994 15.0398 21.7917 11.2146C21.7886 9.72239 21.981 8.80147 22.536 7.65074ZM74.6307 9.34737C75.1312 6.93097 76.8678 5.12002 79.1472 4.6395C79.4977 4.56558 80.3237 4.50075 80.9817 4.49541C83.066 4.47882 84.3758 4.94705 85.5217 6.11861C86.2748 6.88815 86.7683 7.80934 87.0522 8.97555C87.2292 9.70046 87.4554 11.3931 87.4554 11.9883V12.2168H82.7544C78.712 12.2168 78.0533 12.2362 78.0533 12.3553C78.0533 12.6693 78.2886 13.5307 78.4718 13.8871C78.7273 14.3843 79.2881 14.9482 79.7851 15.2072C80.3632 15.5086 81.8812 15.5064 82.4698 15.2033C82.9029 14.9801 83.343 14.5384 83.4471 14.2216C83.5068 14.0389 83.5949 14.0303 85.3794 14.0303H87.2486L87.1021 14.4313C86.4698 16.1601 84.8922 17.5347 83.0015 18.0047C82.0672 18.2371 80.0377 18.2104 79.0132 17.9524C76.7685 17.387 75.3977 16.0381 74.7779 13.7861C74.478 12.6969 74.4038 10.4464 74.6307 9.34737ZM50.2411 17.848V11.8827C50.2411 8.60185 50.2578 4.70287 50.2779 4.70287C50.2987 4.70287 50.4979 4.76506 50.7214 4.84107C51.5911 5.13703 52.7732 5.10336 53.7053 4.75611C53.8365 4.70725 53.8539 5.40272 53.8539 11.8817V17.848H52.0479H50.2411ZM31.0031 9.56823C30.8542 8.51294 30.074 7.5721 29.1213 7.29926C27.5647 6.85351 26.124 7.64075 25.644 9.19946C25.5463 9.51639 25.4532 9.71198 25.5125 9.83247C25.6212 10.0531 26.2413 10.0216 28.2824 10.0216H31.0672L31.0031 9.56823ZM83.6643 9.55185C83.5387 8.52627 82.753 7.57911 81.8021 7.30682C80.6527 6.97768 79.7316 7.22492 78.9605 8.06942C78.5836 8.48219 78.3511 8.98402 78.2004 9.71142L78.1359 10.0216H80.9289H83.7219L83.6643 9.55185ZM45.3159 11.4998C45.3159 9.4662 44.7023 8.11342 43.5605 7.62881C42.8088 7.30988 41.5475 7.32702 40.8786 7.66539C40.5119 7.85085 39.9173 8.45318 39.7115 8.84756C39.2678 9.69803 39.088 11.6797 39.358 12.7417C39.6548 13.9084 40.5979 15.0532 41.4456 15.2756C42.6193 15.5835 43.6982 15.25 44.4656 14.342C45.0799 13.6153 45.3166 12.8258 45.3159 11.4998ZM64.8878 11.3616C64.885 9.44767 64.2909 8.1777 63.1616 7.67052C62.7583 7.48964 62.5001 7.44703 61.8213 7.44932C60.8447 7.45251 60.4561 7.58348 59.9077 8.09371C59.4468 8.52238 59.2115 8.94473 59.0165 9.69324C58.657 11.0708 58.7278 12.6306 59.1949 13.6174C60.0431 15.4127 62.1843 15.9579 63.5919 14.7375C64.4734 13.9733 64.8906 12.8865 64.8878 11.3616ZM52.1506 3.97804C53.2257 3.97804 54.0968 3.08752 54.0968 1.98898C54.0968 0.890517 53.2257 0 52.1506 0C51.0761 0 50.2044 0.890517 50.2044 1.98898C50.2044 3.08752 51.0761 3.97804 52.1506 3.97804Z" fill="#434343"/>
</svg>
