<svg width="91" height="26" viewBox="0 0 91 26" fill="none" xmlns="http://www.w3.org/2000/svg">
<path d="M29.8451 12.6091V12.5791C29.8451 9.3028 32.434 6.62769 35.9863 6.62769C39.5385 6.62769 42.0973 9.27276 42.0973 12.549V12.5791C42.0973 15.8553 39.5084 18.5305 35.9561 18.5305C32.4039 18.5004 29.8451 15.8553 29.8451 12.6091ZM39.4482 12.6091V12.5791C39.4482 10.5953 38.0032 8.97219 35.9561 8.97219C33.9091 8.97219 32.4942 10.5953 32.4942 12.549V12.5791C32.4942 14.5629 33.9392 16.186 35.9863 16.186C38.0333 16.186 39.4482 14.5629 39.4482 12.6091Z" fill="#434343"/>
<path d="M43.842 12.6091V12.5791C43.842 9.3028 46.3107 6.62769 49.8627 6.62769C52.0303 6.62769 53.325 7.3491 54.4085 8.40106L52.7829 10.2647C51.91 9.45309 50.9767 8.97218 49.8328 8.97218C47.8758 8.97218 46.4914 10.5953 46.4914 12.549V12.5791C46.4914 14.5629 47.8459 16.1859 49.8328 16.1859C51.1574 16.1859 51.9699 15.675 52.8733 14.8333L54.4988 16.4565C53.325 17.7189 52.0004 18.5004 49.7724 18.5004C46.3406 18.5004 43.842 15.8854 43.842 12.6091Z" fill="#434343"/>
<path d="M56.4869 6.80811H59.0159V11.8277L63.6819 6.80811H66.7523L62.0563 11.7075L66.9635 18.3201H63.923L60.3405 13.4207L59.0159 14.8033V18.3201H56.4869V6.80811Z" fill="#434343"/>
<path d="M70.9974 9.15261H67.5052V6.80811H77.0485V9.15261H73.5563V18.3201H71.0273V9.15261H70.9974Z" fill="#434343"/>
<path d="M77.9788 12.6091V12.5791C77.9788 9.3028 80.5682 6.62769 84.1202 6.62769C87.6722 6.62769 90.2311 9.27276 90.2311 12.549V12.5791C90.2311 15.8553 87.6423 18.5305 84.0903 18.5305C80.5377 18.5004 77.9788 15.8553 77.9788 12.6091ZM87.5819 12.6091V12.5791C87.5819 10.5953 86.137 8.97219 84.0903 8.97219C82.043 8.97219 80.628 10.5953 80.628 12.549V12.5791C80.628 14.5629 82.0729 16.186 84.1202 16.186C86.1675 16.186 87.5819 14.5629 87.5819 12.6091Z" fill="#434343"/>
<path d="M21.7197 4.01264C21.6596 3.86235 21.4789 3.68203 21.3284 3.6219L13.0499 0.0450868C12.8994 -0.0150289 12.6586 -0.0150289 12.5081 0.0450868L3.98873 3.44158C3.83821 3.5017 3.65758 3.68203 3.5974 3.83232L0.0451406 12.0681C-0.0150469 12.2183 -0.0150469 12.4588 0.0451406 12.6091L3.41677 21.0852C3.47696 21.2355 3.65758 21.4159 3.80811 21.476L12.0866 25.0829C12.2371 25.143 12.478 25.143 12.6284 25.0829L21.1177 21.7164C21.2682 21.6564 21.4488 21.476 21.509 21.3257L25.0613 13.0599C25.1215 12.9097 25.1215 12.6692 25.0613 12.5189L21.7197 4.01264ZM17.5956 7.16871C17.7461 7.22878 17.9267 7.40916 17.9869 7.55945L19.8834 12.3386C19.9437 12.4888 19.9437 12.7293 19.8834 12.8796L17.8364 17.6287C17.7762 17.7789 17.5956 17.9593 17.4451 18.0194L12.6586 19.913C12.5081 19.9732 12.2672 19.9732 12.1167 19.913L7.36031 17.8691C7.20984 17.809 7.02922 17.6287 6.96897 17.4784L5.07247 12.6993C5.01228 12.549 5.01228 12.3085 5.07247 12.1582L7.1195 7.40916C7.17969 7.25887 7.36031 7.07849 7.51084 7.01842L12.2974 5.12479C12.4478 5.06466 12.6887 5.06466 12.8392 5.12479L17.5956 7.16871Z" fill="#434343"/>
</svg>
