<svg width="1024" height="1024" viewBox="0 0 1024 1024" fill="none" xmlns="http://www.w3.org/2000/svg">
<path d="M262 512C262 373.911 373.911 262 512 262C650.089 262 762 373.911 762 512C762 650.089 650.089 762 512 762C373.911 762 262 650.089 262 512ZM271.749 512C271.749 644.652 379.303 752.212 511.961 752.212C644.619 752.212 752.173 644.658 752.173 512C752.173 379.342 644.613 271.788 511.954 271.788C379.296 271.788 271.749 379.348 271.749 512Z" fill="#E6E4E2"/>
<path d="M311.033 511.999C311.033 401.038 400.994 311.077 511.955 311.077C622.917 311.077 712.878 401.038 712.878 511.999C712.878 622.961 622.917 712.922 511.955 712.922C400.994 712.922 311.033 622.961 311.033 511.999ZM320.867 511.954C320.867 617.524 406.431 703.088 512.001 703.088C617.571 703.088 703.135 617.524 703.135 511.954C703.135 406.384 617.571 320.82 512.001 320.82C406.431 320.82 320.867 406.384 320.867 511.954Z" fill="#E6E4E2"/>
<path d="M360.11 512.045C360.11 428.166 428.121 360.155 512 360.155C595.88 360.155 663.89 428.166 663.89 512.045C663.89 595.925 595.88 663.935 512 663.935C428.121 663.935 360.11 595.925 360.11 512.045ZM369.814 511.954C369.814 590.442 433.467 654.095 511.955 654.095C590.443 654.095 654.096 590.442 654.096 511.954C654.096 433.466 590.443 369.813 511.955 369.813C433.467 369.813 369.814 433.466 369.814 511.954Z" fill="#E6E4E2"/>
<path d="M409.059 511.999C409.059 455.163 455.119 409.103 511.955 409.103C568.792 409.103 614.852 455.163 614.852 511.999C614.852 568.836 568.792 614.896 511.955 614.896C455.119 614.896 409.059 568.836 409.059 511.999ZM418.847 511.954C418.847 563.36 460.549 605.062 511.955 605.062C563.362 605.062 605.064 563.36 605.064 511.954C605.064 460.548 563.362 418.845 511.955 418.845C460.549 418.845 418.847 460.548 418.847 511.954Z" fill="#E6E4E2"/>
<path d="M458.136 512.001C458.136 482.285 482.245 458.182 511.955 458.182C541.664 458.182 565.774 482.291 565.774 512.001C565.774 541.71 541.664 565.82 511.955 565.82C482.245 565.82 458.136 541.71 458.136 512.001ZM467.97 512.001C467.97 536.325 487.676 556.031 512 556.031C536.325 556.031 556.031 536.325 556.031 512.001C556.031 487.676 536.325 467.97 512 467.97C487.676 467.97 467.97 487.676 467.97 512.001Z" fill="#E6E4E2"/>
</svg>
