<svg width="1024" height="1024" viewBox="0 0 1024 1024" fill="none" xmlns="http://www.w3.org/2000/svg">
<path d="M262 265.11C262 263.948 262.948 263 264.11 263H758.89C760.052 263 761 263.948 761 265.11V759.89C761 761.052 760.052 762 758.89 762H264.11C262.948 762 262 761.052 262 759.89V265.11ZM271.817 750.326C271.817 751.488 272.72 752.39 273.882 752.39H749.631C750.793 752.39 751.696 751.488 751.696 750.326V274.584C751.696 273.421 750.793 272.519 749.631 272.519H273.882C272.72 272.519 271.817 273.421 271.817 274.584V750.332V750.326Z" fill="white"/>
<path d="M311.035 314.021C311.035 312.814 311.983 311.866 313.19 311.866H710.062C711.27 311.866 712.218 312.814 712.218 314.021V710.893C712.218 712.101 711.27 713.049 710.062 713.049H313.19C311.983 713.049 311.035 712.101 311.035 710.893V314.021ZM320.722 701.634C320.722 702.582 321.495 703.355 322.443 703.355H700.803C701.751 703.355 702.524 702.582 702.524 701.634V323.274C702.524 322.326 701.751 321.553 700.803 321.553H322.449C321.501 321.553 320.729 322.326 320.729 323.274V701.634H320.722Z" fill="white"/>
<path d="M360.078 363.234C360.078 361.857 361.194 360.734 362.577 360.734H660.944C662.32 360.734 663.444 361.851 663.444 363.234V661.6C663.444 662.977 662.327 664.1 660.944 664.1H362.577C361.201 664.1 360.078 662.983 360.078 661.6V363.234ZM369.635 652.25C369.635 653.458 370.629 654.445 371.83 654.445H651.425C652.633 654.445 653.62 653.458 653.62 652.25V372.662C653.62 371.454 652.633 370.467 651.425 370.467H371.83C370.622 370.467 369.635 371.46 369.635 372.662V652.257V652.25Z" fill="white"/>
<path d="M408.774 412.269C408.774 410.931 409.852 409.86 411.183 409.86H611.817C613.155 409.86 614.226 410.938 614.226 412.269V612.902C614.226 614.24 613.148 615.311 611.817 615.311H411.183C409.846 615.311 408.774 614.234 408.774 612.902V412.269ZM418.546 603.604C418.546 604.721 419.449 605.63 420.572 605.63H602.688C603.805 605.63 604.714 604.728 604.714 603.604V421.482C604.714 420.366 603.811 419.457 602.688 419.457H420.566C419.449 419.457 418.54 420.359 418.54 421.482V603.598L418.546 603.604Z" fill="white"/>
<path d="M458.029 460.095C458.029 459.153 458.802 458.381 459.757 458.374L563.859 458.556C564.8 458.556 565.573 459.328 565.579 460.283L565.398 564.385C565.398 565.327 564.625 566.099 563.671 566.106L459.568 565.924C458.627 565.924 457.854 565.151 457.848 564.197L458.029 460.095ZM467.542 554.951C467.542 555.814 468.275 556.542 469.132 556.542H554.21C555.074 556.542 555.801 555.808 555.801 554.951V469.873C555.801 469.01 555.067 468.282 554.21 468.282H469.132C468.269 468.282 467.542 469.016 467.542 469.873V554.951Z" fill="white"/>
<path d="M506.117 513.45C506.117 510.391 508.572 507.937 511.63 507.937C514.688 507.937 517.142 510.391 517.142 513.45C517.142 516.508 514.688 518.962 511.63 518.962C508.572 518.962 506.117 516.508 506.117 513.45Z" fill="white"/>
</svg>
