<svg width="1024" height="1024" viewBox="0 0 1024 1024" fill="none" xmlns="http://www.w3.org/2000/svg">
<path d="M511.976 563.786C511.446 563.786 511.095 564.306 510.877 565.294C503.81 596.329 491.614 624.394 474.283 649.48C426.062 719.312 351.908 758.538 266.034 760.996C263.97 761.08 262.262 759.442 262.262 757.42V755.177C262.262 752.636 263.579 751.297 266.167 751.212C305.044 750.048 339.619 741.903 369.894 726.769C454.14 684.695 506.973 603.87 506.973 511.025C506.973 418.18 454.146 337.303 369.901 295.23C339.619 280.148 305.004 271.996 266.127 270.793C263.54 270.709 262.223 269.415 262.223 266.828V264.585C262.223 262.557 263.93 260.964 265.995 261.003C351.868 263.46 426.062 302.687 474.29 372.519C491.621 397.605 503.823 425.669 510.884 456.704C511.102 457.699 511.453 458.213 511.936 458.213C512.419 458.213 512.816 457.693 513.034 456.704C520.102 425.669 532.298 397.605 549.628 372.519C597.849 302.693 672.004 263.46 757.871 261.003C759.935 260.919 761.642 262.557 761.642 264.579V266.821C761.642 269.363 760.326 270.702 757.738 270.787C718.861 271.951 684.285 280.096 654.011 295.23C569.765 337.303 516.932 418.128 516.932 511.019C516.932 603.909 569.765 684.695 654.011 726.762C684.285 741.851 718.861 749.996 757.738 751.205C760.372 751.29 761.642 752.584 761.642 755.171V757.414C761.642 759.442 759.929 761.035 757.871 760.989C671.997 758.532 597.843 719.306 549.622 649.474C532.291 624.387 520.089 596.323 513.028 565.288C512.809 564.293 512.459 563.78 511.976 563.78V563.786Z" fill="white"/>
<path d="M556.954 511.539C556.649 399.855 647.255 312.002 759.631 310.319C760.465 310.273 760.901 310.709 760.901 311.528V318.295C760.901 318.815 760.504 319.199 759.982 319.244C678.455 324.029 620.183 361.103 585.17 430.415C572.71 455.073 566.523 482.097 566.609 511.539C566.695 540.936 573.014 567.921 585.607 592.533C621.017 661.676 679.461 698.399 761.034 702.8C761.563 702.8 761.954 703.229 761.954 703.704L762 710.471C762 711.336 761.563 711.719 760.729 711.719C648.353 710.601 557.265 623.224 556.954 511.533V511.539Z" fill="white"/>
<path d="M457.129 510.934C457.082 468.347 443.702 429.765 416.981 395.154C380.691 348.212 330.141 322.995 265.331 319.543C263.617 319.458 262.3 318.08 262.3 316.396V313.419C262.3 311.092 263.484 309.974 265.853 310.058C378.402 313.289 466.863 400.966 466.863 510.934C466.909 620.896 378.534 708.618 265.986 711.94C263.617 712.025 262.432 710.906 262.432 708.579L262.386 705.602C262.386 703.918 263.749 702.54 265.417 702.455C330.227 698.964 380.771 673.748 417.021 626.76C443.742 592.143 457.129 553.521 457.129 510.934Z" fill="white"/>
<path d="M407.326 511.24C407.372 480.504 398.022 452.569 379.202 427.398C351.733 390.629 314.173 371.146 266.475 368.904C263.974 368.774 262.703 367.48 262.703 365.023V362.695C262.703 359.939 264.106 358.645 266.919 358.86C324.622 363.04 367.622 388.302 396.01 434.556C410.099 457.445 417.113 483.006 417.073 511.24C417.027 539.473 409.92 565.034 395.792 587.884C367.271 634.092 324.139 659.179 266.436 663.19C263.63 663.405 262.267 662.111 262.267 659.355V657.027C262.267 654.57 263.537 653.276 266.039 653.146C313.737 651.079 351.383 631.681 378.938 594.996C397.85 569.864 407.286 541.975 407.326 511.24Z" fill="white"/>
<path d="M606.71 511.019C606.71 428.172 674.723 360.102 759.015 359.328C760.465 359.328 761.649 360.446 761.649 361.87V365.575C761.649 367.344 760.769 368.247 758.976 368.377C702.635 372.213 661.257 396.916 634.887 442.389C622.777 463.251 616.722 486.14 616.722 511.012C616.722 535.884 622.777 558.774 634.887 579.596C661.303 625.115 702.682 649.773 759.022 653.608C760.776 653.738 761.695 654.642 761.695 656.41V660.115C761.695 661.494 760.511 662.657 759.062 662.657C674.77 661.884 606.717 593.859 606.717 511.012L606.71 511.019Z" fill="white"/>
<path d="M656.688 510.89C656.734 494.813 660.023 480.238 666.647 467.139C684.772 431.235 715.311 411.401 758.311 407.65C760.508 407.435 761.6 408.423 761.6 410.582V414.248C761.6 416.575 760.415 417.824 758.046 417.954C706.444 421.055 666.468 460.411 666.429 510.89C666.382 561.408 706.272 600.855 757.828 604.04C760.197 604.216 761.381 605.418 761.381 607.746V611.412C761.381 613.57 760.283 614.559 758.093 614.344C715.093 610.509 684.593 590.635 666.561 554.686C659.977 541.541 656.688 526.966 656.688 510.89Z" fill="white"/>
<path d="M357.433 511.239C357.48 501.279 356.249 492.705 353.747 485.502C339.666 444.378 310.437 421.833 266.08 417.828C264.108 417.653 262.573 416.021 262.573 414.032V412.224C262.573 409.683 264.81 407.7 267.397 407.914C324.135 413.128 367.531 454.987 367.399 511.239C367.267 567.536 323.698 609.219 266.914 614.173C264.327 614.388 262.13 612.366 262.13 609.817V608.004C262.13 606.021 263.665 604.383 265.637 604.253C310 600.417 339.355 578.002 353.615 536.963C356.163 529.766 357.433 521.185 357.433 511.226V511.239Z" fill="white"/>
<path d="M307.504 511.149C307.59 487.74 289.776 470.071 267.005 467.184C264.239 466.794 262.221 464.467 262.307 461.756C262.353 461.236 262.393 460.807 262.439 460.417C262.704 458.174 264.808 456.581 267.091 456.926C296.36 461.106 317.33 481.974 317.244 511.156C317.158 540.384 296.049 561.115 266.741 565.08C264.458 565.425 262.353 563.832 262.135 561.589C262.049 561.199 262.003 560.77 262.003 560.25C261.917 557.533 263.975 555.166 266.741 554.815C289.511 552.098 307.457 534.513 307.504 511.149Z" fill="white"/>
<path d="M706.448 510.803C706.534 482.096 728.477 459.635 758.004 457.223C760.022 457.048 761.776 458.602 761.776 460.584V463.731C761.776 465.798 760.723 466.923 758.573 467.053C735.008 468.736 716.493 487.439 716.407 510.849C716.361 534.258 734.75 553.091 758.308 554.905C760.459 555.035 761.511 556.153 761.511 558.227L761.465 561.373C761.465 563.356 759.711 564.91 757.693 564.734C728.159 562.147 706.355 539.563 706.441 510.81L706.448 510.803Z" fill="white"/>
</svg>
