<svg width="1024" height="1024" viewBox="0 0 1024 1024" fill="none" xmlns="http://www.w3.org/2000/svg">
<path d="M614.749 469.364C614.703 479.361 614.664 493.59 614.703 511.991C614.833 554.702 589.187 591.941 549.523 607.632C485.162 633.144 413.26 588.19 409.594 518.283C408.085 490.184 416.192 465.828 433.862 445.23C447.137 429.799 463.176 419.282 481.97 413.724C492.964 410.448 511.498 408.856 537.535 408.895C634.096 409.07 707.812 409.109 758.722 408.979C760.276 408.979 761.524 410.227 761.524 411.781V416.09C761.524 417.858 760.621 418.762 758.852 418.762C636.645 418.807 564.092 418.762 541.202 418.632C511.589 418.417 490.721 420.614 478.609 425.138C433.992 441.863 410.114 489.833 422.615 537.243C437.574 593.832 501.63 620.469 553.19 595.47C574.618 585.083 590.006 567.845 599.445 543.834C603.281 533.967 605.218 521.721 605.218 507.025C605.218 487.499 605.173 475 605.049 469.488C605.004 468.493 604.529 468.025 603.586 468.025H567.291C566.602 468.025 566.043 468.584 565.997 469.319C565.997 477.463 566.043 487.161 566.127 498.452C566.387 524.185 562.591 543.49 540.909 557.367C509.444 577.498 470.34 560.858 460.211 525.901C455.595 509.911 458.573 494.61 469.137 479.959C485.949 456.644 506.727 457.976 537.633 458.022C643.373 458.106 717.174 458.106 758.95 458.022C760.328 458.022 761.453 459.14 761.453 460.524C761.537 485.998 762.961 511.725 760.848 533.278C752.917 613.878 715.067 676.713 647.3 721.843C539.7 793.518 391.241 766.406 313.13 663.141C200.479 514.364 283.68 300.755 467.791 266.065C482.881 263.218 511.55 261.879 553.795 262.009C589.791 262.139 657.858 262.184 757.994 262.054C760.367 262.054 761.531 263.218 761.531 265.59V268.652C761.531 270.81 760.452 271.882 758.3 271.882C730.755 271.798 659.236 271.752 543.796 271.707C503.834 271.661 475.255 273.774 458.053 278.044C347.866 305.194 273.552 397.949 272.258 510.698C271.01 618.279 343.081 714.088 447.534 743.182C583.713 781.109 719.202 695.128 747.261 559.486C752.306 535.261 753.729 505.01 751.526 468.675C751.48 468.201 751.265 467.986 750.791 467.986H714.281C713.332 467.986 712.857 468.461 712.857 469.41C712.681 491.003 712.642 506.518 712.681 515.956C712.857 542.892 706.902 569.139 694.875 594.742C669.053 649.524 628.018 685.768 571.673 703.526C530.118 716.63 489.037 716.285 448.47 702.531C312.649 656.375 265.965 487.207 361.622 379.028C389.687 347.347 424.774 326.443 466.894 316.361C482.627 312.611 511.251 310.804 552.676 310.927C613.761 311.142 682.126 311.142 757.871 311.012C760.374 311.012 761.622 312.26 761.622 314.717V317.993C761.622 320.105 760.543 321.184 758.43 321.184C622.94 320.97 541.423 320.885 513.793 320.885C438.354 320.885 374.085 361.874 340.929 427.472C279.929 548.326 364.639 694.868 499.692 702.538C545.863 705.164 587.158 693.269 623.629 666.892C667.557 635.081 693.549 591.252 701.61 535.391C703.593 521.559 703.892 499.531 702.559 469.234C702.514 468.461 702.13 468.071 701.35 468.071H665.139C664.274 468.071 663.585 468.76 663.631 469.624C664.151 489.495 664.19 504.62 663.806 515.052C662.252 555.866 647.898 590.134 620.782 617.759C536.073 704.13 390.844 662.842 363.949 545.219C346.188 467.681 391.449 391.007 468.052 366.613C482.406 362.043 508.098 359.892 545.129 360.106C594.4 360.405 665.529 360.451 758.553 360.152C760.536 360.152 761.531 361.146 761.531 363.129V367.393C761.531 368.946 760.757 369.72 759.203 369.72C741.871 369.765 660.79 369.895 515.906 370.11C462.753 370.194 421.933 391.657 393.347 434.459C357.786 487.818 363.475 558.758 406.148 606.559C447.144 652.501 513.527 667.587 570.821 641.041C615.093 620.567 642.21 585.441 652.254 535.664C654.061 526.616 654.536 504.373 653.716 468.987C653.716 468.344 653.372 468.038 652.728 468.038H616.088C615.184 468.038 614.749 468.467 614.749 469.377M555.777 468.76C555.693 468.675 555.602 468.584 555.478 468.5C555.394 468.454 555.303 468.454 555.179 468.454C530.092 467.375 514.138 467.291 507.286 468.24C470.645 473.323 454.393 516.638 480.56 543.106C506.772 569.568 550.264 553.838 555.738 517.249C556.772 510.438 556.902 494.448 556.083 469.364C556.083 469.234 556.083 469.15 556.037 469.065C555.953 468.935 555.862 468.851 555.777 468.766V468.76Z" fill="white"/>
</svg>
