<svg width="1024" height="1024" viewBox="0 0 1024 1024" fill="none" xmlns="http://www.w3.org/2000/svg">
<path d="M401.698 754.677C401.698 752.683 403.189 751.062 405.038 751.062H617.815C619.665 751.062 621.156 752.676 621.156 754.677V758.385C621.156 760.379 619.665 762 617.815 762H405.038C403.189 762 401.698 760.386 401.698 758.385V754.677Z" fill="#E6E4E2"/>
<path d="M332.308 700.946C332.308 698.709 333.978 696.901 336.046 696.901H687.865C689.933 696.901 691.603 698.709 691.603 700.946V703.514C691.603 705.752 689.933 707.559 687.865 707.559H336.046C333.978 707.559 332.308 705.752 332.308 703.514V700.946Z" fill="#E6E4E2"/>
<path d="M293.465 646.209C293.465 644.115 295.049 642.408 296.977 642.408H725.7C727.635 642.408 729.213 644.122 729.213 646.209V649.63C729.213 651.725 727.629 653.432 725.7 653.432H296.977C295.042 653.432 293.465 651.717 293.465 649.63V646.209Z" fill="#E6E4E2"/>
<path d="M272.323 591.66C272.323 589.759 273.774 588.188 275.53 588.188H748.199C749.955 588.188 751.407 589.759 751.407 591.66V595.368C751.407 597.268 749.955 598.839 748.199 598.839H275.53C273.774 598.839 272.323 597.268 272.323 595.368V591.66Z" fill="#E6E4E2"/>
<path d="M262.048 537.592C262.048 535.641 263.5 534.07 265.302 534.07H758.542C760.345 534.07 761.796 535.641 761.796 537.592V541.3C761.796 543.25 760.345 544.821 758.542 544.821H265.296C263.493 544.821 262.042 543.25 262.042 541.3V537.592H262.048Z" fill="#E6E4E2"/>
<path d="M262 482.753C262 480.852 263.405 479.332 265.161 479.332H758.839C760.595 479.332 762 480.852 762 482.753V486.748C762 488.648 760.595 490.169 758.839 490.169H265.161C263.405 490.169 262 488.648 262 486.748V482.753Z" fill="#E6E4E2"/>
<path d="M272.193 428.448C272.193 426.834 273.426 425.5 274.917 425.5H748.819C750.31 425.5 751.543 426.834 751.543 428.448V433.016C751.543 434.63 750.31 435.964 748.819 435.964H274.917C273.426 435.964 272.193 434.63 272.193 433.016V428.448Z" fill="#E6E4E2"/>
<path d="M294.209 374.089C294.209 372.231 295.614 370.711 297.33 370.711H726.405C728.121 370.711 729.526 372.231 729.526 374.089V378.277C729.526 380.135 728.121 381.655 726.405 381.655H297.33C295.614 381.655 294.209 380.135 294.209 378.277V374.089Z" fill="#E6E4E2"/>
<path d="M332.971 320.495C332.971 318.358 334.595 316.594 336.576 316.594H688.575C690.549 316.594 692.18 318.351 692.18 320.495V323.35C692.18 325.487 690.556 327.251 688.575 327.251H336.576C334.602 327.251 332.971 325.494 332.971 323.35V320.495Z" fill="#E6E4E2"/>
<path d="M402.227 266.138C402.227 263.858 403.943 262 406.051 262H617.688C619.796 262 621.512 263.858 621.512 266.138V269.086C621.512 271.367 619.796 273.224 617.688 273.224H406.051C403.943 273.224 402.227 271.367 402.227 269.086V266.138Z" fill="#E6E4E2"/>
</svg>
