<svg width="1024" height="1024" viewBox="0 0 1024 1024" fill="none" xmlns="http://www.w3.org/2000/svg">
<path d="M556.112 265.897C556.112 264.316 557.407 263 558.963 263H562.763C564.318 263 565.613 264.316 565.613 265.897V759.01C565.613 760.59 564.318 761.907 562.763 761.907H558.963C557.407 761.907 556.112 760.59 556.112 759.01V265.897Z" fill="white"/>
<path d="M507.137 265.381C507.137 263.8 508.387 262.53 509.942 262.53H513.827C515.383 262.53 516.632 263.8 516.632 265.381V758.58C516.632 760.16 515.383 761.43 513.827 761.43H509.942C508.387 761.43 507.137 760.16 507.137 758.58V265.381Z" fill="white"/>
<path d="M310.962 265.904C310.962 264.238 312.257 262.921 313.897 262.921H317.606C319.246 262.921 320.541 264.238 320.541 265.904V759.017C320.541 760.684 319.246 762 317.606 762H313.897C312.257 762 310.962 760.684 310.962 759.017V265.904Z" fill="white"/>
<path d="M752.252 265.683C752.252 263.93 753.677 262.482 755.401 262.482H758.85C760.575 262.482 762 263.93 762 265.683V758.181C762 759.934 760.575 761.382 758.85 761.382H755.401C753.677 761.382 752.252 759.934 752.252 758.181V265.683Z" fill="white"/>
<path d="M703.132 265.502C703.132 263.789 704.472 262.433 706.151 262.433H709.776C711.461 262.433 712.795 263.796 712.795 265.502V758.35C712.795 760.063 711.455 761.419 709.776 761.419H706.151C704.466 761.419 703.132 760.057 703.132 758.35V265.502Z" fill="white"/>
<path d="M654.353 265.065C654.353 263.617 655.518 262.433 656.943 262.433H661.173C662.598 262.433 663.763 263.617 663.763 265.065V758.793C663.763 760.242 662.598 761.426 661.173 761.426H656.943C655.518 761.426 654.353 760.242 654.353 758.793V265.065Z" fill="white"/>
<path d="M604.988 265.202C604.988 263.714 606.153 262.53 607.617 262.53H612.192C613.656 262.53 614.821 263.714 614.821 265.202V758.666C614.821 760.154 613.656 761.338 612.192 761.338H607.617C606.153 761.338 604.988 760.154 604.988 758.666V265.202Z" fill="white"/>
<path d="M458.152 264.632C458.152 263.184 459.317 262 460.742 262H465.141C466.567 262 467.732 263.184 467.732 264.632V758.182C467.732 759.63 466.567 760.814 465.141 760.814H460.742C459.317 760.814 458.152 759.63 458.152 758.182V264.632Z" fill="white"/>
<path d="M408.995 265.028C408.995 263.626 410.114 262.482 411.501 262.482H415.9C417.279 262.482 418.405 263.62 418.405 265.028V758.842C418.405 760.244 417.286 761.389 415.9 761.389H411.501C410.121 761.389 408.995 760.251 408.995 758.842V265.028Z" fill="white"/>
<path d="M360.253 265.588C360.253 263.835 361.633 262.433 363.357 262.433H366.721C368.446 262.433 369.826 263.835 369.826 265.588V758.264C369.826 760.017 368.446 761.419 366.721 761.419H363.357C361.633 761.419 360.253 760.017 360.253 758.264V265.588Z" fill="white"/>
<path d="M262 265.151C262 263.663 263.21 262.433 264.675 262.433H268.82C270.284 262.433 271.495 263.663 271.495 265.151V758.701C271.495 760.189 270.284 761.419 268.82 761.419H264.675C263.21 761.419 262 760.189 262 758.701V265.151Z" fill="white"/>
</svg>
