<?xml version="1.0" standalone="no"?>
<!DOCTYPE svg PUBLIC "-//W3C//DTD SVG 1.1//EN" "http://www.w3.org/Graphics/SVG/1.1/DTD/svg11.dtd" >
<svg xmlns="http://www.w3.org/2000/svg" xmlns:xlink="http://www.w3.org/1999/xlink" version="1.1">
<metadata>
Created by FontForge 20201107 at Wed Jan 11 18:21:20 2023
 By 
Copyright 2020 The Martian Mono Project Authors (https://github.com/evilmartians/mono)
</metadata>
<defs>
<font id="MartianMono-Light" horiz-adv-x="700" >
  <font-face 
    font-family="Martian Mono Light"
    font-weight="300"
    font-stretch="normal"
    units-per-em="1000"
    panose-1="2 11 0 9 2 0 0 0 0 4"
    ascent="800"
    descent="-200"
    x-height="598"
    cap-height="800"
    bbox="-13 -248 766 1090"
    underline-thickness="50"
    underline-position="-125"
    unicode-range="U+0020-A78C"
  />
<missing-glyph 
d="M100 0v800h500v-800h-500zM140 36h420v728h-420v-728zM190 90v620h320z" />
    <glyph glyph-name=".notdef" 
d="M100 0v800h500v-800h-500zM140 36h420v728h-420v-728zM190 90v620h320z" />
    <glyph glyph-name=".null" horiz-adv-x="0" 
 />
    <glyph glyph-name="nonmarkingreturn" horiz-adv-x="333" 
 />
    <glyph glyph-name="space" unicode=" " 
 />
    <glyph glyph-name="exclam" unicode="!" 
d="M300 800h100v-582h-100v582zM350 -6q-37 0 -57.5 19t-20.5 53t20.5 53t57.5 19t57.5 -19t20.5 -53t-20.5 -53t-57.5 -19z" />
    <glyph glyph-name="quotedbl" unicode="&#x22;" 
d="M186 848h110l-18 -382h-74zM404 848h110l-18 -382h-74z" />
    <glyph glyph-name="numbersign" unicode="#" 
d="M361 800l-157 -800h-80l157 800h80zM576 800l-157 -800h-80l157 800h80zM102 594h550v-84h-550v84zM48 290h550v-84h-550v84z" />
    <glyph glyph-name="dollar" unicode="$" 
d="M324 -100v1000h72v-1000h-72zM188 204q14 -62 57.5 -94t113.5 -32q72 0 114 38t42 104q0 51 -31 82.5t-91 40.5l-86 12q-102 17 -154 73t-52 151q0 72 32.5 125t91.5 82t138 29t137.5 -28.5t92 -81.5t37.5 -129h-94q-14 71 -58 108.5t-115 37.5q-76 0 -120 -38t-44 -105
q0 -51 31.5 -82.5t90.5 -41.5l86 -12q102 -16 154 -72.5t52 -150.5q0 -72 -31.5 -124.5t-88.5 -81.5t-134 -29q-79 0 -137.5 26t-91.5 75t-38 118h96z" />
    <glyph glyph-name="percent" unicode="%" 
d="M49 143v86l602 428v-86zM489 -15q-71 0 -109 45.5t-38 131.5q0 87 38 132.5t109 45.5t108.5 -45.5t37.5 -132.5q0 -86 -37.5 -131.5t-108.5 -45.5zM489 68q29 0 45 24t16 70q0 47 -16 71t-45 24q-30 0 -46 -24t-16 -71q0 -46 16 -70t46 -24zM211 815q71 0 109 -45.5
t38 -131.5q0 -87 -38 -132.5t-109 -45.5q-70 0 -108 45.5t-38 132.5q0 86 38 131.5t108 45.5zM211 732q-29 0 -45 -24t-16 -70q0 -47 16 -71t45 -24q30 0 46 24t16 71q0 46 -16 70t-46 24z" />
    <glyph glyph-name="ampersand" unicode="&#x26;" 
d="M292 -15q-61 0 -108.5 26.5t-74.5 73.5t-27 108q0 58 18.5 101.5t50 76.5t69 59t74.5 50t68 47.5t50 51.5t19 64q0 38 -20.5 59.5t-56.5 21.5q-37 0 -59 -25t-22 -69q0 -26 7 -49.5t20.5 -48t33.5 -53.5l317 -479h-113l-285 428q-24 38 -41.5 71.5t-27 66t-9.5 66.5
q0 55 22.5 96t62.5 64t93 23q51 0 89 -21t58.5 -58.5t20.5 -89.5q0 -48 -18 -84.5t-48.5 -66t-66.5 -55t-72.5 -50.5t-67 -52.5t-49 -61.5t-18.5 -78q0 -36 14.5 -63t41 -41.5t61.5 -14.5q66 0 113 37t76 108t43 172h94q-12 -92 -40.5 -167.5t-71.5 -130t-98 -84t-122 -29.5
z" />
    <glyph glyph-name="quotesingle" unicode="'" 
d="M295 848h110l-18 -382h-74z" />
    <glyph glyph-name="parenleft" unicode="(" 
d="M547 820q-111 -38 -167.5 -149.5t-56.5 -290.5t56.5 -290t167.5 -150v-86q-105 25 -176.5 93.5t-107.5 177t-36 255.5q0 148 36 256.5t107.5 176.5t176.5 93v-86z" />
    <glyph glyph-name="parenright" unicode=")" 
d="M153 820v86q106 -25 177 -93t107 -176.5t36 -256.5q0 -147 -36 -255.5t-107 -177t-177 -93.5v86q111 39 167.5 150t56.5 290t-56.5 290.5t-167.5 149.5z" />
    <glyph glyph-name="asterisk" unicode="*" 
d="M469 93l-131 208l12 42l43 -2l158 -189zM231 93l-82 59l158 189l43 2l12 -42zM314 318l-238 60l31 97l229 -92l14 -40zM350 343l-34 26l-17 246h102l-17 -246zM386 318l-36 25l14 40l229 92l31 -97z" />
    <glyph glyph-name="plus" unicode="+" 
d="M306 73v233h-233v88h233v233h88v-233h233v-88h-233v-233h-88z" />
    <glyph glyph-name="comma" unicode="," 
d="M255 -178q36 31 62.5 79.5t34.5 98.5l-2 164q48 0 70 -27.5t22 -84.5q0 -42 -7.5 -84t-21 -79.5t-32.5 -66.5h-126zM350 -8q-39 0 -61 22.5t-22 63.5t22 63.5t61 22.5q40 0 61.5 -22.5t21.5 -63.5t-21.5 -63.5t-61.5 -22.5z" />
    <glyph glyph-name="hyphen" unicode="-" 
d="M73 306v88h554v-88h-554z" />
    <glyph glyph-name="period" unicode="." 
d="M350 -8q-39 0 -61 22.5t-22 63.5t22 63.5t61 22.5q40 0 61.5 -22.5t21.5 -63.5t-22 -63.5t-61 -22.5z" />
    <glyph glyph-name="slash" unicode="/" 
d="M571 848l-347 -1018h-95l347 1018h95z" />
    <glyph glyph-name="zero" unicode="0" 
d="M350 -15q-142 0 -213.5 103.5t-71.5 311.5t71 311.5t214 103.5q142 0 213.5 -103.5t71.5 -311.5t-71 -311.5t-214 -103.5zM350 78q95 0 140.5 78.5t45.5 243.5t-45.5 243.5t-140.5 78.5t-140.5 -78.5t-45.5 -243.5t45.5 -243.5t140.5 -78.5zM136 296l425 321v-113
l-425 -321v113z" />
    <glyph glyph-name="one" unicode="1" 
d="M430 800v-707h198v-93h-516v93h219v666l30 -15l-249 -161v107l174 110h144z" />
    <glyph glyph-name="two" unicode="2" 
d="M115 148l278 223q60 49 88 97t28 103q0 70 -39.5 110.5t-110.5 40.5q-68 0 -110.5 -42.5t-56.5 -123.5h-96q4 82 39.5 140t93.5 88.5t130 30.5q76 0 132 -30t86.5 -85t30.5 -129q0 -77 -38.5 -143.5t-118.5 -128.5l-251 -196v-10h393v-93h-478v148z" />
    <glyph glyph-name="three" unicode="3" 
d="M609 211q0 -67 -32.5 -118.5t-89 -79.5t-130.5 -28q-80 0 -138 29.5t-90.5 85.5t-35.5 134h96q9 -75 53 -115.5t114 -40.5q46 0 80 17.5t53 49t19 73.5q0 65 -39.5 104t-105.5 39h-96v92h96q68 0 109 36.5t41 96.5q0 61 -41.5 98.5t-111.5 37.5q-73 0 -118 -42.5
t-58 -123.5h-96q5 83 39 140.5t93.5 88t140.5 30.5q75 0 131.5 -27.5t88 -77t31.5 -117.5q0 -66 -34 -113t-92 -63v-15q56 -16 89.5 -67t33.5 -124z" />
    <glyph glyph-name="four" unicode="4" 
d="M521 800v-467h120v-93h-120v-240h-100v240h-362v132l288 428h174zM146 343v-10h275v456h28z" />
    <glyph glyph-name="five" unicode="5" 
d="M125 800h477v-93h-419l41 38v-268h28q20 23 55.5 36t77.5 13q68 0 120.5 -33t82 -92t29.5 -139q0 -81 -32.5 -143.5t-91 -98t-134.5 -35.5q-112 0 -181 60.5t-81 168.5h97q15 -65 56 -100.5t108 -35.5q48 0 84 23t56 64.5t20 96.5t-19.5 94t-54 60.5t-82.5 21.5
q-53 0 -91 -24t-57 -70h-89v456z" />
    <glyph glyph-name="six" unicode="6" 
d="M349 -15q-77 0 -137.5 34t-94.5 95t-34 140q0 60 22.5 120.5t70.5 130.5l202 295h111l-194 -280l16 -15q12 5 28.5 8t34.5 3q71 0 125.5 -34t86 -92.5t31.5 -135.5q0 -79 -34.5 -140t-94.5 -95t-139 -34zM183 254q0 -52 21 -91.5t58.5 -62t87.5 -22.5t87.5 22.5t58.5 62
t21 91.5q0 53 -21 92.5t-58.5 61.5t-87.5 22t-87.5 -22t-58.5 -61.5t-21 -92.5z" />
    <glyph glyph-name="seven" unicode="7" 
d="M587 645l-298 -645h-108l328 697v10h-406v93h484v-155z" />
    <glyph glyph-name="eight" unicode="8" 
d="M350 453q78 0 122 35.5t44 98.5q0 64 -44 99.5t-122 35.5t-122 -35.5t-44 -99.5q0 -63 44 -98.5t122 -35.5zM87 594q0 67 32.5 117t91.5 77t139 27t139 -27t91.5 -77t32.5 -117q0 -63 -34 -110.5t-91 -64.5v-15q57 -17 91 -68.5t34 -121.5t-32.5 -121.5t-91.5 -79.5
t-139 -28t-139 28t-91.5 79.5t-32.5 121.5t34.5 121.5t90.5 68.5v15q-57 17 -91 64.5t-34 110.5zM187 221q0 -67 43 -105t120 -38t120 38t43 105t-43 104.5t-120 37.5t-120 -37.5t-43 -104.5z" />
    <glyph glyph-name="nine" unicode="9" 
d="M351 815q78 0 138 -34t94 -95t34 -140q0 -60 -22.5 -120.5t-70.5 -130.5l-202 -295h-111l194 280l-16 15q-12 -5 -28.5 -8t-34.5 -3q-70 0 -125 34t-86.5 93t-31.5 135q0 79 34.5 140t94.5 95t139 34zM517 546q0 53 -21 92.5t-58.5 61.5t-87.5 22t-87.5 -22t-58.5 -61.5
t-21 -92.5q0 -52 21 -92t58.5 -62t87.5 -22t87.5 22t58.5 62t21 92z" />
    <glyph glyph-name="colon" unicode=":" 
d="M350 -8q-39 0 -61 22.5t-22 63.5t22 63.5t61 22.5q40 0 61.5 -22.5t21.5 -63.5t-22 -63.5t-61 -22.5zM350 434q-39 0 -61 22.5t-22 63.5t22 63.5t61 22.5q40 0 61.5 -22.5t21.5 -63.5t-22 -63.5t-61 -22.5z" />
    <glyph glyph-name="semicolon" unicode=";" 
d="M350 434q-39 0 -61 22.5t-22 63.5t22 63.5t61 22.5q40 0 61.5 -22.5t21.5 -63.5t-22 -63.5t-61 -22.5zM255 -178q36 31 62.5 79.5t34.5 98.5l-2 164q48 0 70 -27.5t22 -84.5q0 -42 -7.5 -84t-21 -79.5t-32.5 -66.5h-126zM350 -8q-39 0 -61 22.5t-22 63.5t22 63.5t61 22.5
q40 0 61.5 -22.5t21.5 -63.5t-21.5 -63.5t-61.5 -22.5z" />
    <glyph glyph-name="less" unicode="&#x3c;" 
d="M580 49l-460 231v140l460 231v-99l-401 -197v-10l401 -197v-99z" />
    <glyph glyph-name="equal" unicode="=" 
d="M90 443v87h520v-87h-520zM90 170v87h520v-87h-520z" />
    <glyph glyph-name="greater" unicode="&#x3e;" 
d="M120 49v99l401 197v10l-401 197v99l460 -231v-140z" />
    <glyph glyph-name="question" unicode="?" 
d="M373 218h-94v15q0 48 15 83t39 62.5t51 51t50.5 48t38.5 54.5t15 70q0 36 -16.5 62.5t-45.5 42t-67 15.5q-63 0 -102.5 -37.5t-52.5 -108.5h-96q14 116 80 177.5t172 61.5q67 0 118.5 -27.5t80.5 -75.5t29 -110q0 -53 -16 -90.5t-40 -65.5t-51.5 -51t-51.5 -46.5t-40 -52
t-16 -68.5v-10zM328 -6q-37 0 -57.5 19t-20.5 53t20.5 53t57.5 19q38 0 58 -19t20 -53t-20 -53t-58 -19z" />
    <glyph glyph-name="at" unicode="@" 
d="M389 -215q-104 0 -177.5 60t-112.5 175t-39 279q0 165 38 280t109.5 175.5t173.5 60.5q118 0 180 -74.5t62 -218.5v-482h-93v35h-28q-28 -50 -89 -50q-72 0 -110 69.5t-38 204.5t38 204t110 69q61 0 89 -50h28q0 100 -38 150.5t-111 50.5q-113 0 -172.5 -109t-59.5 -315
q0 -210 62 -320.5t178 -110.5q36 0 70.5 9t60.5 26v-82q-26 -18 -60.5 -27t-70.5 -9zM448 116q45 0 65 43.5t20 139.5t-20 139.5t-65 43.5q-44 0 -64.5 -43.5t-20.5 -139.5t20.5 -139.5t64.5 -43.5z" />
    <glyph glyph-name="A" unicode="A" 
d="M59 0l210 800h162l210 -800h-104l-185 724h-9l-186 -724h-98zM182 282v94h336v-94h-336z" />
    <glyph glyph-name="B" unicode="B" 
d="M130 0v800h226q122 0 191.5 -57.5t69.5 -158.5q0 -60 -32 -103.5t-89 -60.5v-15q64 -19 99 -68t35 -119q0 -102 -73 -160t-201 -58h-226zM230 92h126q85 0 129.5 35.5t44.5 98.5q0 65 -44.5 100t-129.5 35h-126v-269zM230 448h126q80 0 122.5 33.5t42.5 96.5q0 62 -42 96
t-123 34h-126v-260z" />
    <glyph glyph-name="C" unicode="C" 
d="M366 -15q-139 0 -209 103.5t-70 311.5t72 311.5t217 103.5q78 0 134.5 -33.5t89 -98.5t38.5 -159h-92q-13 98 -56 148t-114 50q-97 0 -143 -78.5t-46 -243.5t43.5 -243.5t135.5 -78.5q69 0 110 46.5t53 136.5h92q-6 -89 -37.5 -150.5t-86.5 -93.5t-131 -32z" />
    <glyph glyph-name="D" unicode="D" 
d="M100 0v800h215q159 0 239.5 -100.5t80.5 -299.5q0 -198 -80.5 -299t-239.5 -101h-215zM200 93h115q110 0 165.5 76.5t55.5 230.5q0 155 -55.5 231t-165.5 76h-115v-614z" />
    <glyph glyph-name="E" unicode="E" 
d="M149 0v800h460v-93h-361v-260h311v-88h-311v-266h351v-93h-450z" />
    <glyph glyph-name="F" unicode="F" 
d="M171 0v800h460v-93h-361v-272h311v-87h-311v-348h-99z" />
    <glyph glyph-name="G" unicode="G" 
d="M338 -14q-124 0 -192.5 105t-68.5 309q0 207 73 311t216 104q78 0 133.5 -31.5t88 -92t39.5 -147.5h-93q-14 87 -55.5 132.5t-112.5 45.5q-96 0 -142.5 -78.5t-46.5 -243.5q0 -167 45.5 -247t140.5 -80q47 0 83.5 30t58 81.5t21.5 116.5h-179v93h263v-394h-84v70h-28
q-19 -40 -60.5 -62t-99.5 -22z" />
    <glyph glyph-name="H" unicode="H" 
d="M100 0v800h100v-350h300v350h100v-800h-100v356h-300v-356h-100z" />
    <glyph glyph-name="I" unicode="I" 
d="M100 0v93h200v614h-200v93h500v-93h-200v-614h200v-93h-500z" />
    <glyph glyph-name="J" unicode="J" 
d="M332 -15q-77 0 -133 29.5t-85.5 84.5t-29.5 132v119h97v-111q0 -75 40 -118t111 -43q72 0 112 43t40 118v465h-346v96h445v-569q0 -77 -30 -132t-86.5 -84.5t-134.5 -29.5z" />
    <glyph glyph-name="K" unicode="K" 
d="M147 800h99v-800h-99v800zM507 0l-290 387l306 413h116l-304 -409l294 -391h-122z" />
    <glyph glyph-name="L" unicode="L" 
d="M184 0v800h100v-707h348v-93h-448z" />
    <glyph glyph-name="M" unicode="M" 
d="M78 0v800h160l110 -468h10l109 468h155v-800h-91v489l3 241h-11l-105 -456h-135l-106 456h-11l3 -241v-489h-91z" />
    <glyph glyph-name="N" unicode="N" 
d="M93 0v800h170l245 -735h11l-3 204v531h91v-800h-170l-245 735h-11l3 -203v-532h-91z" />
    <glyph glyph-name="O" unicode="O" 
d="M350 -15q-142 0 -213.5 103.5t-71.5 311.5t71 311.5t214 103.5q142 0 213.5 -103.5t71.5 -311.5t-71 -311.5t-214 -103.5zM350 78q95 0 140.5 78.5t45.5 243.5t-45.5 243.5t-140.5 78.5t-140.5 -78.5t-45.5 -243.5t45.5 -243.5t140.5 -78.5z" />
    <glyph glyph-name="P" unicode="P" 
d="M137 0v800h266q75 0 130.5 -28.5t86 -80.5t30.5 -124q0 -70 -30.5 -122t-86 -80.5t-130.5 -28.5h-166v-336h-100zM237 425h170q67 0 105 37.5t38 103.5t-38 103.5t-105 37.5h-170v-282z" />
    <glyph glyph-name="Q" unicode="Q" 
d="M324 -110v120h52v-37l229 -87v-101zM350 -15q-142 0 -213.5 103.5t-71.5 311.5t71 311.5t214 103.5q142 0 213.5 -103.5t71.5 -311.5t-71 -311.5t-214 -103.5zM350 78q95 0 140.5 78.5t45.5 243.5t-45.5 243.5t-140.5 78.5t-140.5 -78.5t-45.5 -243.5t45.5 -243.5
t140.5 -78.5z" />
    <glyph glyph-name="R" unicode="R" 
d="M121 0v800h261q77 0 133.5 -27.5t88 -79t31.5 -122.5q0 -67 -31.5 -117t-88.5 -78t-133 -28h-161v-348h-100zM539 0l-220 366h107l226 -366h-113zM221 434h164q69 0 109.5 37t40.5 99q0 63 -40.5 100t-109.5 37h-164v-273z" />
    <glyph glyph-name="S" unicode="S" 
d="M188 204q14 -62 57.5 -94t113.5 -32q72 0 114 38t42 104q0 51 -31 82.5t-91 40.5l-86 12q-102 17 -154 73t-52 151q0 72 32.5 125t91.5 82t138 29t137.5 -28.5t92 -81.5t37.5 -129h-94q-14 71 -58 108.5t-115 37.5q-76 0 -120 -38t-44 -105q0 -51 31.5 -82.5t90.5 -41.5
l86 -12q102 -16 154 -72.5t52 -150.5q0 -72 -31.5 -124.5t-88.5 -81.5t-134 -29q-79 0 -137.5 26t-91.5 75t-38 118h96z" />
    <glyph glyph-name="T" unicode="T" 
d="M300 0v707h-237v93h574v-93h-237v-707h-100z" />
    <glyph glyph-name="U" unicode="U" 
d="M91 800h100v-534q0 -89 42 -138.5t119 -49.5q76 0 118 49.5t42 138.5v534h97v-542q0 -132 -67 -202.5t-192 -70.5t-192 70.5t-67 202.5v542z" />
    <glyph glyph-name="V" unicode="V" 
d="M163 800l185 -724h9l186 724h98l-210 -800h-162l-210 800h104z" />
    <glyph glyph-name="W" unicode="W" 
d="M121 800l74 -568l12 -163h11l68 529h136l65 -529h11l13 163l75 568h86l-106 -800h-144l-65 539h-11l-69 -539h-143l-106 800h93z" />
    <glyph glyph-name="X" unicode="X" 
d="M73 0l199 385l-213 415h112l166 -325l9 -42h10l8 42l169 325h108l-213 -410l199 -390h-114l-150 295l-9 44h-9l-9 -44l-152 -295h-111z" />
    <glyph glyph-name="Y" unicode="Y" 
d="M157 800l182 -334l9 -30h9l9 30l184 334h101l-251 -454v-346h-100v346l-251 454h108z" />
    <glyph glyph-name="Z" unicode="Z" 
d="M108 0v168l417 529v10h-417v93h484v-168l-417 -529v-10h417v-93h-484z" />
    <glyph glyph-name="bracketleft" unicode="[" 
d="M547 889v-87h-186v-844h186v-87h-280v1018h280z" />
    <glyph glyph-name="backslash" unicode="\" 
d="M129 848h95l347 -1018h-95z" />
    <glyph glyph-name="bracketright" unicode="]" 
d="M153 889h280v-1018h-280v87h186v844h-186v87z" />
    <glyph glyph-name="asciicircum" unicode="^" 
d="M125 517l166 298h118l166 -298h-95l-152 282h44l-152 -282h-95z" />
    <glyph glyph-name="underscore" unicode="_" 
d="M73 -138v88h554v-88h-554z" />
    <glyph glyph-name="grave" unicode="`" 
d="M198 848h128l176 -264h-92z" />
    <glyph glyph-name="a" unicode="a" 
d="M492 369v-86l-187 -28q-46 -8 -69 -32.5t-23 -63.5q0 -38 27.5 -61.5t73.5 -23.5t84 22t60.5 59t22.5 83v154q0 62 -36.5 97t-101.5 35q-46 0 -81 -15.5t-57.5 -44.5t-29.5 -71h-92q5 68 39 117.5t91 76t133 26.5q109 0 168.5 -55.5t59.5 -158.5v-399h-93v58h-28
q-24 -35 -64.5 -54t-96.5 -19q-55 0 -95.5 21.5t-62.5 59.5t-22 89q0 74 46.5 121t133.5 61z" />
    <glyph glyph-name="b" unicode="b" 
d="M389 -15q-50 0 -91.5 20t-62.5 55h-28v-60h-96v848h96v-311h28q21 36 62.5 56t91.5 20q74 0 129 -38.5t84.5 -108.5t29.5 -167t-29.5 -167.5t-84.5 -108.5t-129 -38zM370 75q79 0 122.5 59t43.5 165t-43.5 165t-122.5 59t-123 -59t-44 -165t44 -165t123 -59z" />
    <glyph glyph-name="c" unicode="c" 
d="M363 -15q-81 0 -140 37.5t-91 107.5t-32 166q0 98 33 169t94 109.5t145 38.5q73 0 127 -30t85.5 -85t34.5 -130h-88q-12 74 -54 114.5t-108 40.5q-83 0 -128 -59.5t-45 -167.5q0 -106 43.5 -163.5t123.5 -57.5q60 0 100 36t55 101h88q-6 -70 -38 -121t-84.5 -78.5
t-120.5 -27.5z" />
    <glyph glyph-name="d" unicode="d" 
d="M311 -15q-74 0 -128.5 38t-84.5 108.5t-30 167.5t30 167t84.5 108.5t128.5 38.5q51 0 92 -20t62 -56h28v311h96v-848h-96v60h-28q-21 -35 -62 -55t-92 -20zM330 75q79 0 123 59t44 165t-44 165t-123 59t-122.5 -59t-43.5 -165t43.5 -165t122.5 -59z" />
    <glyph glyph-name="e" unicode="e" 
d="M173 353h370l-33 -42q0 104 -38 159.5t-111 55.5q-79 0 -122.5 -58.5t-43.5 -163.5q0 -113 44 -172.5t126 -59.5q55 0 95 28.5t65 83.5h90q-15 -62 -50 -107t-85.5 -68.5t-114.5 -23.5q-83 0 -142 37.5t-90.5 109t-31.5 172.5q0 96 32 165t90.5 106.5t137.5 37.5
q76 0 129 -35t81 -102.5t28 -163.5q0 -11 -0.5 -22.5t-1.5 -21.5h-424v85z" />
    <glyph glyph-name="f" unicode="f" 
d="M368 0h-96v508h-134v90h134v69q0 92 51.5 144t143.5 52q87 0 139 -45.5t58 -127.5h-88q-13 41 -40 62.5t-69 21.5q-47 0 -73 -29.5t-26 -83.5v-63h228v-90h-228v-508z" />
    <glyph glyph-name="g" unicode="g" 
d="M591 17q0 -72 -30.5 -124t-87.5 -80t-138 -28q-73 0 -129 22.5t-88 65t-36 100.5h92q14 -48 56.5 -74.5t104.5 -26.5q76 0 118 39.5t42 110.5v73h-28q-20 -31 -60 -49t-86 -18q-73 0 -126.5 35.5t-82.5 101t-29 154.5q0 91 29 156.5t82.5 101.5t126.5 36q47 0 86.5 -19
t59.5 -51h28v55h96v-581zM179 319q0 -97 42.5 -150.5t118.5 -53.5t118.5 53.5t42.5 150.5t-42.5 150.5t-118.5 53.5t-118.5 -53.5t-42.5 -150.5z" />
    <glyph glyph-name="h" unicode="h" 
d="M120 0v848h96v-298h28q23 30 60 46.5t81 16.5q64 0 110 -28t71.5 -78.5t25.5 -119.5v-387h-96v361q0 78 -36 119t-104 41t-104 -41t-36 -119v-361h-96z" />
    <glyph glyph-name="i" unicode="i" 
d="M151 598h278v-508h182v-90h-460v90h182v418h-182v90zM373 691q-35 0 -55 20t-20 56q0 35 20 54.5t55 19.5t55 -19.5t20 -55.5q0 -35 -20 -55t-55 -20z" />
    <glyph glyph-name="j" unicode="j" 
d="M135 598h360v-617q0 -94 -51 -145t-144 -51q-87 0 -138.5 44t-58.5 125h90q12 -39 39 -60t68 -21q47 0 73 29.5t26 83.5v522h-264v90zM447 691q-35 0 -55 20t-20 56q0 35 20 54.5t55 19.5t55 -19.5t20 -55.5q0 -35 -20 -55t-55 -20z" />
    <glyph glyph-name="k" unicode="k" 
d="M506 0l-269 292l278 306h122l-276 -303l273 -295h-128zM171 0v848h96v-848h-96z" />
    <glyph glyph-name="l" unicode="l" 
d="M136 848h278v-758h182v-90h-460v90h182v668h-182v90z" />
    <glyph glyph-name="m" unicode="m" 
d="M80 598h96v-47h70l-53 -31q4 44 30 68.5t67 24.5q39 0 66 -28.5t34 -77.5l-55 39h115l-50 -30q4 45 33 71t72 26q54 0 86.5 -43.5t32.5 -117.5v-452h-92v417q0 45 -17 68t-51 23q-33 0 -49.5 -23t-16.5 -68v-417h-92v417q0 45 -16.5 68t-49.5 23q-34 0 -51 -23t-17 -68
v-417h-92v598z" />
    <glyph glyph-name="n" unicode="n" 
d="M120 0v598h96v-48h28q23 30 60 46.5t81 16.5q64 0 110 -28t71.5 -78.5t25.5 -119.5v-387h-96v361q0 78 -36 119t-104 41t-104 -41t-36 -119v-361h-96z" />
    <glyph glyph-name="o" unicode="o" 
d="M350 -15q-81 0 -141 38t-92.5 108.5t-32.5 167.5t32.5 167t92.5 108.5t141 38.5q82 0 141.5 -38.5t92 -108.5t32.5 -167t-32.5 -167.5t-92 -108.5t-141.5 -38zM350 75q81 0 125.5 59t44.5 165t-44.5 165t-125.5 59q-80 0 -125 -59t-45 -165t45 -165t125 -59z" />
    <glyph glyph-name="p" unicode="p" 
d="M111 -200v798h96v-61h28q21 36 62.5 56t91.5 20q74 0 129 -38.5t84.5 -108.5t29.5 -167t-29.5 -167.5t-84.5 -108.5t-129 -38q-50 0 -91.5 20t-62.5 55h-28v-260h-96zM370 75q79 0 122.5 59t43.5 165t-43.5 165t-122.5 59t-123 -59t-44 -165t44 -165t123 -59z" />
    <glyph glyph-name="q" unicode="q" 
d="M493 -200v260h-28q-21 -35 -62 -55t-92 -20q-74 0 -128.5 38t-84.5 108.5t-30 167.5t30 167t84.5 108.5t128.5 38.5q51 0 92 -20t62 -56h28v61h96v-798h-96zM330 75q79 0 123 59t44 165t-44 165t-123 59t-122.5 -59t-43.5 -165t43.5 -165t122.5 -59z" />
    <glyph glyph-name="r" unicode="r" 
d="M97 598h226v-46h28q19 29 50.5 45t72.5 16q73 0 114.5 -49t41.5 -136v-88h-100v73q0 109 -89 109q-57 0 -85 -48.5t-28 -144.5v-239h193v-90h-404v90h115v418h-135v90z" />
    <glyph glyph-name="s" unicode="s" 
d="M204 182q13 -52 51.5 -79.5t100.5 -27.5q64 0 98 24t34 68q0 31 -27 51t-81 28l-75 11q-96 14 -141 56t-45 116q0 86 62.5 135t172.5 49q112 0 176.5 -55.5t69.5 -155.5h-88q-13 59 -53 90t-106 31q-67 0 -103 -24.5t-36 -68.5q0 -31 27 -50.5t82 -27.5l75 -11
q96 -15 140.5 -57t44.5 -116q0 -57 -27.5 -98t-78.5 -63t-122 -22q-109 0 -171.5 51.5t-68.5 145.5h89z" />
    <glyph glyph-name="t" unicode="t" 
d="M315 750v-152h273v-90h-273v-315q0 -58 24 -88t70 -30q48 0 75 32.5t37 98.5h86q-5 -108 -57 -164.5t-145 -56.5q-89 0 -137.5 53.5t-48.5 151.5v318h-136v90h136v152h96z" />
    <glyph glyph-name="u" unicode="u" 
d="M580 598v-598h-96v48h-28q-23 -30 -60 -46.5t-81 -16.5q-63 0 -109.5 27.5t-72 78.5t-25.5 120v387h96v-362q0 -77 36 -118.5t104 -41.5t104 41.5t36 118.5v362h96z" />
    <glyph glyph-name="v" unicode="v" 
d="M73 598h103l173 -511h9l172 511h97l-203 -598h-148z" />
    <glyph glyph-name="w" unicode="w" 
d="M146 0l-111 598h95l62 -356l20 -173h9l65 529h135l67 -529h9l18 173l64 356h86l-112 -598h-131l-67 531h-10l-64 -531h-135z" />
    <glyph glyph-name="x" unicode="x" 
d="M90 0l179 286l-190 312h112l147 -239l7 -26h10l7 26l154 239h105l-194 -304l183 -294h-114l-137 219l-8 25h-9l-7 -25l-138 -219h-107z" />
    <glyph glyph-name="y" unicode="y" 
d="M75 598h103l163 -460h65l-26 -88h-110zM628 598l-229 -690q-20 -59 -58 -91t-87 -32q-72 0 -112 39.5t-46 116.5h88q11 -36 26 -52.5t40 -16.5q23 0 37.5 15t26.5 48l218 663h96z" />
    <glyph glyph-name="z" unicode="z" 
d="M129 598h442v-168l-381 -331v-9h381v-90h-442v167l381 331v10h-381v90z" />
    <glyph glyph-name="braceleft" unicode="{" 
d="M577 820q-84 -7 -122 -36t-38 -85q0 -36 10 -72.5t10 -80.5q0 -59 -35.5 -100.5t-98.5 -56.5v-9h-106v48q77 10 112 41t35 87q0 37 -10 71t-10 72q0 98 62.5 148t190.5 53v-80zM577 -60v-80q-128 4 -190.5 53.5t-62.5 147.5q0 39 10 72.5t10 70.5q0 57 -35 87.5
t-112 40.5v48h106v-9q63 -15 98.5 -56.5t35.5 -100.5q0 -43 -10 -79.5t-10 -73.5q0 -56 38 -85t122 -36z" />
    <glyph glyph-name="bar" unicode="|" 
d="M309 -60v920h82v-920h-82z" />
    <glyph glyph-name="braceright" unicode="}" 
d="M123 820v80q128 -3 190.5 -53t62.5 -148q0 -38 -10 -72t-10 -71q0 -56 35 -87t112 -41v-48h-106v9q-63 15 -98.5 56.5t-35.5 100.5q0 44 10 80.5t10 72.5q0 56 -37.5 85t-122.5 36zM123 -60q85 7 122.5 36t37.5 85q0 37 -10 73.5t-10 79.5q0 59 35.5 100.5t98.5 56.5v9
h106v-48q-77 -10 -112 -40.5t-35 -87.5q0 -37 10 -70.5t10 -72.5q0 -98 -62.5 -147.5t-190.5 -53.5v80z" />
    <glyph glyph-name="asciitilde" unicode="~" 
d="M472 244q-38 0 -66.5 13t-51 32t-42.5 38t-40.5 32t-44.5 13q-26 0 -43.5 -20.5t-22.5 -58.5h-81q9 78 48 120.5t100 42.5q38 0 66.5 -13t51 -32t42.5 -38t40.5 -32t44.5 -13q26 0 43.5 21t22.5 58h81q-9 -77 -48 -120t-100 -43z" />
    <glyph glyph-name="uni00A0" unicode="&#xa0;" 
 />
    <glyph glyph-name="exclamdown" unicode="&#xa1;" 
d="M400 -201h-100v582h100v-582zM350 605q37 0 57.5 -19t20.5 -53t-20.5 -53t-57.5 -19t-57.5 19t-20.5 53t20.5 53t57.5 19z" />
    <glyph glyph-name="cent" unicode="&#xa2;" 
d="M326 -101v800h72v-800h-72zM363 -15q-81 0 -140 37.5t-91 107.5t-32 166q0 98 33 169t94 109.5t145 38.5q73 0 127 -30t85.5 -85t34.5 -130h-88q-12 74 -54 114.5t-108 40.5q-83 0 -128 -59.5t-45 -167.5q0 -106 43.5 -163.5t123.5 -57.5q60 0 100 36t55 101h88
q-6 -70 -38 -121t-84.5 -78.5t-120.5 -27.5z" />
    <glyph glyph-name="sterling" unicode="&#xa3;" 
d="M108 0v145q64 11 94 42.5t30 86.5q0 37 -10 69.5t-23 66t-23 73.5t-10 91q0 75 30 129t83 83t124 29q113 0 176.5 -66.5t69.5 -192.5h-93q-11 84 -49 125t-104 41q-63 0 -101 -39t-38 -103q0 -44 10 -80t23 -69.5t23 -69t10 -78.5q0 -75 -33 -120t-99 -58v-12h413v-93
h-503zM108 330v84h405v-84h-405z" />
    <glyph glyph-name="currency" unicode="&#xa4;" 
d="M350 140q-58 0 -105.5 28.5t-76 76t-28.5 105.5t28.5 105.5t76 76t105.5 28.5t105.5 -28.5t76 -76t28.5 -105.5t-28.5 -105.5t-76 -76t-105.5 -28.5zM149 98l-51 51l85 85l51 -51zM350 219q36 0 66 18t47.5 47.5t17.5 65.5t-17.5 66t-47.5 47.5t-66 17.5t-65.5 -17.5
t-47.5 -47.5t-18 -66t18 -65.5t47.5 -47.5t65.5 -18zM183 466l-85 85l51 51l85 -85zM551 98l-85 85l51 51l85 -85zM517 466l-51 51l85 85l51 -51z" />
    <glyph glyph-name="yen" unicode="&#xa5;" 
d="M119 303v81h462v-81h-462zM119 132v81h462v-81h-462zM157 800l182 -334l9 -30h9l9 30l184 334h101l-251 -454v-346h-100v346l-251 454h108z" />
    <glyph glyph-name="brokenbar" unicode="&#xa6;" 
d="M391 860v-370h-82v370h82zM391 310v-370h-82v370h82z" />
    <glyph glyph-name="section" unicode="&#xa7;" 
d="M469 612q-7 56 -36.5 84t-78.5 28q-43 0 -70 -22t-27 -59q0 -31 19 -54t55 -37l102 -40q68 -26 106.5 -79t38.5 -124q0 -64 -31 -114t-87 -74l-112 42v4h4q59 0 94.5 37t35.5 96t-35.5 96t-94.5 37h-4l-110 44l6 19q-41 27 -62 63t-21 82q0 52 24.5 91t68 61t101.5 22
q92 0 145.5 -52.5t57.5 -150.5h-89zM231 -12q7 -56 36.5 -84t78.5 -28q43 0 70 22t27 59q0 32 -18.5 54.5t-55.5 36.5l-102 40q-68 26 -106.5 79t-38.5 124q0 65 31 115t87 73l112 -42v-4h-4q-59 0 -94.5 -37t-35.5 -96t35.5 -96t94.5 -37h4l110 -44l-6 -19q41 -26 62 -62.5
t21 -82.5q0 -52 -24.5 -91t-68 -61t-101.5 -22q-92 0 -145.5 52.5t-57.5 150.5h89z" />
    <glyph glyph-name="dieresis" unicode="&#xa8;" 
d="M233 701q-31 0 -49.5 18t-18.5 49q0 32 18.5 50t49.5 18q32 0 50 -18t18 -50q0 -31 -17.5 -49t-50.5 -18zM467 701q-32 0 -50 18t-18 49q0 32 18 50t50 18t50 -18t18 -50q0 -31 -18 -49t-50 -18z" />
    <glyph glyph-name="copyright" unicode="&#xa9;" 
d="M350 21q-90 0 -154 44.5t-97.5 129.5t-33.5 205q0 121 33.5 205.5t97.5 129t154 44.5q91 0 154.5 -44.5t97 -129t33.5 -205.5q0 -120 -33.5 -205t-97 -129.5t-154.5 -44.5zM350 94q103 0 158 79t55 227t-55 227t-158 79t-158 -79t-55 -227t55 -227t158 -79zM493 351
q-4 -79 -40 -121t-97 -42q-73 0 -111 53.5t-38 158.5t39 159t113 54q67 0 103 -44t38 -132h-73q-3 50 -19.5 74.5t-47.5 24.5q-35 0 -53.5 -33.5t-18.5 -102.5q0 -68 18 -101.5t51 -33.5q28 0 43.5 21.5t18.5 64.5h74z" />
    <glyph glyph-name="ordfeminine" unicode="&#xaa;" 
d="M321 473q-39 0 -64.5 25t-25.5 65t25 65.5t70 33.5l87 16v-58l-72 -12q-16 -3 -25.5 -13t-9.5 -24q0 -16 11 -25.5t28 -9.5q28 0 45.5 19t17.5 46v88q0 29 -13.5 45.5t-38.5 16.5q-27 0 -45 -16.5t-23 -45.5h-74q6 60 43.5 94t99.5 34q61 0 93.5 -31.5t32.5 -88.5v-217
h-75v32h-8q-10 -18 -30.5 -28.5t-48.5 -10.5z" />
    <glyph glyph-name="guillemotleft" unicode="&#xab;" 
d="M382 64l-237 215v112l237 216v-110l-209 -191v62l209 -190v-114zM555 131l-195 152v104l195 153v-98l-170 -134v58l170 -133v-102z" />
    <glyph glyph-name="logicalnot" unicode="&#xac;" 
d="M531 110v204h-458v87h554v-291h-96z" />
    <glyph glyph-name="uni00AD" unicode="&#xad;" 
d="M73 306v88h554v-88h-554z" />
    <glyph glyph-name="registered" unicode="&#xae;" 
d="M258 741h109q42 0 68 -22t26 -57t-26 -56.5t-68 -21.5h-50v-91h-59v248zM317 630h47q37 0 37 31q0 30 -37 30h-47v-61zM400 493l-58 104h64l59 -104h-65zM350 389q-64 0 -116.5 30.5t-83 82t-30.5 115.5t30.5 115.5t83 82t116.5 30.5q65 0 117 -30.5t82.5 -82
t30.5 -115.5t-30.5 -115.5t-82.5 -82t-117 -30.5zM350 439q50 0 89.5 24t63 64t23.5 90t-23.5 90t-63 64t-89.5 24q-49 0 -89 -24t-63.5 -64t-23.5 -90t23.5 -90t63.5 -64t89 -24z" />
    <glyph glyph-name="macron" unicode="&#xaf;" 
d="M192 724v78h316v-78h-316z" />
    <glyph glyph-name="degree" unicode="&#xb0;" 
d="M350 459q-50 0 -91 24t-65 64.5t-24 89.5q0 51 24 91t65 63.5t91 23.5t91 -23.5t65 -63.5t24 -91q0 -49 -24 -89.5t-64.5 -64.5t-91.5 -24zM350 543q26 0 47 12.5t33.5 34t12.5 47.5q0 27 -12.5 48.5t-33.5 34t-47 12.5t-47 -12.5t-33.5 -34t-12.5 -48.5
q0 -26 12.5 -47.5t33.5 -34t47 -12.5z" />
    <glyph glyph-name="plusminus" unicode="&#xb1;" 
d="M306 174v201h-233v87h233v202h88v-202h233v-87h-233v-201h-88zM73 36v88h554v-88h-554z" />
    <glyph glyph-name="uni00B2" unicode="&#xb2;" 
d="M221 590l155 99q25 17 38.5 38.5t13.5 45.5q0 36 -18.5 56t-51.5 20q-30 0 -50.5 -18.5t-27.5 -52.5h-75q5 64 46 101.5t107 37.5q68 0 106.5 -38t38.5 -105q0 -43 -23 -79t-70 -65l-168 -105l-8 23h260v-68h-273v110z" />
    <glyph glyph-name="uni00B3" unicode="&#xb3;" 
d="M503 602q0 -38 -18.5 -67.5t-51.5 -46.5t-76 -17q-67 0 -109 36.5t-46 98.5h74q6 -32 27 -50t53 -18t51 18t19 49q0 29 -17.5 45.5t-49.5 16.5h-42v64h42q34 0 52.5 15t18.5 43t-19.5 44.5t-51.5 16.5q-34 0 -57 -18.5t-29 -53.5h-75q5 64 49 101.5t113 37.5
q43 0 75.5 -16t51 -44t18.5 -65q0 -32 -17.5 -55.5t-48.5 -31.5v-8q31 -12 47.5 -37t16.5 -58z" />
    <glyph glyph-name="acute" unicode="&#xb4;" 
d="M279 686l102 154h113l-129 -154h-86z" />
    <glyph glyph-name="uni00B5" unicode="&#xb5;" 
d="M324 -15q-59 0 -102 29t-67 82t-24 124l78 23q0 -81 36.5 -124.5t104.5 -43.5t104.5 44t36.5 124v355h96v-598h-96v54h-13q-23 -33 -63 -51t-91 -18zM113 -200v798h96v-355v-140h-9l9 -303h-96z" />
    <glyph glyph-name="paragraph" unicode="&#xb6;" 
d="M550 800v-1000h-83v1000h83zM93 524v56q0 65 22 114.5t60 77.5t88 28h100v-1000h-83v504h-17q-50 0 -88 28t-60 77.5t-22 114.5z" />
    <glyph glyph-name="periodcentered" unicode="&#xb7;" 
d="M350 314q-39 0 -61 22.5t-22 63.5t22 63.5t61 22.5q40 0 61.5 -22.5t21.5 -63.5t-22 -63.5t-61 -22.5z" />
    <glyph glyph-name="cedilla" unicode="&#xb8;" 
d="M330 20h76l-17 -65q38 -7 58.5 -28t20.5 -53q0 -42 -33 -65.5t-92 -23.5q-54 0 -86.5 22.5t-35.5 64.5h73q5 -14 18 -22t32 -8t30 9t11 24q0 16 -10.5 26t-31.5 11l-36 4z" />
    <glyph glyph-name="uni00B9" unicode="&#xb9;" 
d="M229 480v68h111v339l34 -20l-145 -93v81l85 53h101v-360h99v-68h-285z" />
    <glyph glyph-name="ordmasculine" unicode="&#xba;" 
d="M350 471q-70 0 -112 47t-42 126t42 126t112 47t112 -47t42 -126t-42 -126t-112 -47zM350 538q37 0 58 28t21 78t-21 78t-58 28t-58 -28t-21 -78t21 -78t58 -28z" />
    <glyph glyph-name="guillemotright" unicode="&#xbb;" 
d="M318 607l237 -215v-113l-237 -215v110l209 190v-61l-209 189v115zM145 540l195 -152v-105l-195 -152v98l170 133v-57l-170 132v103z" />
    <glyph glyph-name="onequarter" unicode="&#xbc;" 
d="M654 800l-208 -324h-78l208 324h78zM332 324l-208 -324h-78l208 324h78zM19 372v68h111v339l34 -20l-145 -93v81l85 53h101v-360h99v-68h-285zM610 428v-241h61v-68h-61v-119h-75v119h-198v81l160 228h113zM388 161l-10 26h157v237h37z" />
    <glyph glyph-name="onehalf" unicode="&#xbd;" 
d="M654 800l-208 -324h-78l208 324h78zM332 324l-208 -324h-78l208 324h78zM19 372v68h111v339l34 -20l-145 -93v81l85 53h101v-360h99v-68h-285zM405 110l156 99q25 17 38 38.5t13 45.5q0 36 -18.5 56t-51.5 20q-30 0 -50.5 -18.5t-27.5 -52.5h-75q5 64 46 101.5t107 37.5
q68 0 106.5 -38t38.5 -105q0 -43 -23 -79t-70 -65l-168 -105l-8 23h260v-68h-273v110z" />
    <glyph glyph-name="threequarters" unicode="&#xbe;" 
d="M654 800l-208 -324h-78l208 324h78zM332 324l-208 -324h-78l208 324h78zM311 494q0 -38 -18.5 -67.5t-51.5 -46.5t-76 -17q-67 0 -109 36.5t-46 98.5h74q6 -32 27 -50t53 -18t51.5 18t19.5 49q0 29 -17.5 45.5t-50.5 16.5h-42v64h42q34 0 52.5 15t18.5 43t-19.5 44.5
t-51.5 16.5q-34 0 -57 -18.5t-29 -53.5h-75q5 64 49 101.5t113 37.5q43 0 75.5 -16t51 -44t18.5 -65q0 -32 -17.5 -55.5t-47.5 -31.5v-8q30 -12 46.5 -37t16.5 -58zM610 428v-241h62v-68h-62v-119h-75v119h-197v81l159 228h113zM388 161l-10 26h157v237h38z" />
    <glyph glyph-name="questiondown" unicode="&#xbf;" 
d="M327 381h94v-15q0 -48 -15 -83t-39 -62.5t-51 -51t-50.5 -48t-38.5 -54.5t-15 -70q0 -35 16.5 -62t46 -42.5t66.5 -15.5q63 0 103 37.5t52 108.5h96q-14 -116 -80 -177.5t-172 -61.5q-67 0 -118.5 27.5t-80.5 75.5t-29 110q0 53 16 90.5t40 65.5t51.5 51t51.5 46.5
t40 52.5t16 68v10zM372 605q37 0 57.5 -19t20.5 -53t-20.5 -53t-57.5 -19t-57.5 19t-20.5 53t20.5 53t57.5 19z" />
    <glyph glyph-name="Agrave" unicode="&#xc0;" 
d="M59 0l210 800h162l210 -800h-104l-185 724h-9l-186 -724h-98zM182 282v94h336v-94h-336zM393 888h-86l-129 154h113z" />
    <glyph glyph-name="Aacute" unicode="&#xc1;" 
d="M59 0l210 800h162l210 -800h-104l-185 724h-9l-186 -724h-98zM182 282v94h336v-94h-336zM307 888l102 154h113l-129 -154h-86z" />
    <glyph glyph-name="Acircumflex" unicode="&#xc2;" 
d="M59 0l210 800h162l210 -800h-104l-185 724h-9l-186 -724h-98zM182 282v94h336v-94h-336zM196 888l98 154h112l98 -154h-84l-97 123h54l-97 -123h-84z" />
    <glyph glyph-name="Atilde" unicode="&#xc3;" 
d="M59 0l210 800h162l210 -800h-104l-185 724h-9l-186 -724h-98zM182 282v94h336v-94h-336zM183 896q6 72 30 103t73 31q35 0 57 -12t37.5 -24.5t33.5 -12.5q14 0 21 12.5t11 40.5h71q-6 -71 -30 -102.5t-73 -31.5q-35 0 -56.5 12.5t-37.5 24.5t-34 12q-13 0 -20.5 -12
t-11.5 -41h-71z" />
    <glyph glyph-name="Adieresis" unicode="&#xc4;" 
d="M59 0l210 800h162l210 -800h-104l-185 724h-9l-186 -724h-98zM182 282v94h336v-94h-336zM233 903q-31 0 -49.5 18t-18.5 49q0 32 18.5 50t49.5 18q32 0 50 -18t18 -50q0 -31 -17.5 -49t-50.5 -18zM467 903q-32 0 -50 18t-18 49q0 32 18 50t50 18t50 -18t18 -50
q0 -31 -18 -49t-50 -18z" />
    <glyph glyph-name="Aring" unicode="&#xc5;" 
d="M59 0l210 800h162l210 -800h-104l-185 724h-9l-186 -724h-98zM182 282v94h336v-94h-336zM350 870q-50 0 -82 29t-32 76t32 76t82 29t82 -29t32 -76t-32 -76t-82 -29zM350 922q24 0 38.5 15t14.5 38q0 24 -14.5 38.5t-38.5 14.5q-23 0 -38 -14.5t-15 -38.5q0 -23 15 -38
t38 -15z" />
    <glyph glyph-name="AE" unicode="&#xc6;" 
d="M360 0v282h-187v87h187v338h-33l-214 -707h-100l246 800h407v-93h-207v-260h167v-88h-167v-266h197v-93h-296z" />
    <glyph glyph-name="Ccedilla" unicode="&#xc7;" 
d="M366 -15q-139 0 -209 103.5t-70 311.5t72 311.5t217 103.5q78 0 134.5 -33.5t89 -98.5t38.5 -159h-92q-13 98 -56 148t-114 50q-97 0 -143 -78.5t-46 -243.5t43.5 -243.5t135.5 -78.5q69 0 110 46.5t53 136.5h92q-6 -89 -37.5 -150.5t-86.5 -93.5t-131 -32zM355 20h76
l-17 -65q38 -7 58.5 -28t20.5 -53q0 -42 -33 -65.5t-92 -23.5q-54 0 -86.5 22.5t-35.5 64.5h73q5 -14 18 -22t32 -8t30 9t11 24q0 16 -10.5 26t-31.5 11l-36 4z" />
    <glyph glyph-name="Egrave" unicode="&#xc8;" 
d="M149 0v800h460v-93h-361v-260h311v-88h-311v-266h351v-93h-450zM457 888h-86l-128 154h112z" />
    <glyph glyph-name="Eacute" unicode="&#xc9;" 
d="M149 0v800h460v-93h-361v-260h311v-88h-311v-266h351v-93h-450zM315 888l102 154h113l-129 -154h-86z" />
    <glyph glyph-name="Ecircumflex" unicode="&#xca;" 
d="M149 0v800h460v-93h-361v-260h311v-88h-311v-266h351v-93h-450zM232 888l98 154h112l98 -154h-84l-97 123h54l-97 -123h-84z" />
    <glyph glyph-name="Edieresis" unicode="&#xcb;" 
d="M149 0v800h460v-93h-361v-260h311v-88h-311v-266h351v-93h-450zM269 903q-31 0 -49.5 18t-18.5 49q0 32 18.5 50t49.5 18q32 0 50 -18t18 -50q0 -31 -17.5 -49t-50.5 -18zM503 903q-32 0 -50 18t-18 49q0 32 18 50t50 18t50 -18t18 -50q0 -31 -18 -49t-50 -18z" />
    <glyph glyph-name="Igrave" unicode="&#xcc;" 
d="M100 0v93h200v614h-200v93h500v-93h-200v-614h200v-93h-500zM421 888h-86l-129 154h113z" />
    <glyph glyph-name="Iacute" unicode="&#xcd;" 
d="M100 0v93h200v614h-200v93h500v-93h-200v-614h200v-93h-500zM279 888l102 154h113l-129 -154h-86z" />
    <glyph glyph-name="Icircumflex" unicode="&#xce;" 
d="M100 0v93h200v614h-200v93h500v-93h-200v-614h200v-93h-500zM196 888l98 154h112l98 -154h-84l-97 123h54l-97 -123h-84z" />
    <glyph glyph-name="Idieresis" unicode="&#xcf;" 
d="M100 0v93h200v614h-200v93h500v-93h-200v-614h200v-93h-500zM233 903q-31 0 -49.5 18t-18.5 49q0 32 18.5 50t49.5 18q32 0 50 -18t18 -50q0 -31 -17.5 -49t-50.5 -18zM467 903q-32 0 -50 18t-18 49q0 32 18 50t50 18t50 -18t18 -50q0 -31 -18 -49t-50 -18z" />
    <glyph glyph-name="Eth" unicode="&#xd0;" 
d="M41 354v92h275v-92h-275zM100 0v800h215q159 0 239.5 -100.5t80.5 -299.5q0 -198 -80.5 -299t-239.5 -101h-215zM200 93h115q110 0 165.5 76.5t55.5 230.5q0 155 -55.5 231t-165.5 76h-115v-614z" />
    <glyph glyph-name="Ntilde" unicode="&#xd1;" 
d="M93 0v800h170l245 -735h11l-3 204v531h91v-800h-170l-245 735h-11l3 -203v-532h-91zM183 896q6 72 30 103t73 31q35 0 57 -12t37.5 -24.5t33.5 -12.5q14 0 21 12.5t11 40.5h71q-6 -71 -30 -102.5t-73 -31.5q-35 0 -56.5 12.5t-37.5 24.5t-34 12q-13 0 -20.5 -12
t-11.5 -41h-71z" />
    <glyph glyph-name="Ograve" unicode="&#xd2;" 
d="M350 -15q-142 0 -213.5 103.5t-71.5 311.5t71 311.5t214 103.5q142 0 213.5 -103.5t71.5 -311.5t-71 -311.5t-214 -103.5zM350 78q95 0 140.5 78.5t45.5 243.5t-45.5 243.5t-140.5 78.5t-140.5 -78.5t-45.5 -243.5t45.5 -243.5t140.5 -78.5zM421 888h-86l-129 154h113z
" />
    <glyph glyph-name="Oacute" unicode="&#xd3;" 
d="M350 -15q-142 0 -213.5 103.5t-71.5 311.5t71 311.5t214 103.5q142 0 213.5 -103.5t71.5 -311.5t-71 -311.5t-214 -103.5zM350 78q95 0 140.5 78.5t45.5 243.5t-45.5 243.5t-140.5 78.5t-140.5 -78.5t-45.5 -243.5t45.5 -243.5t140.5 -78.5zM279 888l102 154h113
l-129 -154h-86z" />
    <glyph glyph-name="Ocircumflex" unicode="&#xd4;" 
d="M350 -15q-142 0 -213.5 103.5t-71.5 311.5t71 311.5t214 103.5q142 0 213.5 -103.5t71.5 -311.5t-71 -311.5t-214 -103.5zM350 78q95 0 140.5 78.5t45.5 243.5t-45.5 243.5t-140.5 78.5t-140.5 -78.5t-45.5 -243.5t45.5 -243.5t140.5 -78.5zM196 888l98 154h112l98 -154
h-84l-97 123h54l-97 -123h-84z" />
    <glyph glyph-name="Otilde" unicode="&#xd5;" 
d="M350 -15q-142 0 -213.5 103.5t-71.5 311.5t71 311.5t214 103.5q142 0 213.5 -103.5t71.5 -311.5t-71 -311.5t-214 -103.5zM350 78q95 0 140.5 78.5t45.5 243.5t-45.5 243.5t-140.5 78.5t-140.5 -78.5t-45.5 -243.5t45.5 -243.5t140.5 -78.5zM183 896q6 72 30 103t73 31
q35 0 57 -12t37.5 -24.5t33.5 -12.5q14 0 21 12.5t11 40.5h71q-6 -71 -30 -102.5t-73 -31.5q-35 0 -56.5 12.5t-37.5 24.5t-34 12q-13 0 -20.5 -12t-11.5 -41h-71z" />
    <glyph glyph-name="Odieresis" unicode="&#xd6;" 
d="M350 -15q-142 0 -213.5 103.5t-71.5 311.5t71 311.5t214 103.5q142 0 213.5 -103.5t71.5 -311.5t-71 -311.5t-214 -103.5zM350 78q95 0 140.5 78.5t45.5 243.5t-45.5 243.5t-140.5 78.5t-140.5 -78.5t-45.5 -243.5t45.5 -243.5t140.5 -78.5zM233 903q-31 0 -49.5 18
t-18.5 49q0 32 18.5 50t49.5 18q32 0 50 -18t18 -50q0 -31 -17.5 -49t-50.5 -18zM467 903q-32 0 -50 18t-18 49q0 32 18 50t50 18t50 -18t18 -50q0 -31 -18 -49t-50 -18z" />
    <glyph glyph-name="multiply" unicode="&#xd7;" 
d="M176 118l-58 58l175 174l-175 174l58 58l174 -174l174 174l58 -58l-174 -174l174 -174l-58 -58l-174 175z" />
    <glyph glyph-name="Oslash" unicode="&#xd8;" 
d="M541 815h94l-476 -830h-94zM350 -15q-142 0 -213.5 103.5t-71.5 311.5t71 311.5t214 103.5q142 0 213.5 -103.5t71.5 -311.5t-71 -311.5t-214 -103.5zM350 78q95 0 140.5 78.5t45.5 243.5t-45.5 243.5t-140.5 78.5t-140.5 -78.5t-45.5 -243.5t45.5 -243.5t140.5 -78.5z
" />
    <glyph glyph-name="Ugrave" unicode="&#xd9;" 
d="M91 800h100v-534q0 -88 42 -138t119 -50q76 0 118 50t42 138v534h97v-542q0 -132 -67 -202.5t-192 -70.5t-192 70.5t-67 202.5v542zM421 888h-86l-129 154h113z" />
    <glyph glyph-name="Uacute" unicode="&#xda;" 
d="M91 800h100v-534q0 -89 42 -138.5t119 -49.5q76 0 118 49.5t42 138.5v534h97v-542q0 -132 -67 -202.5t-192 -70.5t-192 70.5t-67 202.5v542zM279 888l102 154h113l-129 -154h-86z" />
    <glyph glyph-name="Ucircumflex" unicode="&#xdb;" 
d="M91 800h100v-534q0 -89 42 -138.5t119 -49.5q76 0 118 49.5t42 138.5v534h97v-542q0 -132 -67 -202.5t-192 -70.5t-192 70.5t-67 202.5v542zM196 888l98 154h112l98 -154h-84l-97 123h54l-97 -123h-84z" />
    <glyph glyph-name="Udieresis" unicode="&#xdc;" 
d="M91 800h100v-534q0 -89 42 -138.5t119 -49.5q76 0 118 49.5t42 138.5v534h97v-542q0 -132 -67 -202.5t-192 -70.5t-192 70.5t-67 202.5v542zM233 903q-31 0 -49.5 18t-18.5 49q0 32 18.5 50t49.5 18q32 0 50 -18t18 -50q0 -31 -17.5 -49t-50.5 -18zM467 903q-32 0 -50 18
t-18 49q0 32 18 50t50 18t50 -18t18 -50q0 -31 -18 -49t-50 -18z" />
    <glyph glyph-name="Yacute" unicode="&#xdd;" 
d="M157 800l182 -334l9 -30h9l9 30l184 334h101l-251 -454v-346h-100v346l-251 454h108zM279 888l102 154h113l-129 -154h-86z" />
    <glyph glyph-name="Thorn" unicode="&#xde;" 
d="M137 0v800h100v-158h166q75 0 130.5 -28.5t86 -80.5t30.5 -124q0 -71 -30.5 -122.5t-86 -80t-130.5 -28.5h-166v-178h-100zM237 267h170q67 0 105 37.5t38 103.5t-38 103t-105 37h-170v-281z" />
    <glyph glyph-name="germandbls" unicode="&#xdf;" 
d="M311 0h81q73 0 127 29.5t83.5 83.5t29.5 126q0 87 -40 145t-108 73v16q40 21 63 65t23 101q0 67 -28 117.5t-77.5 78.5t-114.5 28q-113 0 -176 -72t-63 -203v-588h96v580q0 92 37.5 142.5t105.5 50.5q56 0 90 -39.5t34 -102.5q0 -66 -33 -104t-91 -38h-39v-86h64
q74 0 116 -41.5t42 -114.5q0 -72 -42.5 -114.5t-115.5 -42.5h-64v-90z" />
    <glyph glyph-name="agrave" unicode="&#xe0;" 
d="M492 369v-86l-187 -28q-46 -8 -69 -32.5t-23 -63.5q0 -38 27.5 -61.5t73.5 -23.5t84 22t60.5 59t22.5 83v154q0 62 -36.5 97t-101.5 35q-46 0 -81 -15.5t-57.5 -44.5t-29.5 -71h-92q5 68 39 117.5t91 76t133 26.5q109 0 168.5 -55.5t59.5 -158.5v-399h-93v58h-28
q-24 -35 -64.5 -54t-96.5 -19q-55 0 -95.5 21.5t-62.5 59.5t-22 89q0 74 46.5 121t133.5 61zM414 686h-86l-129 154h113z" />
    <glyph glyph-name="aacute" unicode="&#xe1;" 
d="M492 369v-86l-187 -28q-46 -8 -69 -32.5t-23 -63.5q0 -38 27.5 -61.5t73.5 -23.5t84 22t60.5 59t22.5 83v154q0 62 -36.5 97t-101.5 35q-46 0 -81 -15.5t-57.5 -44.5t-29.5 -71h-92q5 68 39 117.5t91 76t133 26.5q109 0 168.5 -55.5t59.5 -158.5v-399h-93v58h-28
q-24 -35 -64.5 -54t-96.5 -19q-55 0 -95.5 21.5t-62.5 59.5t-22 89q0 74 46.5 121t133.5 61zM272 686l102 154h113l-129 -154h-86z" />
    <glyph glyph-name="acircumflex" unicode="&#xe2;" 
d="M492 369v-86l-187 -28q-46 -8 -69 -32.5t-23 -63.5q0 -38 27.5 -61.5t73.5 -23.5t84 22t60.5 59t22.5 83v154q0 62 -36.5 97t-101.5 35q-46 0 -81 -15.5t-57.5 -44.5t-29.5 -71h-92q5 68 39 117.5t91 76t133 26.5q109 0 168.5 -55.5t59.5 -158.5v-399h-93v58h-28
q-24 -35 -64.5 -54t-96.5 -19q-55 0 -95.5 21.5t-62.5 59.5t-22 89q0 74 46.5 121t133.5 61zM189 686l98 154h112l98 -154h-84l-97 123h54l-97 -123h-84z" />
    <glyph glyph-name="atilde" unicode="&#xe3;" 
d="M492 369v-86l-187 -28q-46 -8 -69 -32.5t-23 -63.5q0 -38 27.5 -61.5t73.5 -23.5t84 22t60.5 59t22.5 83v154q0 62 -36.5 97t-101.5 35q-46 0 -81 -15.5t-57.5 -44.5t-29.5 -71h-92q5 68 39 117.5t91 76t133 26.5q109 0 168.5 -55.5t59.5 -158.5v-399h-93v58h-28
q-24 -35 -64.5 -54t-96.5 -19q-55 0 -95.5 21.5t-62.5 59.5t-22 89q0 74 46.5 121t133.5 61zM176 694q6 72 30 103t73 31q35 0 57 -12t37.5 -24.5t33.5 -12.5q14 0 21 12.5t11 40.5h71q-6 -71 -30 -102.5t-73 -31.5q-35 0 -56.5 12.5t-37.5 24.5t-34 12q-13 0 -20.5 -12
t-11.5 -41h-71z" />
    <glyph glyph-name="adieresis" unicode="&#xe4;" 
d="M492 369v-86l-187 -28q-46 -8 -69 -32.5t-23 -63.5q0 -38 27.5 -61.5t73.5 -23.5t84 22t60.5 59t22.5 83v154q0 62 -36.5 97t-101.5 35q-46 0 -81 -15.5t-57.5 -44.5t-29.5 -71h-92q5 68 39 117.5t91 76t133 26.5q109 0 168.5 -55.5t59.5 -158.5v-399h-93v58h-28
q-24 -35 -64.5 -54t-96.5 -19q-55 0 -95.5 21.5t-62.5 59.5t-22 89q0 74 46.5 121t133.5 61zM226 701q-31 0 -49.5 18t-18.5 49q0 32 18.5 50t49.5 18q32 0 50 -18t18 -50q0 -31 -17.5 -49t-50.5 -18zM460 701q-32 0 -50 18t-18 49q0 32 18 50t50 18t50 -18t18 -50
q0 -31 -18 -49t-50 -18z" />
    <glyph glyph-name="aring" unicode="&#xe5;" 
d="M492 369v-86l-187 -28q-46 -8 -69 -32.5t-23 -63.5q0 -38 27.5 -61.5t73.5 -23.5t84 22t60.5 59t22.5 83v154q0 62 -36.5 97t-101.5 35q-46 0 -81 -15.5t-57.5 -44.5t-29.5 -71h-92q5 68 39 117.5t91 76t133 26.5q109 0 168.5 -55.5t59.5 -158.5v-399h-93v58h-28
q-24 -35 -64.5 -54t-96.5 -19q-55 0 -95.5 21.5t-62.5 59.5t-22 89q0 74 46.5 121t133.5 61zM343 668q-50 0 -82 29t-32 76t32 76t82 29t82 -29t32 -76t-32 -76t-82 -29zM343 720q24 0 38.5 15t14.5 38q0 24 -14.5 38.5t-38.5 14.5q-23 0 -38 -14.5t-15 -38.5q0 -23 15 -38
t38 -15z" />
    <glyph glyph-name="ae" unicode="&#xe6;" 
d="M500 -15q-89 0 -133 77.5t-44 241.5q0 155 43 232t131 77q56 0 91.5 -32t52.5 -98t17 -171q0 -11 -0.5 -22.5t-1.5 -21.5h-277v85h223l-32 -42q0 77 -8 124t-24.5 69t-43.5 22q-30 0 -50 -23.5t-29.5 -73t-9.5 -125.5q0 -80 9.5 -131.5t30 -76t52.5 -24.5q33 0 54 27
t32 85h88q-11 -99 -55 -149t-116 -50zM324 369v-86l-105 -27q-38 -10 -57.5 -35.5t-19.5 -64.5q0 -36 19.5 -59t52.5 -23q46 0 73 39.5t27 106.5v172q0 67 -21.5 99.5t-64.5 32.5q-44 0 -71 -32.5t-38 -98.5h-90q9 106 61 163t140 57q80 0 122.5 -55.5t42.5 -158.5v-290
l-19 -34h-36q-19 -44 -55.5 -67t-88.5 -23q-71 0 -112.5 44.5t-41.5 119.5q0 73 41 120.5t123 68.5z" />
    <glyph glyph-name="ccedilla" unicode="&#xe7;" 
d="M363 -15q-81 0 -140 37.5t-91 107.5t-32 166q0 98 33 169t94 109.5t145 38.5q73 0 127 -30t85.5 -85t34.5 -130h-88q-12 74 -54 114.5t-108 40.5q-83 0 -128 -59.5t-45 -167.5q0 -106 43.5 -163.5t123.5 -57.5q60 0 100 36t55 101h88q-6 -70 -38 -121t-84.5 -78.5
t-120.5 -27.5zM350 20h76l-17 -65q38 -7 58.5 -28t20.5 -53q0 -42 -33 -65.5t-92 -23.5q-54 0 -86.5 22.5t-35.5 64.5h73q5 -14 18 -22t32 -8t30 9t11 24q0 16 -10.5 26t-31.5 11l-36 4z" />
    <glyph glyph-name="egrave" unicode="&#xe8;" 
d="M173 353h370l-33 -42q0 104 -38 159.5t-111 55.5q-79 0 -122.5 -58.5t-43.5 -163.5q0 -113 44 -172.5t126 -59.5q55 0 95 28.5t65 83.5h90q-15 -62 -50 -107t-85.5 -68.5t-114.5 -23.5q-83 0 -142 37.5t-90.5 109t-31.5 172.5q0 96 32 165t90.5 106.5t137.5 37.5
q76 0 129 -35t81 -102.5t28 -163.5q0 -11 -0.5 -22.5t-1.5 -21.5h-424v85zM429 686h-86l-128 154h112z" />
    <glyph glyph-name="eacute" unicode="&#xe9;" 
d="M173 353h370l-33 -42q0 104 -38 159.5t-111 55.5q-79 0 -122.5 -58.5t-43.5 -163.5q0 -113 44 -172.5t126 -59.5q55 0 95 28.5t65 83.5h90q-15 -62 -50 -107t-85.5 -68.5t-114.5 -23.5q-83 0 -142 37.5t-90.5 109t-31.5 172.5q0 96 32 165t90.5 106.5t137.5 37.5
q76 0 129 -35t81 -102.5t28 -163.5q0 -11 -0.5 -22.5t-1.5 -21.5h-424v85zM287 686l102 154h113l-129 -154h-86z" />
    <glyph glyph-name="ecircumflex" unicode="&#xea;" 
d="M173 353h370l-33 -42q0 104 -38 159.5t-111 55.5q-79 0 -122.5 -58.5t-43.5 -163.5q0 -113 44 -172.5t126 -59.5q55 0 95 28.5t65 83.5h90q-15 -62 -50 -107t-85.5 -68.5t-114.5 -23.5q-83 0 -142 37.5t-90.5 109t-31.5 172.5q0 96 32 165t90.5 106.5t137.5 37.5
q76 0 129 -35t81 -102.5t28 -163.5q0 -11 -0.5 -22.5t-1.5 -21.5h-424v85zM204 686l98 154h112l98 -154h-84l-97 123h54l-97 -123h-84z" />
    <glyph glyph-name="edieresis" unicode="&#xeb;" 
d="M173 353h370l-33 -42q0 104 -38 159.5t-111 55.5q-79 0 -122.5 -58.5t-43.5 -163.5q0 -113 44 -172.5t126 -59.5q55 0 95 28.5t65 83.5h90q-15 -62 -50 -107t-85.5 -68.5t-114.5 -23.5q-83 0 -142 37.5t-90.5 109t-31.5 172.5q0 96 32 165t90.5 106.5t137.5 37.5
q76 0 129 -35t81 -102.5t28 -163.5q0 -11 -0.5 -22.5t-1.5 -21.5h-424v85zM241 701q-31 0 -49.5 18t-18.5 49q0 32 18.5 50t49.5 18q32 0 50 -18t18 -50q0 -31 -17.5 -49t-50.5 -18zM475 701q-32 0 -50 18t-18 49q0 32 18 50t50 18t50 -18t18 -50q0 -31 -18 -49t-50 -18z
" />
    <glyph glyph-name="igrave" unicode="&#xec;" 
d="M151 598h278v-508h182v-90h-460v90h182v418h-182v90zM417 686h-86l-129 154h112z" />
    <glyph glyph-name="iacute" unicode="&#xed;" 
d="M151 598h278v-508h182v-90h-460v90h182v418h-182v90zM331 686l102 154h113l-129 -154h-86z" />
    <glyph glyph-name="icircumflex" unicode="&#xee;" 
d="M151 598h278v-508h182v-90h-460v90h182v418h-182v90zM219 686l98 154h112l98 -154h-84l-97 123h54l-97 -123h-84z" />
    <glyph glyph-name="idieresis" unicode="&#xef;" 
d="M151 598h278v-508h182v-90h-460v90h182v418h-182v90zM256 701q-31 0 -49.5 18t-18.5 49q0 32 18.5 50t49.5 18q32 0 50 -18t18 -50q0 -31 -17.5 -49t-50.5 -18zM490 701q-32 0 -50 18t-18 49q0 32 18 50t50 18t50 -18t18 -50q0 -31 -18 -49t-50 -18z" />
    <glyph glyph-name="eth" unicode="&#xf0;" 
d="M343 -15q-79 0 -137.5 38.5t-90 109t-31.5 166.5q0 94 33 162.5t91.5 106.5t134.5 38q26 0 50 -6.5t41 -18.5l11 9q-34 56 -95 117t-131 108l75 53q73 -53 132 -118.5t101.5 -138t65.5 -147.5t23 -148q0 -104 -33 -178t-94 -113.5t-146 -39.5zM180 299q0 -106 45 -165
t125 -59q81 0 125.5 59t44.5 165t-44.5 165t-125.5 59q-53 0 -91.5 -26.5t-58.5 -76.5t-20 -121zM171 702l352 109l19 -66l-352 -110z" />
    <glyph glyph-name="ntilde" unicode="&#xf1;" 
d="M120 0v598h96v-48h28q23 30 60 46.5t81 16.5q64 0 110 -28t71.5 -78.5t25.5 -119.5v-387h-96v361q0 78 -36 119t-104 41t-104 -41t-36 -119v-361h-96zM183 694q6 72 30 103t73 31q35 0 57 -12t37.5 -24.5t33.5 -12.5q14 0 21 12.5t11 40.5h71q-6 -71 -30 -102.5
t-73 -31.5q-35 0 -56.5 12.5t-37.5 24.5t-34 12q-13 0 -20.5 -12t-11.5 -41h-71z" />
    <glyph glyph-name="ograve" unicode="&#xf2;" 
d="M350 -15q-81 0 -141 38t-92.5 108.5t-32.5 167.5t32.5 167t92.5 108.5t141 38.5q82 0 141.5 -38.5t92 -108.5t32.5 -167t-32.5 -167.5t-92 -108.5t-141.5 -38zM350 75q81 0 125.5 59t44.5 165t-44.5 165t-125.5 59q-80 0 -125 -59t-45 -165t45 -165t125 -59zM421 686h-86
l-129 154h113z" />
    <glyph glyph-name="oacute" unicode="&#xf3;" 
d="M350 -15q-81 0 -141 38t-92.5 108.5t-32.5 167.5t32.5 167t92.5 108.5t141 38.5q82 0 141.5 -38.5t92 -108.5t32.5 -167t-32.5 -167.5t-92 -108.5t-141.5 -38zM350 75q81 0 125.5 59t44.5 165t-44.5 165t-125.5 59q-80 0 -125 -59t-45 -165t45 -165t125 -59zM279 686
l102 154h113l-129 -154h-86z" />
    <glyph glyph-name="ocircumflex" unicode="&#xf4;" 
d="M350 -15q-81 0 -141 38t-92.5 108.5t-32.5 167.5t32.5 167t92.5 108.5t141 38.5q82 0 141.5 -38.5t92 -108.5t32.5 -167t-32.5 -167.5t-92 -108.5t-141.5 -38zM350 75q81 0 125.5 59t44.5 165t-44.5 165t-125.5 59q-80 0 -125 -59t-45 -165t45 -165t125 -59zM196 686
l98 154h112l98 -154h-84l-97 123h54l-97 -123h-84z" />
    <glyph glyph-name="otilde" unicode="&#xf5;" 
d="M350 -15q-81 0 -141 38t-92.5 108.5t-32.5 167.5t32.5 167t92.5 108.5t141 38.5q82 0 141.5 -38.5t92 -108.5t32.5 -167t-32.5 -167.5t-92 -108.5t-141.5 -38zM350 75q81 0 125.5 59t44.5 165t-44.5 165t-125.5 59q-80 0 -125 -59t-45 -165t45 -165t125 -59zM183 694
q6 72 30 103t73 31q35 0 57 -12t37.5 -24.5t33.5 -12.5q14 0 21 12.5t11 40.5h71q-6 -71 -30 -102.5t-73 -31.5q-35 0 -56.5 12.5t-37.5 24.5t-34 12q-13 0 -20.5 -12t-11.5 -41h-71z" />
    <glyph glyph-name="odieresis" unicode="&#xf6;" 
d="M350 -15q-81 0 -141 38t-92.5 108.5t-32.5 167.5t32.5 167t92.5 108.5t141 38.5q82 0 141.5 -38.5t92 -108.5t32.5 -167t-32.5 -167.5t-92 -108.5t-141.5 -38zM350 75q81 0 125.5 59t44.5 165t-44.5 165t-125.5 59q-80 0 -125 -59t-45 -165t45 -165t125 -59zM233 701
q-31 0 -49.5 18t-18.5 49q0 32 18.5 50t49.5 18q32 0 50 -18t18 -50q0 -31 -17.5 -49t-50.5 -18zM467 701q-32 0 -50 18t-18 49q0 32 18 50t50 18t50 -18t18 -50q0 -31 -18 -49t-50 -18z" />
    <glyph glyph-name="divide" unicode="&#xf7;" 
d="M73 306v88h554v-88h-554zM350 470q-35 0 -55 20t-20 56q0 35 20 54.5t55 19.5t55 -19.5t20 -55.5q0 -35 -20 -55t-55 -20zM350 79q-35 0 -55 20t-20 56q0 35 20 54.5t55 19.5t55 -19.5t20 -55.5q0 -35 -20 -55t-55 -20z" />
    <glyph glyph-name="oslash" unicode="&#xf8;" 
d="M522 613h94l-438 -628h-94zM350 -15q-81 0 -141 38t-92.5 108.5t-32.5 167.5t32.5 167t92.5 108.5t141 38.5q82 0 141.5 -38.5t92 -108.5t32.5 -167t-32.5 -167.5t-92 -108.5t-141.5 -38zM350 75q81 0 125.5 59t44.5 165t-44.5 165t-125.5 59q-80 0 -125 -59t-45 -165
t45 -165t125 -59z" />
    <glyph glyph-name="ugrave" unicode="&#xf9;" 
d="M580 598v-598h-96v48h-28q-23 -30 -60 -46.5t-81 -16.5q-63 0 -109.5 27.5t-72 78.5t-25.5 120v387h96v-362q0 -77 36 -118.5t104 -41.5t104 41.5t36 118.5v362h96zM421 686h-86l-129 154h113z" />
    <glyph glyph-name="uacute" unicode="&#xfa;" 
d="M580 598v-598h-96v48h-28q-23 -30 -60 -46.5t-81 -16.5q-63 0 -109.5 27.5t-72 78.5t-25.5 120v387h96v-362q0 -77 36 -118.5t104 -41.5t104 41.5t36 118.5v362h96zM279 686l102 154h113l-129 -154h-86z" />
    <glyph glyph-name="ucircumflex" unicode="&#xfb;" 
d="M580 598v-598h-96v48h-28q-23 -30 -60 -46.5t-81 -16.5q-63 0 -109.5 27.5t-72 78.5t-25.5 120v387h96v-362q0 -77 36 -118.5t104 -41.5t104 41.5t36 118.5v362h96zM196 686l98 154h112l98 -154h-84l-97 123h54l-97 -123h-84z" />
    <glyph glyph-name="udieresis" unicode="&#xfc;" 
d="M580 598v-598h-96v48h-28q-23 -30 -60 -46.5t-81 -16.5q-63 0 -109.5 27.5t-72 78.5t-25.5 120v387h96v-362q0 -77 36 -118.5t104 -41.5t104 41.5t36 118.5v362h96zM233 701q-31 0 -49.5 18t-18.5 49q0 32 18.5 50t49.5 18q32 0 50 -18t18 -50q0 -31 -17.5 -49t-50.5 -18
zM467 701q-32 0 -50 18t-18 49q0 32 18 50t50 18t50 -18t18 -50q0 -31 -18 -49t-50 -18z" />
    <glyph glyph-name="yacute" unicode="&#xfd;" 
d="M75 598h103l163 -460h65l-26 -88h-110zM628 598l-229 -690q-20 -59 -58 -91t-87 -32q-72 0 -112 39.5t-46 116.5h88q11 -36 26 -52.5t40 -16.5q23 0 37.5 15t26.5 48l218 663h96zM284 686l102 154h113l-129 -154h-86z" />
    <glyph glyph-name="thorn" unicode="&#xfe;" 
d="M389 -15q-50 0 -91.5 20t-62.5 55h-28v-260h-96v1048h96v-311h28q21 36 62.5 56t91.5 20q74 0 129 -38.5t84.5 -108.5t29.5 -167t-29.5 -167.5t-84.5 -108.5t-129 -38zM203 299q0 -106 44 -165t123 -59t122.5 59t43.5 165t-43.5 165t-122.5 59t-123 -59t-44 -165z" />
    <glyph glyph-name="ydieresis" unicode="&#xff;" 
d="M75 598h103l163 -460h65l-26 -88h-110zM628 598l-229 -690q-20 -59 -58 -91t-87 -32q-72 0 -112 39.5t-46 116.5h88q11 -36 26 -52.5t40 -16.5q23 0 37.5 15t26.5 48l218 663h96zM238 701q-31 0 -49.5 18t-18.5 49q0 32 18.5 50t49.5 18q32 0 50 -18t18 -50
q0 -31 -17.5 -49t-50.5 -18zM472 701q-32 0 -50 18t-18 49q0 32 18 50t50 18t50 -18t18 -50q0 -31 -18 -49t-50 -18z" />
    <glyph glyph-name="Amacron" unicode="&#x100;" 
d="M59 0l210 800h162l210 -800h-104l-185 724h-9l-186 -724h-98zM182 282v94h336v-94h-336zM192 926v78h316v-78h-316z" />
    <glyph glyph-name="amacron" unicode="&#x101;" 
d="M492 369v-86l-187 -28q-46 -8 -69 -32.5t-23 -63.5q0 -38 27.5 -61.5t73.5 -23.5t84 22t60.5 59t22.5 83v154q0 62 -36.5 97t-101.5 35q-46 0 -81 -15.5t-57.5 -44.5t-29.5 -71h-92q5 68 39 117.5t91 76t133 26.5q109 0 168.5 -55.5t59.5 -158.5v-399h-93v58h-28
q-24 -35 -64.5 -54t-96.5 -19q-55 0 -95.5 21.5t-62.5 59.5t-22 89q0 74 46.5 121t133.5 61zM185 724v78h316v-78h-316z" />
    <glyph glyph-name="Abreve" unicode="&#x102;" 
d="M59 0l210 800h162l210 -800h-104l-185 724h-9l-186 -724h-98zM182 282v94h336v-94h-336zM270 1028q3 -38 23.5 -57t56.5 -19q37 0 57 19t23 57h86q-5 -71 -47 -107.5t-119 -36.5t-118.5 36.5t-47.5 107.5h86z" />
    <glyph glyph-name="abreve" unicode="&#x103;" 
d="M492 369v-86l-187 -28q-46 -8 -69 -32.5t-23 -63.5q0 -38 27.5 -61.5t73.5 -23.5t84 22t60.5 59t22.5 83v154q0 62 -36.5 97t-101.5 35q-46 0 -81 -15.5t-57.5 -44.5t-29.5 -71h-92q5 68 39 117.5t91 76t133 26.5q109 0 168.5 -55.5t59.5 -158.5v-399h-93v58h-28
q-24 -35 -64.5 -54t-96.5 -19q-55 0 -95.5 21.5t-62.5 59.5t-22 89q0 74 46.5 121t133.5 61zM263 826q3 -38 23.5 -57t56.5 -19q37 0 57 19t23 57h86q-5 -71 -47 -107.5t-119 -36.5t-118.5 36.5t-47.5 107.5h86z" />
    <glyph glyph-name="Aogonek" unicode="&#x104;" 
d="M59 0l210 800h162l210 -800h-104l-185 724h-9l-186 -724h-98zM182 282v94h336v-94h-336zM593 -215q-51 0 -80.5 25t-29.5 69q0 34 18.5 66t50.5 55l42 2l47 -2q-33 -20 -52 -46t-19 -53q0 -21 11.5 -33.5t31.5 -12.5q10 0 16 1.5t12 2.5v-68q-9 -3 -21 -4.5t-27 -1.5z
" />
    <glyph glyph-name="aogonek" unicode="&#x105;" 
d="M492 369v-86l-187 -28q-46 -8 -69 -32.5t-23 -63.5q0 -38 27.5 -61.5t73.5 -23.5t84 22t60.5 59t22.5 83v154q0 62 -36.5 97t-101.5 35q-46 0 -81 -15.5t-57.5 -44.5t-29.5 -71h-92q5 68 39 117.5t91 76t133 26.5q109 0 168.5 -55.5t59.5 -158.5v-399h-93v58h-28
q-24 -35 -64.5 -54t-96.5 -19q-55 0 -95.5 21.5t-62.5 59.5t-22 89q0 74 46.5 121t133.5 61zM526 -215q-51 0 -80.5 25t-29.5 69q0 34 18.5 66t50.5 55l42 2l47 -2q-33 -20 -52 -46t-19 -53q0 -21 11.5 -33.5t31.5 -12.5q10 0 16 1.5t12 2.5v-68q-9 -3 -21 -4.5t-27 -1.5z
" />
    <glyph glyph-name="Cacute" unicode="&#x106;" 
d="M366 -15q-139 0 -209 103.5t-70 311.5t72 311.5t217 103.5q78 0 134.5 -33.5t89 -98.5t38.5 -159h-92q-13 98 -56 148t-114 50q-97 0 -143 -78.5t-46 -243.5t43.5 -243.5t135.5 -78.5q69 0 110 46.5t53 136.5h92q-6 -89 -37.5 -150.5t-86.5 -93.5t-131 -32zM304 888
l102 154h113l-129 -154h-86z" />
    <glyph glyph-name="cacute" unicode="&#x107;" 
d="M363 -15q-81 0 -140 37.5t-91 107.5t-32 166q0 98 33 169t94 109.5t145 38.5q73 0 127 -30t85.5 -85t34.5 -130h-88q-12 74 -54 114.5t-108 40.5q-83 0 -128 -59.5t-45 -167.5q0 -106 43.5 -163.5t123.5 -57.5q60 0 100 36t55 101h88q-6 -70 -38 -121t-84.5 -78.5
t-120.5 -27.5zM299 686l102 154h113l-129 -154h-86z" />
    <glyph glyph-name="Cdotaccent" unicode="&#x10a;" 
d="M366 -15q-139 0 -209 103.5t-70 311.5t72 311.5t217 103.5q78 0 134.5 -33.5t89 -98.5t38.5 -159h-92q-13 98 -56 148t-114 50q-97 0 -143 -78.5t-46 -243.5t43.5 -243.5t135.5 -78.5q69 0 110 46.5t53 136.5h92q-6 -89 -37.5 -150.5t-86.5 -93.5t-131 -32zM375 893
q-35 0 -55 20t-20 56q0 35 20 54.5t55 19.5t55 -19.5t20 -55.5q0 -35 -20 -55t-55 -20z" />
    <glyph glyph-name="cdotaccent" unicode="&#x10b;" 
d="M363 -15q-81 0 -140 37.5t-91 107.5t-32 166q0 98 33 169t94 109.5t145 38.5q73 0 127 -30t85.5 -85t34.5 -130h-88q-12 74 -54 114.5t-108 40.5q-83 0 -128 -59.5t-45 -167.5q0 -106 43.5 -163.5t123.5 -57.5q60 0 100 36t55 101h88q-6 -70 -38 -121t-84.5 -78.5
t-120.5 -27.5zM370 691q-35 0 -55 20t-20 56q0 35 20 54.5t55 19.5t55 -19.5t20 -55.5q0 -35 -20 -55t-55 -20z" />
    <glyph glyph-name="Ccaron" unicode="&#x10c;" 
d="M366 -15q-139 0 -209 103.5t-70 311.5t72 311.5t217 103.5q78 0 134.5 -33.5t89 -98.5t38.5 -159h-92q-13 98 -56 148t-114 50q-97 0 -143 -78.5t-46 -243.5t43.5 -243.5t135.5 -78.5q69 0 110 46.5t53 136.5h92q-6 -89 -37.5 -150.5t-86.5 -93.5t-131 -32zM529 1042
l-98 -154h-112l-98 154h84l97 -123h-54l97 123h84z" />
    <glyph glyph-name="ccaron" unicode="&#x10d;" 
d="M363 -15q-81 0 -140 37.5t-91 107.5t-32 166q0 98 33 169t94 109.5t145 38.5q73 0 127 -30t85.5 -85t34.5 -130h-88q-12 74 -54 114.5t-108 40.5q-83 0 -128 -59.5t-45 -167.5q0 -106 43.5 -163.5t123.5 -57.5q60 0 100 36t55 101h88q-6 -70 -38 -121t-84.5 -78.5
t-120.5 -27.5zM525 840l-98 -154h-113l-98 154h84l97 -123h-53l96 123h85z" />
    <glyph glyph-name="Dcaron" unicode="&#x10e;" 
d="M100 0v800h215q159 0 239.5 -100.5t80.5 -299.5q0 -198 -80.5 -299t-239.5 -101h-215zM200 93h115q110 0 165.5 76.5t55.5 230.5q0 155 -55.5 231t-165.5 76h-115v-614zM487 1042l-98 -154h-113l-98 154h85l96 -123h-53l97 123h84z" />
    <glyph glyph-name="dcaron" unicode="&#x10f;" 
d="M293 -15q-74 0 -126.5 37t-80.5 107t-28 170q0 99 28 169.5t80.5 107.5t126.5 37q51 0 88.5 -19.5t57.5 -56.5h28v311h96v-848h-96v60h-28q-20 -36 -57.5 -55.5t-88.5 -19.5zM471 299q0 109 -41 166.5t-118 57.5q-76 0 -117 -57.5t-41 -166.5t41 -166.5t117 -57.5
q77 0 118 57.5t41 166.5zM633 648l37 200h96l-55 -200h-78z" />
    <glyph glyph-name="Dcroat" unicode="&#x110;" 
d="M41 354v92h275v-92h-275zM100 0v800h215q159 0 239.5 -100.5t80.5 -299.5q0 -198 -80.5 -299t-239.5 -101h-215zM200 93h115q110 0 165.5 76.5t55.5 230.5q0 155 -55.5 231t-165.5 76h-115v-614z" />
    <glyph glyph-name="dcroat" unicode="&#x111;" 
d="M336 683v79h340v-79h-340zM311 -15q-74 0 -128.5 38t-84.5 108.5t-30 167.5t30 167t84.5 108.5t128.5 38.5q51 0 92 -20t62 -56h28v311h96v-848h-96v60h-28q-21 -35 -62 -55t-92 -20zM330 75q79 0 123 59t44 165t-44 165t-123 59t-122.5 -59t-43.5 -165t43.5 -165
t122.5 -59z" />
    <glyph glyph-name="Emacron" unicode="&#x112;" 
d="M149 0v800h460v-93h-361v-260h311v-88h-311v-266h351v-93h-450zM228 926v78h316v-78h-316z" />
    <glyph glyph-name="emacron" unicode="&#x113;" 
d="M173 353h370l-33 -42q0 104 -38 159.5t-111 55.5q-79 0 -122.5 -58.5t-43.5 -163.5q0 -113 44 -172.5t126 -59.5q55 0 95 28.5t65 83.5h90q-15 -62 -50 -107t-85.5 -68.5t-114.5 -23.5q-83 0 -142 37.5t-90.5 109t-31.5 172.5q0 96 32 165t90.5 106.5t137.5 37.5
q76 0 129 -35t81 -102.5t28 -163.5q0 -11 -0.5 -22.5t-1.5 -21.5h-424v85zM200 724v78h316v-78h-316z" />
    <glyph glyph-name="Edotaccent" unicode="&#x116;" 
d="M149 0v800h460v-93h-361v-260h311v-88h-311v-266h351v-93h-450zM386 893q-35 0 -55 20t-20 56q0 35 20 54.5t55 19.5t55 -19.5t20 -55.5q0 -35 -20 -55t-55 -20z" />
    <glyph glyph-name="edotaccent" unicode="&#x117;" 
d="M173 353h370l-33 -42q0 104 -38 159.5t-111 55.5q-79 0 -122.5 -58.5t-43.5 -163.5q0 -113 44 -172.5t126 -59.5q55 0 95 28.5t65 83.5h90q-15 -62 -50 -107t-85.5 -68.5t-114.5 -23.5q-83 0 -142 37.5t-90.5 109t-31.5 172.5q0 96 32 165t90.5 106.5t137.5 37.5
q76 0 129 -35t81 -102.5t28 -163.5q0 -11 -0.5 -22.5t-1.5 -21.5h-424v85zM358 691q-35 0 -55 20t-20 56q0 35 20 54.5t55 19.5t55 -19.5t20 -55.5q0 -35 -20 -55t-55 -20z" />
    <glyph glyph-name="Eogonek" unicode="&#x118;" 
d="M149 0v800h460v-93h-361v-260h311v-88h-311v-266h351v-93h-450zM541 -215q-51 0 -80.5 25t-29.5 69q0 34 18.5 66t50.5 55l42 2l47 -2q-33 -20 -52 -46t-19 -53q0 -21 11.5 -33.5t31.5 -12.5q10 0 16 1.5t12 2.5v-68q-9 -3 -21 -4.5t-27 -1.5z" />
    <glyph glyph-name="eogonek" unicode="&#x119;" 
d="M173 353h370l-33 -42q0 104 -38 159.5t-111 55.5q-79 0 -122.5 -58.5t-43.5 -163.5q0 -113 44 -172.5t126 -59.5q55 0 95 28.5t65 83.5h90q-15 -62 -50 -107t-85.5 -68.5t-114.5 -23.5q-83 0 -142 37.5t-90.5 109t-31.5 172.5q0 96 32 165t90.5 106.5t137.5 37.5
q76 0 129 -35t81 -102.5t28 -163.5q0 -11 -0.5 -22.5t-1.5 -21.5h-424v85zM505 -215q-52 0 -82 25.5t-30 70.5q0 34 22.5 74t60.5 75l139 154q-6 -32 -26 -71t-50 -76q-27 -33 -43 -65t-16 -62q0 -26 13 -40.5t35 -14.5q7 0 13.5 1.5t11.5 2.5v-68q-10 -3 -21 -4.5t-27 -1.5
z" />
    <glyph glyph-name="Ecaron" unicode="&#x11a;" 
d="M149 0v800h460v-93h-361v-260h311v-88h-311v-266h351v-93h-450zM540 1042l-97 -154h-113l-98 154h84l97 -123h-54l97 123h84z" />
    <glyph glyph-name="ecaron" unicode="&#x11b;" 
d="M173 353h370l-33 -42q0 104 -38 159.5t-111 55.5q-79 0 -122.5 -58.5t-43.5 -163.5q0 -113 44 -172.5t126 -59.5q55 0 95 28.5t65 83.5h90q-15 -62 -50 -107t-85.5 -68.5t-114.5 -23.5q-83 0 -142 37.5t-90.5 109t-31.5 172.5q0 96 32 165t90.5 106.5t137.5 37.5
q76 0 129 -35t81 -102.5t28 -163.5q0 -11 -0.5 -22.5t-1.5 -21.5h-424v85zM512 840l-97 -154h-113l-98 154h84l97 -123h-54l97 123h84z" />
    <glyph glyph-name="Gbreve" unicode="&#x11e;" 
d="M338 -14q-124 0 -192.5 105t-68.5 309q0 207 73 311t216 104q78 0 133.5 -31.5t88 -92t39.5 -147.5h-93q-14 87 -55.5 132.5t-112.5 45.5q-96 0 -142.5 -78.5t-46.5 -243.5q0 -167 45.5 -247t140.5 -80q47 0 83.5 30t58 81.5t21.5 116.5h-179v93h263v-394h-84v70h-28
q-19 -40 -60.5 -62t-99.5 -22zM288 1028q3 -38 23.5 -57t56.5 -19q37 0 57 19t23 57h86q-5 -71 -47 -107.5t-119 -36.5t-118.5 36.5t-47.5 107.5h86z" />
    <glyph glyph-name="gbreve" unicode="&#x11f;" 
d="M591 17q0 -72 -30.5 -124t-87.5 -80t-138 -28q-73 0 -129 22.5t-88 65t-36 100.5h92q14 -48 56.5 -74.5t104.5 -26.5q76 0 118 39.5t42 110.5v73h-28q-20 -31 -60 -49t-86 -18q-73 0 -126.5 35.5t-82.5 101t-29 154.5q0 91 29 156.5t82.5 101.5t126.5 36q47 0 86.5 -19
t59.5 -51h28v55h96v-581zM179 319q0 -97 42.5 -150.5t118.5 -53.5t118.5 53.5t42.5 150.5t-42.5 150.5t-118.5 53.5t-118.5 -53.5t-42.5 -150.5zM278 826q3 -38 23.5 -57t56.5 -19q37 0 57 19t23 57h86q-5 -71 -47 -107.5t-119 -36.5t-118.5 36.5t-47.5 107.5h86z" />
    <glyph glyph-name="Gdotaccent" unicode="&#x120;" 
d="M338 -14q-124 0 -192.5 105t-68.5 309q0 207 73 311t216 104q78 0 133.5 -31.5t88 -92t39.5 -147.5h-93q-14 87 -55.5 132.5t-112.5 45.5q-96 0 -142.5 -78.5t-46.5 -243.5q0 -167 45.5 -247t140.5 -80q47 0 83.5 30t58 81.5t21.5 116.5h-179v93h263v-394h-84v70h-28
q-19 -40 -60.5 -62t-99.5 -22zM368 893q-35 0 -55 20t-20 56q0 35 20 54.5t55 19.5t55 -19.5t20 -55.5q0 -35 -20 -55t-55 -20z" />
    <glyph glyph-name="gdotaccent" unicode="&#x121;" 
d="M591 17q0 -72 -30.5 -124t-87.5 -80t-138 -28q-73 0 -129 22.5t-88 65t-36 100.5h92q14 -48 56.5 -74.5t104.5 -26.5q76 0 118 39.5t42 110.5v73h-28q-20 -31 -60 -49t-86 -18q-73 0 -126.5 35.5t-82.5 101t-29 154.5q0 91 29 156.5t82.5 101.5t126.5 36q47 0 86.5 -19
t59.5 -51h28v55h96v-581zM179 319q0 -97 42.5 -150.5t118.5 -53.5t118.5 53.5t42.5 150.5t-42.5 150.5t-118.5 53.5t-118.5 -53.5t-42.5 -150.5zM358 691q-35 0 -55 20t-20 56q0 35 20 54.5t55 19.5t55 -19.5t20 -55.5q0 -35 -20 -55t-55 -20z" />
    <glyph glyph-name="uni0122" unicode="&#x122;" 
d="M338 -14q-124 0 -192.5 105t-68.5 309q0 207 73 311t216 104q78 0 133.5 -31.5t88 -92t39.5 -147.5h-93q-14 87 -55.5 132.5t-112.5 45.5q-96 0 -142.5 -78.5t-46.5 -243.5q0 -167 45.5 -247t140.5 -80q47 0 83.5 30t58 81.5t21.5 116.5h-179v93h263v-394h-84v70h-28
q-19 -40 -60.5 -62t-99.5 -22zM366 -166q-27 0 -43 14t-16 38t16 38t43 14t43 -14t16 -38t-16 -38t-43 -14zM301 -248q32 22 49.5 46.5t17.5 42.5l-2 97q31 0 47 -17.5t16 -50.5q0 -29 -10.5 -60t-29.5 -58h-88z" />
    <glyph glyph-name="uni0123" unicode="&#x123;" 
d="M591 17q0 -72 -30.5 -124t-87.5 -80t-138 -28q-73 0 -129 22.5t-88 65t-36 100.5h92q14 -48 56.5 -74.5t104.5 -26.5q76 0 118 39.5t42 110.5v73h-28q-20 -31 -60 -49t-86 -18q-73 0 -126.5 35.5t-82.5 101t-29 154.5q0 91 29 156.5t82.5 101.5t126.5 36q47 0 86.5 -19
t59.5 -51h28v55h96v-581zM179 319q0 -97 42.5 -150.5t118.5 -53.5t118.5 53.5t42.5 150.5t-42.5 150.5t-118.5 53.5t-118.5 -53.5t-42.5 -150.5zM357 766q27 0 43.5 -14t16.5 -38t-16.5 -38t-43.5 -14t-43 14t-16 38t16 38t43 14zM422 848q-32 -22 -49 -46.5t-17 -42.5
l1 -97q-30 0 -46.5 17.5t-16.5 50.5q0 29 10.5 60.5t29.5 57.5h88z" />
    <glyph glyph-name="Hbar" unicode="&#x126;" 
d="M108 0v800h100v-350h284v350h100v-800h-100v356h-284v-356h-100zM26 601v78h648v-78h-648z" />
    <glyph glyph-name="hbar" unicode="&#x127;" 
d="M33 683v79h340v-79h-340zM120 0v848h96v-298h28q23 30 60 46.5t81 16.5q64 0 110 -28t71.5 -78.5t25.5 -119.5v-387h-96v361q0 78 -36 119t-104 41t-104 -41t-36 -119v-361h-96z" />
    <glyph glyph-name="Itilde" unicode="&#x128;" 
d="M100 0v93h200v614h-200v93h500v-93h-200v-614h200v-93h-500zM183 896q6 72 30 103t73 31q35 0 57 -12t37.5 -24.5t33.5 -12.5q14 0 21 12.5t11 40.5h71q-6 -71 -30 -102.5t-73 -31.5q-35 0 -56.5 12.5t-37.5 24.5t-34 12q-13 0 -20.5 -12t-11.5 -41h-71z" />
    <glyph glyph-name="itilde" unicode="&#x129;" 
d="M151 598h278v-508h182v-90h-460v90h182v418h-182v90zM206 694q6 72 30 103t73 31q35 0 57 -12t37.5 -24.5t33.5 -12.5q14 0 21 12.5t11 40.5h71q-6 -71 -30 -102.5t-73 -31.5q-35 0 -56.5 12.5t-37.5 24.5t-34 12q-13 0 -20.5 -12t-11.5 -41h-71z" />
    <glyph glyph-name="Imacron" unicode="&#x12a;" 
d="M100 0v93h200v614h-200v93h500v-93h-200v-614h200v-93h-500zM192 926v78h316v-78h-316z" />
    <glyph glyph-name="imacron" unicode="&#x12b;" 
d="M151 598h278v-508h182v-90h-460v90h182v418h-182v90zM215 724v78h316v-78h-316z" />
    <glyph glyph-name="Iogonek" unicode="&#x12e;" 
d="M100 0v93h200v614h-200v93h500v-93h-200v-614h200v-93h-500zM543 -215q-51 0 -80.5 25t-29.5 69q0 34 18.5 66t50.5 55l42 2l47 -2q-33 -20 -52 -46t-19 -53q0 -21 11.5 -33.5t31.5 -12.5q10 0 16 1.5t12 2.5v-68q-9 -3 -21 -4.5t-27 -1.5z" />
    <glyph glyph-name="iogonek" unicode="&#x12f;" 
d="M151 598h278v-508h182v-90h-460v90h182v418h-182v90zM373 691q-35 0 -55 20t-20 56q0 35 20 54.5t55 19.5t55 -19.5t20 -55.5q0 -35 -20 -55t-55 -20zM553 -215q-51 0 -80.5 25t-29.5 69q0 34 18.5 66t50.5 55l42 2l47 -2q-33 -20 -52 -46t-19 -53q0 -21 11.5 -33.5
t31.5 -12.5q10 0 16 1.5t12 2.5v-68q-9 -3 -21 -4.5t-27 -1.5z" />
    <glyph glyph-name="Idotaccent" unicode="&#x130;" 
d="M100 0v93h200v614h-200v93h500v-93h-200v-614h200v-93h-500zM350 893q-35 0 -55 20t-20 56q0 35 20 54.5t55 19.5t55 -19.5t20 -55.5q0 -35 -20 -55t-55 -20z" />
    <glyph glyph-name="dotlessi" unicode="&#x131;" 
d="M151 598h278v-508h182v-90h-460v90h182v418h-182v90z" />
    <glyph glyph-name="IJ" unicode="&#x132;" 
d="M80 0v800h100v-800h-100zM369 -15h-52v93h52q71 0 111 43t40 118v561h100v-569q0 -76 -30 -131.5t-86.5 -85t-134.5 -29.5z" />
    <glyph glyph-name="ij" unicode="&#x133;" 
d="M211 598v-598h-96v598h96zM163 687q-35 0 -54 20.5t-19 58.5t19 58.5t54 20.5q34 0 53.5 -20.5t19.5 -58.5t-19.5 -58.5t-53.5 -20.5zM585 598v-617q0 -94 -50.5 -145t-143.5 -51h-77v88h77q47 0 72.5 29.5t25.5 83.5v612h96zM537 687q-34 0 -53.5 20.5t-19.5 58.5
t19.5 58.5t53.5 20.5q35 0 54 -20.5t19 -58.5t-19 -58.5t-54 -20.5z" />
    <glyph glyph-name="uni0136" unicode="&#x136;" 
d="M147 800h99v-800h-99v800zM507 0l-290 387l306 413h116l-304 -409l294 -391h-122zM365 -166q-27 0 -43 14t-16 38t16 38t43 14t43 -14t16 -38t-16 -38t-43 -14zM300 -248q32 22 49.5 46.5t17.5 42.5l-2 97q31 0 47 -17.5t16 -50.5q0 -29 -10.5 -60t-29.5 -58h-88z" />
    <glyph glyph-name="uni0137" unicode="&#x137;" 
d="M506 0l-269 292l278 306h122l-276 -303l273 -295h-128zM171 0v848h96v-848h-96zM380 -166q-27 0 -43 14t-16 38t16 38t43 14t43 -14t16 -38t-16 -38t-43 -14zM315 -248q32 22 49.5 46.5t17.5 42.5l-2 97q31 0 47 -17.5t16 -50.5q0 -29 -10.5 -60t-29.5 -58h-88z" />
    <glyph glyph-name="kgreenlandic" unicode="&#x138;" 
d="M493 0l-269 292l278 306h122l-276 -303l273 -295h-128zM157 0v598h96v-598h-96z" />
    <glyph glyph-name="Lacute" unicode="&#x139;" 
d="M184 0v800h100v-707h348v-93h-448zM194 888l102 154h113l-129 -154h-86z" />
    <glyph glyph-name="lacute" unicode="&#x13a;" 
d="M136 848h278v-758h182v-90h-460v90h182v668h-182v90zM325 936l102 154h113l-129 -154h-86z" />
    <glyph glyph-name="uni013B" unicode="&#x13b;" 
d="M184 0v800h100v-707h348v-93h-448zM406 -166q-27 0 -43 14t-16 38t16 38t43 14t43 -14t16 -38t-16 -38t-43 -14zM341 -248q32 22 49.5 46.5t17.5 42.5l-2 97q31 0 47 -17.5t16 -50.5q0 -29 -10.5 -60t-29.5 -58h-88z" />
    <glyph glyph-name="uni013C" unicode="&#x13c;" 
d="M136 848h278v-758h182v-90h-460v90h182v668h-182v90zM364 -166q-27 0 -43 14t-16 38t16 38t43 14t43 -14t16 -38t-16 -38t-43 -14zM299 -248q32 22 49.5 46.5t17.5 42.5l-2 97q31 0 47 -17.5t16 -50.5q0 -29 -10.5 -60t-29.5 -58h-88z" />
    <glyph glyph-name="Lcaron" unicode="&#x13d;" 
d="M184 0v800h100v-707h348v-93h-448zM385 600l41 200h96l-59 -200h-78z" />
    <glyph glyph-name="lcaron" unicode="&#x13e;" 
d="M136 848h278v-758h182v-90h-460v90h182v668h-182v90zM484 648l41 200h96l-59 -200h-78z" />
    <glyph glyph-name="Ldot" unicode="&#x13f;" horiz-adv-x="750" 
d="M184 0v800h100v-707h348v-93h-448zM489 306q-39 0 -61 22.5t-22 63.5t22 63.5t61 22.5q40 0 61.5 -22.5t21.5 -63.5t-22 -63.5t-61 -22.5z" />
    <glyph glyph-name="ldot" unicode="&#x140;" horiz-adv-x="750" 
d="M86 848h278v-758h182v-90h-460v90h182v668h-182v90zM559 330q-39 0 -61 22.5t-22 63.5t22 63.5t61 22.5q40 0 61.5 -22.5t21.5 -63.5t-22 -63.5t-61 -22.5z" />
    <glyph glyph-name="Lslash" unicode="&#x141;" 
d="M88 248v96l362 200v-97zM184 0v800h100v-707h348v-93h-448z" />
    <glyph glyph-name="lslash" unicode="&#x142;" 
d="M163 303v91l380 209v-91zM136 848h278v-758h182v-90h-460v90h182v668h-182v90z" />
    <glyph glyph-name="Nacute" unicode="&#x143;" 
d="M93 0v800h170l245 -735h11l-3 204v531h91v-800h-170l-245 735h-11l3 -203v-532h-91zM279 888l102 154h113l-129 -154h-86z" />
    <glyph glyph-name="nacute" unicode="&#x144;" 
d="M120 0v598h96v-48h28q23 30 60 46.5t81 16.5q64 0 110 -28t71.5 -78.5t25.5 -119.5v-387h-96v361q0 78 -36 119t-104 41t-104 -41t-36 -119v-361h-96zM279 686l102 154h113l-129 -154h-86z" />
    <glyph glyph-name="uni0145" unicode="&#x145;" 
d="M93 0v800h170l245 -735h11l-3 204v531h91v-800h-170l-245 735h-11l3 -203v-532h-91zM348 -166q-27 0 -43 14t-16 38t16 38t43 14t43 -14t16 -38t-16 -38t-43 -14zM283 -248q32 22 49.5 46.5t17.5 42.5l-2 97q31 0 47 -17.5t16 -50.5q0 -29 -10.5 -60t-29.5 -58h-88z" />
    <glyph glyph-name="uni0146" unicode="&#x146;" 
d="M120 0v598h96v-48h28q23 30 60 46.5t81 16.5q64 0 110 -28t71.5 -78.5t25.5 -119.5v-387h-96v361q0 78 -36 119t-104 41t-104 -41t-36 -119v-361h-96zM348 -166q-27 0 -43 14t-16 38t16 38t43 14t43 -14t16 -38t-16 -38t-43 -14zM283 -248q32 22 49.5 46.5t17.5 42.5
l-2 97q31 0 47 -17.5t16 -50.5q0 -29 -10.5 -60t-29.5 -58h-88z" />
    <glyph glyph-name="Ncaron" unicode="&#x147;" 
d="M93 0v800h170l245 -735h11l-3 204v531h91v-800h-170l-245 735h-11l3 -203v-532h-91zM504 1042l-98 -154h-112l-98 154h84l97 -123h-54l97 123h84z" />
    <glyph glyph-name="ncaron" unicode="&#x148;" 
d="M120 0v598h96v-48h28q23 30 60 46.5t81 16.5q64 0 110 -28t71.5 -78.5t25.5 -119.5v-387h-96v361q0 78 -36 119t-104 41t-104 -41t-36 -119v-361h-96zM504 840l-98 -154h-112l-98 154h84l97 -123h-54l97 123h84z" />
    <glyph glyph-name="Eng" unicode="&#x14a;" 
d="M410 -233v82h17q44 0 66.5 27.5t22.5 82.5v41l45 20l46 -20v-36q0 -98 -44.5 -147.5t-133.5 -49.5h-19zM93 0v800h170l245 -735h11l-3 204v531h91v-800h-170l-245 735h-11l3 -203v-532h-91z" />
    <glyph glyph-name="eng" unicode="&#x14b;" 
d="M400 -210v82h15q81 0 81 98v30l48 20l48 -20v-24q0 -93 -44 -139.5t-132 -46.5h-16zM120 0v598h96v-48h28q23 30 60 46.5t81 16.5q64 0 110 -28t71.5 -78.5t25.5 -119.5v-387h-96v361q0 78 -36 119t-104 41t-104 -41t-36 -119v-361h-96z" />
    <glyph glyph-name="Omacron" unicode="&#x14c;" 
d="M350 -15q-142 0 -213.5 103.5t-71.5 311.5t71 311.5t214 103.5q142 0 213.5 -103.5t71.5 -311.5t-71 -311.5t-214 -103.5zM350 78q95 0 140.5 78.5t45.5 243.5t-45.5 243.5t-140.5 78.5t-140.5 -78.5t-45.5 -243.5t45.5 -243.5t140.5 -78.5zM192 926v78h316v-78h-316z
" />
    <glyph glyph-name="omacron" unicode="&#x14d;" 
d="M350 -15q-81 0 -141 38t-92.5 108.5t-32.5 167.5t32.5 167t92.5 108.5t141 38.5q82 0 141.5 -38.5t92 -108.5t32.5 -167t-32.5 -167.5t-92 -108.5t-141.5 -38zM350 75q81 0 125.5 59t44.5 165t-44.5 165t-125.5 59q-80 0 -125 -59t-45 -165t45 -165t125 -59zM192 724v78
h316v-78h-316z" />
    <glyph glyph-name="Ohungarumlaut" unicode="&#x150;" 
d="M350 -15q-142 0 -213.5 103.5t-71.5 311.5t71 311.5t214 103.5q142 0 213.5 -103.5t71.5 -311.5t-71 -311.5t-214 -103.5zM350 78q95 0 140.5 78.5t45.5 243.5t-45.5 243.5t-140.5 78.5t-140.5 -78.5t-45.5 -243.5t45.5 -243.5t140.5 -78.5zM188 888l90 154h109
l-116 -154h-83zM377 888l117 154h115l-142 -154h-90z" />
    <glyph glyph-name="ohungarumlaut" unicode="&#x151;" 
d="M350 -15q-81 0 -141 38t-92.5 108.5t-32.5 167.5t32.5 167t92.5 108.5t141 38.5q82 0 141.5 -38.5t92 -108.5t32.5 -167t-32.5 -167.5t-92 -108.5t-141.5 -38zM350 75q81 0 125.5 59t44.5 165t-44.5 165t-125.5 59q-80 0 -125 -59t-45 -165t45 -165t125 -59zM188 686
l90 154h109l-116 -154h-83zM377 686l117 154h115l-142 -154h-90z" />
    <glyph glyph-name="OE" unicode="&#x152;" 
d="M235 -15q-52 0 -89 22.5t-60 72t-34.5 128.5t-11.5 192t11.5 192t34.5 128.5t60 72t89 22.5q46 0 78 -18t50 -54h18v57h309v-93h-210v-260h173v-88h-173v-266h200v-93h-299v57h-18q-18 -36 -50 -54t-78 -18zM262 78q34 0 57.5 16t37.5 53.5t20.5 99.5t6.5 153
q0 92 -6.5 153.5t-20.5 99t-37.5 53.5t-57.5 16q-35 0 -58.5 -16t-37.5 -53.5t-20 -99t-6 -153.5q0 -91 6 -153t20 -99.5t37.5 -53.5t58.5 -16z" />
    <glyph glyph-name="oe" unicode="&#x153;" 
d="M227 -15q-61 0 -101 33.5t-59 103t-19 177.5t19 177.5t59 103t101 33.5q62 0 101.5 -33.5t58.5 -103t19 -177.5t-19 -177.5t-58.5 -103t-101.5 -33.5zM233 75q31 0 50.5 23.5t29 73t9.5 127.5t-9.5 127.5t-29 73t-50.5 23.5t-50.5 -23.5t-29 -72.5t-9.5 -128
q0 -78 9.5 -127.5t29 -73t50.5 -23.5zM504 -15q-58 0 -96.5 34t-56.5 104.5t-18 180.5q0 107 17.5 175t55.5 101t96 33q55 0 89.5 -30.5t50.5 -96.5t16 -174q0 -11 -0.5 -22.5t-1.5 -21.5h-268v85h214l-32 -42q0 78 -7 125t-22.5 68.5t-41.5 21.5q-29 0 -47.5 -23t-27.5 -72
t-9 -127q0 -81 9.5 -132t29 -75.5t49.5 -24.5q29 0 49.5 27.5t30.5 84.5h88q-11 -99 -53 -149t-114 -50z" />
    <glyph glyph-name="Racute" unicode="&#x154;" 
d="M121 0v800h261q77 0 133.5 -27.5t88 -79t31.5 -122.5q0 -67 -31.5 -117t-88.5 -78t-133 -28h-161v-348h-100zM539 0l-220 366h107l226 -366h-113zM221 434h164q69 0 109.5 37t40.5 99q0 63 -40.5 100t-109.5 37h-164v-273zM279 888l102 154h113l-129 -154h-86z" />
    <glyph glyph-name="racute" unicode="&#x155;" 
d="M97 598h226v-46h28q19 29 50.5 45t72.5 16q73 0 114.5 -49t41.5 -136v-88h-100v73q0 109 -89 109q-57 0 -85 -48.5t-28 -144.5v-239h193v-90h-404v90h115v418h-135v90zM301 686l102 154h113l-129 -154h-86z" />
    <glyph glyph-name="uni0156" unicode="&#x156;" 
d="M121 0v800h261q77 0 133.5 -27.5t88 -79t31.5 -122.5q0 -67 -31.5 -117t-88.5 -78t-133 -28h-161v-348h-100zM539 0l-220 366h107l226 -366h-113zM221 434h164q69 0 109.5 37t40.5 99q0 63 -40.5 100t-109.5 37h-164v-273zM367 -166q-27 0 -43 14t-16 38t16 38t43 14
t43 -14t16 -38t-16 -38t-43 -14zM302 -248q32 22 49.5 46.5t17.5 42.5l-2 97q31 0 47 -17.5t16 -50.5q0 -29 -10.5 -60t-29.5 -58h-88z" />
    <glyph glyph-name="uni0157" unicode="&#x157;" 
d="M97 598h226v-46h28q19 29 50.5 45t72.5 16q73 0 114.5 -49t41.5 -136v-88h-100v73q0 109 -89 109q-57 0 -85 -48.5t-28 -144.5v-239h193v-90h-404v90h115v418h-135v90zM278 -166q-27 0 -43 14t-16 38t16 38t43 14t43 -14t16 -38t-16 -38t-43 -14zM213 -248
q32 22 49.5 46.5t17.5 42.5l-2 97q31 0 47 -17.5t16 -50.5q0 -29 -10.5 -60t-29.5 -58h-88z" />
    <glyph glyph-name="Rcaron" unicode="&#x158;" 
d="M121 0v800h261q77 0 133.5 -27.5t88 -79t31.5 -122.5q0 -67 -31.5 -117t-88.5 -78t-133 -28h-161v-348h-100zM539 0l-220 366h107l226 -366h-113zM221 434h164q69 0 109.5 37t40.5 99q0 63 -40.5 100t-109.5 37h-164v-273zM504 1042l-98 -154h-112l-98 154h84l97 -123
h-54l97 123h84z" />
    <glyph glyph-name="rcaron" unicode="&#x159;" 
d="M97 598h226v-46h28q19 29 50.5 45t72.5 16q73 0 114.5 -49t41.5 -136v-88h-100v73q0 109 -89 109q-57 0 -85 -48.5t-28 -144.5v-239h193v-90h-404v90h115v418h-135v90zM526 840l-98 -154h-112l-98 154h84l97 -123h-54l97 123h84z" />
    <glyph glyph-name="Sacute" unicode="&#x15a;" 
d="M188 204q14 -62 57.5 -94t113.5 -32q72 0 114 38t42 104q0 51 -31 82.5t-91 40.5l-86 12q-102 17 -154 73t-52 151q0 72 32.5 125t91.5 82t138 29t137.5 -28.5t92 -81.5t37.5 -129h-94q-14 71 -58 108.5t-115 37.5q-76 0 -120 -38t-44 -105q0 -51 31.5 -82.5t90.5 -41.5
l86 -12q102 -16 154 -72.5t52 -150.5q0 -72 -31.5 -124.5t-88.5 -81.5t-134 -29q-79 0 -137.5 26t-91.5 75t-38 118h96zM294 888l102 154h113l-129 -154h-86z" />
    <glyph glyph-name="sacute" unicode="&#x15b;" 
d="M204 182q13 -52 51.5 -79.5t100.5 -27.5q64 0 98 24t34 68q0 31 -27 51t-81 28l-75 11q-96 14 -141 56t-45 116q0 86 62.5 135t172.5 49q112 0 176.5 -55.5t69.5 -155.5h-88q-13 59 -53 90t-106 31q-67 0 -103 -24.5t-36 -68.5q0 -31 27 -50.5t82 -27.5l75 -11
q96 -15 140.5 -57t44.5 -116q0 -57 -27.5 -98t-78.5 -63t-122 -22q-109 0 -171.5 51.5t-68.5 145.5h89zM287 686l102 154h113l-129 -154h-86z" />
    <glyph glyph-name="Scedilla" unicode="&#x15e;" 
d="M188 204q14 -62 57.5 -94t113.5 -32q72 0 114 38t42 104q0 51 -31 82.5t-91 40.5l-86 12q-102 17 -154 73t-52 151q0 72 32.5 125t91.5 82t138 29t137.5 -28.5t92 -81.5t37.5 -129h-94q-14 71 -58 108.5t-115 37.5q-76 0 -120 -38t-44 -105q0 -51 31.5 -82.5t90.5 -41.5
l86 -12q102 -16 154 -72.5t52 -150.5q0 -72 -31.5 -124.5t-88.5 -81.5t-134 -29q-79 0 -137.5 26t-91.5 75t-38 118h96zM335 20h76l-17 -65q38 -7 58.5 -28t20.5 -53q0 -42 -33 -65.5t-92 -23.5q-54 0 -86.5 22.5t-35.5 64.5h73q5 -14 18 -22t32 -8t30 9t11 24
q0 16 -10.5 26t-31.5 11l-36 4z" />
    <glyph glyph-name="scedilla" unicode="&#x15f;" 
d="M204 182q13 -52 51.5 -79.5t100.5 -27.5q64 0 98 24t34 68q0 31 -27 51t-81 28l-75 11q-96 14 -141 56t-45 116q0 86 62.5 135t172.5 49q112 0 176.5 -55.5t69.5 -155.5h-88q-13 59 -53 90t-106 31q-67 0 -103 -24.5t-36 -68.5q0 -31 27 -50.5t82 -27.5l75 -11
q96 -15 140.5 -57t44.5 -116q0 -57 -27.5 -98t-78.5 -63t-122 -22q-109 0 -171.5 51.5t-68.5 145.5h89zM338 20h76l-17 -65q38 -7 58.5 -28t20.5 -53q0 -42 -33 -65.5t-92 -23.5q-54 0 -86.5 22.5t-35.5 64.5h73q5 -14 18 -22t32 -8t30 9t11 24q0 16 -10.5 26t-31.5 11
l-36 4z" />
    <glyph glyph-name="Scaron" unicode="&#x160;" 
d="M188 204q14 -62 57.5 -94t113.5 -32q72 0 114 38t42 104q0 51 -31 82.5t-91 40.5l-86 12q-102 17 -154 73t-52 151q0 72 32.5 125t91.5 82t138 29t137.5 -28.5t92 -81.5t37.5 -129h-94q-14 71 -58 108.5t-115 37.5q-76 0 -120 -38t-44 -105q0 -51 31.5 -82.5t90.5 -41.5
l86 -12q102 -16 154 -72.5t52 -150.5q0 -72 -31.5 -124.5t-88.5 -81.5t-134 -29q-79 0 -137.5 26t-91.5 75t-38 118h96zM519 1042l-98 -154h-112l-98 154h84l97 -123h-54l97 123h84z" />
    <glyph glyph-name="scaron" unicode="&#x161;" 
d="M204 182q13 -52 51.5 -79.5t100.5 -27.5q64 0 98 24t34 68q0 31 -27 51t-81 28l-75 11q-96 14 -141 56t-45 116q0 86 62.5 135t172.5 49q112 0 176.5 -55.5t69.5 -155.5h-88q-13 59 -53 90t-106 31q-67 0 -103 -24.5t-36 -68.5q0 -31 27 -50.5t82 -27.5l75 -11
q96 -15 140.5 -57t44.5 -116q0 -57 -27.5 -98t-78.5 -63t-122 -22q-109 0 -171.5 51.5t-68.5 145.5h89zM513 840l-98 -154h-113l-98 154h84l97 -123h-54l97 123h85z" />
    <glyph glyph-name="uni0162" unicode="&#x162;" 
d="M300 0v707h-237v93h574v-93h-237v-707h-100zM323 20h76l-17 -65q38 -7 58.5 -28t20.5 -53q0 -42 -33 -65.5t-92 -23.5q-54 0 -86.5 22.5t-35.5 64.5h73q5 -14 18 -22t32 -8t30 9t11 24q0 16 -10.5 26t-31.5 11l-36 4z" />
    <glyph glyph-name="uni0163" unicode="&#x163;" 
d="M315 750v-152h273v-90h-273v-315q0 -58 24 -88t70 -30q48 0 75 32.5t37 98.5h86q-5 -108 -57 -164.5t-145 -56.5q-89 0 -137.5 53.5t-48.5 151.5v318h-136v90h136v152h96zM392 20h76l-17 -65q38 -7 58.5 -28t20.5 -53q0 -42 -33 -65.5t-92 -23.5q-54 0 -86.5 22.5
t-35.5 64.5h73q5 -14 18 -22t32 -8t30 9t11 24q0 16 -10.5 26t-31.5 11l-36 4z" />
    <glyph glyph-name="Tcaron" unicode="&#x164;" 
d="M300 0v707h-237v93h574v-93h-237v-707h-100zM504 1042l-98 -154h-112l-98 154h84l97 -123h-54l97 123h84z" />
    <glyph glyph-name="tcaron" unicode="&#x165;" 
d="M315 750v-152h273v-90h-273v-315q0 -58 24 -88t70 -30q48 0 75 32.5t37 98.5h86q-5 -108 -57 -164.5t-145 -56.5q-89 0 -137.5 53.5t-48.5 151.5v318h-136v90h136v152h96zM383 648l41 200h96l-59 -200h-78z" />
    <glyph glyph-name="Tbar" unicode="&#x166;" 
d="M150 358v84h400v-84h-400zM300 0v707h-237v93h574v-93h-237v-707h-100z" />
    <glyph glyph-name="tbar" unicode="&#x167;" 
d="M315 750v-152h273v-90h-273v-315q0 -58 24 -88t70 -30q48 0 75 32.5t37 98.5h86q-5 -108 -57 -164.5t-145 -56.5q-89 0 -137.5 53.5t-48.5 151.5v318h-136v90h136v152h96zM83 337v80h483v-80h-483z" />
    <glyph glyph-name="Utilde" unicode="&#x168;" 
d="M91 800h100v-534q0 -89 42 -138.5t119 -49.5q76 0 118 49.5t42 138.5v534h97v-542q0 -132 -67 -202.5t-192 -70.5t-192 70.5t-67 202.5v542zM183 896q6 72 30 103t73 31q35 0 57 -12t37.5 -24.5t33.5 -12.5q14 0 21 12.5t11 40.5h71q-6 -71 -30 -102.5t-73 -31.5
q-35 0 -56.5 12.5t-37.5 24.5t-34 12q-13 0 -20.5 -12t-11.5 -41h-71z" />
    <glyph glyph-name="utilde" unicode="&#x169;" 
d="M580 598v-598h-96v48h-28q-23 -30 -60 -46.5t-81 -16.5q-63 0 -109.5 27.5t-72 78.5t-25.5 120v387h96v-362q0 -77 36 -118.5t104 -41.5t104 41.5t36 118.5v362h96zM183 694q6 72 30 103t73 31q35 0 57 -12t37.5 -24.5t33.5 -12.5q14 0 21 12.5t11 40.5h71
q-6 -71 -30 -102.5t-73 -31.5q-35 0 -56.5 12.5t-37.5 24.5t-34 12q-13 0 -20.5 -12t-11.5 -41h-71z" />
    <glyph glyph-name="Umacron" unicode="&#x16a;" 
d="M91 800h100v-534q0 -89 42 -138.5t119 -49.5q76 0 118 49.5t42 138.5v534h97v-542q0 -132 -67 -202.5t-192 -70.5t-192 70.5t-67 202.5v542zM192 926v78h316v-78h-316z" />
    <glyph glyph-name="umacron" unicode="&#x16b;" 
d="M580 598v-598h-96v48h-28q-23 -30 -60 -46.5t-81 -16.5q-63 0 -109.5 27.5t-72 78.5t-25.5 120v387h96v-362q0 -77 36 -118.5t104 -41.5t104 41.5t36 118.5v362h96zM192 724v78h316v-78h-316z" />
    <glyph glyph-name="Ubreve" unicode="&#x16c;" 
d="M91 800h100v-534q0 -89 42 -138.5t119 -49.5q76 0 118 49.5t42 138.5v534h97v-542q0 -132 -67 -202.5t-192 -70.5t-192 70.5t-67 202.5v542zM270 1028q3 -38 23.5 -57t56.5 -19q37 0 57 19t23 57h86q-5 -71 -47 -107.5t-119 -36.5t-118.5 36.5t-47.5 107.5h86z" />
    <glyph glyph-name="ubreve" unicode="&#x16d;" 
d="M580 598v-598h-96v48h-28q-23 -30 -60 -46.5t-81 -16.5q-63 0 -109.5 27.5t-72 78.5t-25.5 120v387h96v-362q0 -77 36 -118.5t104 -41.5t104 41.5t36 118.5v362h96zM270 826q3 -38 23.5 -57t56.5 -19q37 0 57 19t23 57h86q-5 -71 -47 -107.5t-119 -36.5t-118.5 36.5
t-47.5 107.5h86z" />
    <glyph glyph-name="Uring" unicode="&#x16e;" 
d="M91 800h100v-534q0 -89 42 -138.5t119 -49.5q76 0 118 49.5t42 138.5v534h97v-542q0 -132 -67 -202.5t-192 -70.5t-192 70.5t-67 202.5v542zM350 870q-50 0 -82 29t-32 76t32 76t82 29t82 -29t32 -76t-32 -76t-82 -29zM350 922q24 0 38.5 15t14.5 38q0 24 -14.5 38.5
t-38.5 14.5q-23 0 -38 -14.5t-15 -38.5q0 -23 15 -38t38 -15z" />
    <glyph glyph-name="uring" unicode="&#x16f;" 
d="M580 598v-598h-96v48h-28q-23 -30 -60 -46.5t-81 -16.5q-63 0 -109.5 27.5t-72 78.5t-25.5 120v387h96v-362q0 -77 36 -118.5t104 -41.5t104 41.5t36 118.5v362h96zM350 668q-50 0 -82 29t-32 76t32 76t82 29t82 -29t32 -76t-32 -76t-82 -29zM350 720q24 0 38.5 15
t14.5 38q0 24 -14.5 38.5t-38.5 14.5q-23 0 -38 -14.5t-15 -38.5q0 -23 15 -38t38 -15z" />
    <glyph glyph-name="Uhungarumlaut" unicode="&#x170;" 
d="M91 800h100v-534q0 -89 42 -138.5t119 -49.5q76 0 118 49.5t42 138.5v534h97v-542q0 -132 -67 -202.5t-192 -70.5t-192 70.5t-67 202.5v542zM188 888l90 154h109l-116 -154h-83zM377 888l117 154h115l-142 -154h-90z" />
    <glyph glyph-name="uhungarumlaut" unicode="&#x171;" 
d="M580 598v-598h-96v48h-28q-23 -30 -60 -46.5t-81 -16.5q-63 0 -109.5 27.5t-72 78.5t-25.5 120v387h96v-362q0 -77 36 -118.5t104 -41.5t104 41.5t36 118.5v362h96zM188 686l90 154h109l-116 -154h-83zM377 686l117 154h115l-142 -154h-90z" />
    <glyph glyph-name="Uogonek" unicode="&#x172;" 
d="M91 800h100v-534q0 -89 42 -138.5t119 -49.5q76 0 118 49.5t42 138.5v534h97v-542q0 -132 -67 -202.5t-192 -70.5t-192 70.5t-67 202.5v542zM404 -215q-51 0 -80.5 25t-29.5 69q0 34 18.5 66t50.5 55l42 2l47 -2q-33 -20 -52 -46t-19 -53q0 -21 11.5 -33.5t31.5 -12.5
q10 0 16 1.5t12 2.5v-68q-9 -3 -21 -4.5t-27 -1.5z" />
    <glyph glyph-name="uogonek" unicode="&#x173;" 
d="M580 598v-598h-96v48h-28q-23 -30 -60 -46.5t-81 -16.5q-63 0 -109.5 27.5t-72 78.5t-25.5 120v387h96v-362q0 -77 36 -118.5t104 -41.5t104 41.5t36 118.5v362h96zM532 -215q-51 0 -80.5 25t-29.5 69q0 34 18.5 66t50.5 55l42 2l47 -2q-33 -20 -52 -46t-19 -53
q0 -21 12 -33.5t31 -12.5q10 0 16 1.5t12 2.5v-68q-9 -3 -21 -4.5t-27 -1.5z" />
    <glyph glyph-name="Wcircumflex" unicode="&#x174;" 
d="M121 800l74 -568l12 -163h11l68 529h136l65 -529h11l13 163l75 568h86l-106 -800h-144l-65 539h-11l-69 -539h-143l-106 800h93zM196 888l98 154h112l98 -154h-84l-97 123h54l-97 -123h-84z" />
    <glyph glyph-name="wcircumflex" unicode="&#x175;" 
d="M146 0l-111 598h95l62 -356l20 -173h9l65 529h135l67 -529h9l18 173l64 356h86l-112 -598h-131l-67 531h-10l-64 -531h-135zM196 686l98 154h112l98 -154h-84l-97 123h54l-97 -123h-84z" />
    <glyph glyph-name="Ycircumflex" unicode="&#x176;" 
d="M157 800l182 -334l9 -30h9l9 30l184 334h101l-251 -454v-346h-100v346l-251 454h108zM196 888l98 154h112l98 -154h-84l-97 123h54l-97 -123h-84z" />
    <glyph glyph-name="ycircumflex" unicode="&#x177;" 
d="M75 598h103l163 -460h65l-26 -88h-110zM628 598l-229 -690q-20 -59 -58 -91t-87 -32q-72 0 -112 39.5t-46 116.5h88q11 -36 26 -52.5t40 -16.5q23 0 37.5 15t26.5 48l218 663h96zM201 686l98 154h112l98 -154h-84l-97 123h54l-97 -123h-84z" />
    <glyph glyph-name="Ydieresis" unicode="&#x178;" 
d="M157 800l182 -334l9 -30h9l9 30l184 334h101l-251 -454v-346h-100v346l-251 454h108zM233 903q-31 0 -49.5 18t-18.5 49q0 32 18.5 50t49.5 18q32 0 50 -18t18 -50q0 -31 -17.5 -49t-50.5 -18zM467 903q-32 0 -50 18t-18 49q0 32 18 50t50 18t50 -18t18 -50
q0 -31 -18 -49t-50 -18z" />
    <glyph glyph-name="Zacute" unicode="&#x179;" 
d="M108 0v168l417 529v10h-417v93h484v-168l-417 -529v-10h417v-93h-484zM279 888l102 154h113l-129 -154h-86z" />
    <glyph glyph-name="zacute" unicode="&#x17a;" 
d="M129 598h442v-168l-381 -331v-9h381v-90h-442v167l381 331v10h-381v90zM279 686l102 154h113l-129 -154h-86z" />
    <glyph glyph-name="Zdotaccent" unicode="&#x17b;" 
d="M108 0v168l417 529v10h-417v93h484v-168l-417 -529v-10h417v-93h-484zM350 893q-35 0 -55 20t-20 56q0 35 20 54.5t55 19.5t55 -19.5t20 -55.5q0 -35 -20 -55t-55 -20z" />
    <glyph glyph-name="zdotaccent" unicode="&#x17c;" 
d="M129 598h442v-168l-381 -331v-9h381v-90h-442v167l381 331v10h-381v90zM350 691q-35 0 -55 20t-20 56q0 35 20 54.5t55 19.5t55 -19.5t20 -55.5q0 -35 -20 -55t-55 -20z" />
    <glyph glyph-name="Zcaron" unicode="&#x17d;" 
d="M108 0v168l417 529v10h-417v93h484v-168l-417 -529v-10h417v-93h-484zM504 1042l-98 -154h-112l-98 154h84l97 -123h-54l97 123h84z" />
    <glyph glyph-name="zcaron" unicode="&#x17e;" 
d="M129 598h442v-168l-381 -331v-9h381v-90h-442v167l381 332v9h-381v90zM504 840l-98 -154h-112l-98 154h84l97 -123h-54l97 123h84z" />
    <glyph glyph-name="uni018F" unicode="&#x18f;" 
d="M569 341h-418l28 38q0 -154 41 -228t127 -74q96 0 142.5 77.5t46.5 238.5q0 168 -48 249t-147 81q-65 0 -110.5 -42.5t-72.5 -128.5h-94q27 129 98 196t179 67q147 0 220.5 -106t73.5 -316q0 -203 -72.5 -305.5t-215.5 -102.5q-134 0 -201 97.5t-67 293.5q0 22 1 35.5
t2 18.5h487v-89z" />
    <glyph glyph-name="florin" unicode="&#x192;" 
d="M586 848v-90h-56q-64 0 -98.5 -31.5t-34.5 -91.5v-37h189v-90h-189v-495q0 -102 -50 -157.5t-142 -55.5h-37v90h37q46 0 71 32t25 91v495h-133v90h133v37q0 102 59.5 157.5t169.5 55.5h56z" />
    <glyph glyph-name="uni019D" unicode="&#x19d;" 
d="M-13 -233v82h17q44 0 66.5 27.5t22.5 82.5v41l45 20l46 -20v-36q0 -98 -44.5 -147.5t-133.5 -49.5h-19zM93 0v800h170l245 -735h11l-3 204v531h91v-800h-170l-245 735h-11l3 -203v-532h-91z" />
    <glyph glyph-name="uni01CD" unicode="&#x1cd;" 
d="M59 0l210 800h162l210 -800h-104l-185 724h-9l-186 -724h-98zM182 282v94h336v-94h-336zM504 1042l-98 -154h-112l-98 154h84l97 -123h-54l97 123h84z" />
    <glyph glyph-name="uni01CE" unicode="&#x1ce;" 
d="M492 369v-86l-187 -28q-46 -8 -69 -32.5t-23 -63.5q0 -38 27.5 -61.5t73.5 -23.5t84 22t60.5 59t22.5 83v154q0 62 -36.5 97t-101.5 35q-46 0 -81 -15.5t-57.5 -44.5t-29.5 -71h-92q5 68 39 117.5t91 76t133 26.5q109 0 168.5 -55.5t59.5 -158.5v-399h-93v58h-28
q-24 -35 -64.5 -54t-96.5 -19q-55 0 -95.5 21.5t-62.5 59.5t-22 89q0 74 46.5 121t133.5 61zM497 840l-98 -154h-113l-98 154h85l97 -123h-54l97 123h84z" />
    <glyph glyph-name="Gcaron" unicode="&#x1e6;" 
d="M338 -14q-124 0 -192.5 105t-68.5 309q0 207 73 311t216 104q78 0 133.5 -31.5t88 -92t39.5 -147.5h-93q-14 87 -55.5 132.5t-112.5 45.5q-96 0 -142.5 -78.5t-46.5 -243.5q0 -167 45.5 -247t140.5 -80q47 0 83.5 30t58 81.5t21.5 116.5h-179v93h263v-394h-84v70h-28
q-19 -40 -60.5 -62t-99.5 -22zM522 1042l-98 -154h-113l-98 154h85l96 -123h-53l97 123h84z" />
    <glyph glyph-name="gcaron" unicode="&#x1e7;" 
d="M591 17q0 -72 -30.5 -124t-87.5 -80t-138 -28q-73 0 -129 22.5t-88 65t-36 100.5h92q14 -48 56.5 -74.5t104.5 -26.5q76 0 118 39.5t42 110.5v73h-28q-20 -31 -60 -49t-86 -18q-73 0 -126.5 35.5t-82.5 101t-29 154.5q0 91 29 156.5t82.5 101.5t126.5 36q47 0 86.5 -19
t59.5 -51h28v55h96v-581zM179 319q0 -97 42.5 -150.5t118.5 -53.5t118.5 53.5t42.5 150.5t-42.5 150.5t-118.5 53.5t-118.5 -53.5t-42.5 -150.5zM512 840l-98 -154h-112l-98 154h84l97 -123h-54l97 123h84z" />
    <glyph glyph-name="Aringacute" unicode="&#x1fa;" 
d="M59 0l210 800h162l210 -800h-104l-185 724h-9l-186 -724h-98zM182 282v94h336v-94h-336zM350 828q-50 0 -78 19t-28 53t28 53t78 19q51 0 78.5 -19t27.5 -53t-27.5 -53t-78.5 -19zM350 874q44 0 44 26q0 25 -44 25q-43 0 -43 -25q0 -26 43 -26zM309 1000l55 80h102
l-80 -80h-77z" />
    <glyph glyph-name="aringacute" unicode="&#x1fb;" 
d="M492 369v-86l-187 -28q-46 -8 -69 -32.5t-23 -63.5q0 -38 27.5 -61.5t73.5 -23.5t84 22t60.5 59t22.5 83v154q0 62 -36.5 97t-101.5 35q-46 0 -81 -15.5t-57.5 -44.5t-29.5 -71h-92q5 68 39 117.5t91 76t133 26.5q109 0 168.5 -55.5t59.5 -158.5v-399h-93v58h-28
q-24 -35 -64.5 -54t-96.5 -19q-55 0 -95.5 21.5t-62.5 59.5t-22 89q0 74 46.5 121t133.5 61zM343 668q-50 0 -82 29t-32 76t32 76t82 29t82 -29t32 -76t-32 -76t-82 -29zM343 720q24 0 38.5 15t14.5 38q0 24 -14.5 38.5t-38.5 14.5q-23 0 -38 -14.5t-15 -38.5q0 -23 15 -38
t38 -15zM296 928l102 154h113l-129 -154h-86z" />
    <glyph glyph-name="AEacute" unicode="&#x1fc;" 
d="M360 0v282h-187v87h187v338h-33l-214 -707h-100l246 800h407v-93h-207v-260h167v-88h-167v-266h197v-93h-296zM355 888l102 154h113l-129 -154h-86z" />
    <glyph glyph-name="aeacute" unicode="&#x1fd;" 
d="M500 -15q-89 0 -133 77.5t-44 241.5q0 155 43 232t131 77q56 0 91.5 -32t52.5 -98t17 -171q0 -11 -0.5 -22.5t-1.5 -21.5h-277v85h223l-32 -42q0 77 -8 124t-24.5 69t-43.5 22q-30 0 -50 -23.5t-29.5 -73t-9.5 -125.5q0 -80 9.5 -131.5t30 -76t52.5 -24.5q33 0 54 27
t32 85h88q-11 -99 -55 -149t-116 -50zM324 369v-86l-105 -27q-38 -10 -57.5 -35.5t-19.5 -64.5q0 -36 19.5 -59t52.5 -23q46 0 73 39.5t27 106.5v172q0 67 -21.5 99.5t-64.5 32.5q-44 0 -71 -32.5t-38 -98.5h-90q9 106 61 163t140 57q80 0 122.5 -55.5t42.5 -158.5v-290
l-19 -34h-36q-19 -44 -55.5 -67t-88.5 -23q-71 0 -112.5 44.5t-41.5 119.5q0 73 41 120.5t123 68.5zM279 686l102 154h113l-129 -154h-86z" />
    <glyph glyph-name="Oslashacute" unicode="&#x1fe;" 
d="M541 815h94l-476 -830h-94zM350 -15q-142 0 -213.5 103.5t-71.5 311.5t71 311.5t214 103.5q142 0 213.5 -103.5t71.5 -311.5t-71 -311.5t-214 -103.5zM350 78q95 0 140.5 78.5t45.5 243.5t-45.5 243.5t-140.5 78.5t-140.5 -78.5t-45.5 -243.5t45.5 -243.5t140.5 -78.5z
M279 888l102 154h113l-129 -154h-86z" />
    <glyph glyph-name="oslashacute" unicode="&#x1ff;" 
d="M522 613h94l-438 -628h-94zM350 -15q-81 0 -141 38t-92.5 108.5t-32.5 167.5t32.5 167t92.5 108.5t141 38.5q82 0 141.5 -38.5t92 -108.5t32.5 -167t-32.5 -167.5t-92 -108.5t-141.5 -38zM350 75q81 0 125.5 59t44.5 165t-44.5 165t-125.5 59q-80 0 -125 -59t-45 -165
t45 -165t125 -59zM279 686l102 154h113l-129 -154h-86z" />
    <glyph glyph-name="uni0218" unicode="&#x218;" 
d="M188 204q14 -62 57.5 -94t113.5 -32q72 0 114 38t42 104q0 51 -31 82.5t-91 40.5l-86 12q-102 17 -154 73t-52 151q0 72 32.5 125t91.5 82t138 29t137.5 -28.5t92 -81.5t37.5 -129h-94q-14 71 -58 108.5t-115 37.5q-76 0 -120 -38t-44 -105q0 -51 31.5 -82.5t90.5 -41.5
l86 -12q102 -16 154 -72.5t52 -150.5q0 -72 -31.5 -124.5t-88.5 -81.5t-134 -29q-79 0 -137.5 26t-91.5 75t-38 118h96zM353 -166q-27 0 -43 14t-16 38t16 38t43 14t43 -14t16 -38t-16 -38t-43 -14zM288 -248q32 22 49.5 46.5t17.5 42.5l-2 97q31 0 47 -17.5t16 -50.5
q0 -29 -10.5 -60t-29.5 -58h-88z" />
    <glyph glyph-name="uni0219" unicode="&#x219;" 
d="M204 182q13 -52 51.5 -79.5t100.5 -27.5q64 0 98 24t34 68q0 31 -27 51t-81 28l-75 11q-96 14 -141 56t-45 116q0 86 62.5 135t172.5 49q112 0 176.5 -55.5t69.5 -155.5h-88q-13 59 -53 90t-106 31q-67 0 -103 -24.5t-36 -68.5q0 -31 27 -50.5t82 -27.5l75 -11
q96 -15 140.5 -57t44.5 -116q0 -57 -27.5 -98t-78.5 -63t-122 -22q-109 0 -171.5 51.5t-68.5 145.5h89zM356 -166q-27 0 -43 14t-16 38t16 38t43 14t43 -14t16 -38t-16 -38t-43 -14zM291 -248q32 22 49.5 46.5t17.5 42.5l-2 97q31 0 47 -17.5t16 -50.5q0 -29 -10.5 -60
t-29.5 -58h-88z" />
    <glyph glyph-name="uni021A" unicode="&#x21a;" 
d="M300 0v707h-237v93h574v-93h-237v-707h-100zM348 -166q-27 0 -43 14t-16 38t16 38t43 14t43 -14t16 -38t-16 -38t-43 -14zM283 -248q32 22 49.5 46.5t17.5 42.5l-2 97q31 0 47 -17.5t16 -50.5q0 -29 -10.5 -60t-29.5 -58h-88z" />
    <glyph glyph-name="uni021B" unicode="&#x21b;" 
d="M315 750v-152h273v-90h-273v-315q0 -58 24 -88t70 -30q48 0 75 32.5t37 98.5h86q-5 -108 -57 -164.5t-145 -56.5q-89 0 -137.5 53.5t-48.5 151.5v318h-136v90h136v152h96zM410 -166q-27 0 -43 14t-16 38t16 38t43 14t43 -14t16 -38t-16 -38t-43 -14zM345 -248
q32 22 49.5 46.5t17.5 42.5l-2 97q31 0 47 -17.5t16 -50.5q0 -29 -10.5 -60t-29.5 -58h-88z" />
    <glyph glyph-name="uni0232" unicode="&#x232;" 
d="M157 800l182 -334l9 -30h9l9 30l184 334h101l-251 -454v-346h-100v346l-251 454h108zM192 926v78h316v-78h-316z" />
    <glyph glyph-name="uni0233" unicode="&#x233;" 
d="M75 598h103l163 -460h65l-26 -88h-110zM628 598l-229 -690q-20 -59 -58 -91t-87 -32q-72 0 -112 39.5t-46 116.5h88q11 -36 26 -52.5t40 -16.5q23 0 37.5 15t26.5 48l218 663h96zM197 724v78h316v-78h-316z" />
    <glyph glyph-name="uni0237" unicode="&#x237;" 
d="M135 598h360v-617q0 -94 -51 -145t-144 -51q-87 0 -138.5 44t-58.5 125h90q12 -39 39 -60t68 -21q47 0 73 29.5t26 83.5v522h-264v90z" />
    <glyph glyph-name="uni0259" unicode="&#x259;" 
d="M527 245h-370l33 42q0 -104 38.5 -159.5t110.5 -55.5q79 0 122.5 58.5t43.5 163.5q0 113 -43.5 172.5t-126.5 59.5q-54 0 -94.5 -29t-65.5 -83h-90q15 62 50 106.5t86 68.5t114 24q84 0 142.5 -37.5t90 -108.5t31.5 -173q0 -95 -32 -164.5t-90 -107t-138 -37.5
q-75 0 -128.5 35.5t-81.5 102.5t-28 163q0 11 0.5 22.5t1.5 21.5h424v-85z" />
    <glyph glyph-name="uni0272" unicode="&#x272;" 
d="M24 -210v82h15q81 0 81 98v30l48 20l48 -20v-24q0 -93 -44 -139.5t-132 -46.5h-16zM120 0v598h96v-48h28q23 30 60 46.5t81 16.5q64 0 110 -28t71.5 -78.5t25.5 -119.5v-387h-96v361q0 78 -36 119t-104 41t-104 -41t-36 -119v-361h-96z" />
    <glyph glyph-name="uni02BC" unicode="&#x2bc;" 
d="M255 522q36 31 62.5 79.5t34.5 98.5l-2 164q48 0 70 -27.5t22 -84.5q0 -42 -7.5 -84t-21 -79.5t-32.5 -66.5h-126zM350 692q-39 0 -61 22.5t-22 63.5t22 63.5t61 22.5q40 0 61.5 -22.5t21.5 -63.5t-21.5 -63.5t-61.5 -22.5z" />
    <glyph glyph-name="circumflex" unicode="&#x2c6;" 
d="M196 686l98 154h112l98 -154h-84l-97 123h54l-97 -123h-84z" />
    <glyph glyph-name="caron" unicode="&#x2c7;" 
d="M504 840l-98 -154h-112l-98 154h84l97 -123h-54l97 123h84z" />
    <glyph glyph-name="breve" unicode="&#x2d8;" 
d="M270 826q3 -38 23.5 -57t56.5 -19q37 0 57 19t23 57h86q-5 -71 -47 -107.5t-119 -36.5t-118.5 36.5t-47.5 107.5h86z" />
    <glyph glyph-name="dotaccent" unicode="&#x2d9;" 
d="M350 693q-35 0 -55 20t-20 56q0 35 20 54.5t55 19.5t55 -19.5t20 -55.5q0 -35 -20 -55t-55 -20z" />
    <glyph glyph-name="ring" unicode="&#x2da;" 
d="M350 668q-50 0 -82 29t-32 76t32 76t82 29t82 -29t32 -76t-32 -76t-82 -29zM350 720q24 0 38.5 15t14.5 38q0 24 -14.5 38.5t-38.5 14.5q-23 0 -38 -14.5t-15 -38.5q0 -23 15 -38t38 -15z" />
    <glyph glyph-name="ogonek" unicode="&#x2db;" 
d="M384 -215q-51 0 -80.5 25t-29.5 69q0 34 18.5 66t50.5 55l42 2l47 -2q-33 -20 -52 -46t-19 -53q0 -21 11.5 -33.5t31.5 -12.5q10 0 16 1.5t12 2.5v-68q-9 -3 -21 -4.5t-27 -1.5z" />
    <glyph glyph-name="tilde" unicode="&#x2dc;" 
d="M163 696q5 64 34.5 99t78.5 35q39 0 64.5 -12t44.5 -24.5t39 -12.5q16 0 26.5 14t15.5 39h71q-5 -64 -34.5 -99t-78.5 -35q-39 0 -64.5 12t-44.5 24.5t-39 12.5q-16 0 -26.5 -13.5t-15.5 -39.5h-71z" />
    <glyph glyph-name="hungarumlaut" unicode="&#x2dd;" 
d="M188 686l90 154h109l-116 -154h-83zM377 686l117 154h115l-142 -154h-90z" />
    <glyph glyph-name="gravecomb" unicode="&#x300;" horiz-adv-x="0" 
d="M421 686h-86l-129 154h113z" />
    <glyph glyph-name="acutecomb" unicode="&#x301;" horiz-adv-x="0" 
d="M279 686l102 154h113l-129 -154h-86z" />
    <glyph glyph-name="uni0302" unicode="&#x302;" horiz-adv-x="0" 
d="M196 686l98 154h112l98 -154h-84l-97 123h54l-97 -123h-84z" />
    <glyph glyph-name="tildecomb" unicode="&#x303;" horiz-adv-x="0" 
d="M183 694q6 72 30 103t73 31q35 0 57 -12t37.5 -24.5t33.5 -12.5q14 0 21 12.5t11 40.5h71q-6 -71 -30 -102.5t-73 -31.5q-35 0 -56.5 12.5t-37.5 24.5t-34 12q-13 0 -20.5 -12t-11.5 -41h-71z" />
    <glyph glyph-name="uni0304" unicode="&#x304;" horiz-adv-x="0" 
d="M192 724v78h316v-78h-316z" />
    <glyph glyph-name="uni0306" unicode="&#x306;" horiz-adv-x="0" 
d="M270 826q3 -38 23.5 -57t56.5 -19q37 0 57 19t23 57h86q-5 -71 -47 -107.5t-119 -36.5t-118.5 36.5t-47.5 107.5h86z" />
    <glyph glyph-name="uni0307" unicode="&#x307;" horiz-adv-x="0" 
d="M350 693q-35 0 -55 20t-20 56q0 35 20 54.5t55 19.5t55 -19.5t20 -55.5q0 -35 -20 -55t-55 -20z" />
    <glyph glyph-name="uni0308" unicode="&#x308;" horiz-adv-x="0" 
d="M233 701q-31 0 -49.5 18t-18.5 49q0 32 18.5 50t49.5 18q32 0 50 -18t18 -50q0 -31 -17.5 -49t-50.5 -18zM467 701q-32 0 -50 18t-18 49q0 32 18 50t50 18t50 -18t18 -50q0 -31 -18 -49t-50 -18z" />
    <glyph glyph-name="uni030A" unicode="&#x30a;" horiz-adv-x="0" 
d="M350 668q-50 0 -82 29t-32 76t32 76t82 29t82 -29t32 -76t-32 -76t-82 -29zM350 720q24 0 38.5 15t14.5 38q0 24 -14.5 38.5t-38.5 14.5q-23 0 -38 -14.5t-15 -38.5q0 -23 15 -38t38 -15z" />
    <glyph glyph-name="uni030B" unicode="&#x30b;" horiz-adv-x="0" 
d="M188 686l90 154h109l-116 -154h-83zM377 686l117 154h115l-142 -154h-90z" />
    <glyph glyph-name="uni030C" unicode="&#x30c;" horiz-adv-x="0" 
d="M504 840l-98 -154h-112l-98 154h84l97 -123h-54l97 123h84z" />
    <glyph glyph-name="uni0312" unicode="&#x312;" horiz-adv-x="0" 
d="M352 766q27 0 43 -14t16 -38t-16 -38t-43 -14t-43 14t-16 38t16 38t43 14zM417 848q-32 -22 -49.5 -46.5t-17.5 -42.5l2 -97q-31 0 -47 17.5t-16 50.5q0 29 10.5 60.5t29.5 57.5h88z" />
    <glyph glyph-name="dotbelowcomb" unicode="&#x323;" horiz-adv-x="0" 
d="M350 -244q-35 0 -55 20t-20 56q0 35 20 54.5t55 19.5t55 -19.5t20 -55.5q0 -35 -20 -55t-55 -20z" />
    <glyph glyph-name="uni0326" unicode="&#x326;" horiz-adv-x="0" 
d="M348 -166q-27 0 -43 14t-16 38t16 38t43 14t43 -14t16 -38t-16 -38t-43 -14zM283 -248q32 22 49.5 46.5t17.5 42.5l-2 97q31 0 47 -17.5t16 -50.5q0 -29 -10.5 -60t-29.5 -58h-88z" />
    <glyph glyph-name="uni0327" unicode="&#x327;" horiz-adv-x="0" 
d="M330 20h76l-17 -65q38 -7 58.5 -28t20.5 -53q0 -42 -33 -65.5t-92 -23.5q-54 0 -86.5 22.5t-35.5 64.5h73q5 -14 18 -22t32 -8t30 9t11 24q0 16 -10.5 26t-31.5 11l-36 4z" />
    <glyph glyph-name="uni0328" unicode="&#x328;" horiz-adv-x="0" 
d="M384 -215q-51 0 -80.5 25t-29.5 69q0 34 18.5 66t50.5 55l42 2l47 -2q-33 -20 -52 -46t-19 -53q0 -21 11.5 -33.5t31.5 -12.5q10 0 16 1.5t12 2.5v-68q-9 -3 -21 -4.5t-27 -1.5z" />
    <glyph glyph-name="uni0401" unicode="&#x401;" 
d="M149 0v800h460v-93h-361v-260h311v-88h-311v-266h351v-93h-450zM269 903q-31 0 -49.5 18t-18.5 49q0 32 18.5 50t49.5 18q32 0 50 -18t18 -50q0 -31 -17.5 -49t-50.5 -18zM503 903q-32 0 -50 18t-18 49q0 32 18 50t50 18t50 -18t18 -50q0 -31 -18 -49t-50 -18z" />
    <glyph glyph-name="uni0404" unicode="&#x404;" 
d="M460 355h-287v90h287v-90zM366 -15q-139 0 -209 103.5t-70 311.5t72 311.5t217 103.5q78 0 134.5 -33.5t89 -98.5t38.5 -159h-92q-13 98 -56 148t-114 50q-97 0 -143 -78.5t-46 -243.5t43.5 -243.5t135.5 -78.5q69 0 110 46.5t53 136.5h92q-6 -89 -37.5 -150.5
t-86.5 -93.5t-131 -32z" />
    <glyph glyph-name="uni0406" unicode="&#x406;" 
d="M100 0v93h200v614h-200v93h500v-93h-200v-614h200v-93h-500z" />
    <glyph glyph-name="uni0407" unicode="&#x407;" 
d="M100 0v93h200v614h-200v93h500v-93h-200v-614h200v-93h-500zM233 903q-31 0 -49.5 18t-18.5 49q0 32 18.5 50t49.5 18q32 0 50 -18t18 -50q0 -31 -17.5 -49t-50.5 -18zM467 903q-32 0 -50 18t-18 49q0 32 18 50t50 18t50 -18t18 -50q0 -31 -18 -49t-50 -18z" />
    <glyph glyph-name="uni040E" unicode="&#x40e;" 
d="M180 800l194 -455h93l-30 -84h-130l-233 539h106zM544 800h97l-182 -651q-16 -57 -37.5 -93.5t-50.5 -53.5t-69 -17q-65 0 -103 41t-50 123h90q9 -41 24 -59t37 -18q23 0 38.5 21.5t30.5 76.5zM293 1028q3 -38 23.5 -57t56.5 -19q37 0 57 19t23 57h86q-5 -71 -47 -107.5
t-119 -36.5t-118.5 36.5t-47.5 107.5h86z" />
    <glyph glyph-name="uni0410" unicode="&#x410;" 
d="M59 0l210 800h162l210 -800h-104l-185 724h-9l-186 -724h-98zM182 282v94h336v-94h-336z" />
    <glyph glyph-name="uni0411" unicode="&#x411;" 
d="M131 0v800h470v-93h-370v-243h153q76 0 131.5 -28t85.5 -80t30 -124q0 -71 -30 -123t-85.5 -80.5t-131.5 -28.5h-253zM231 93h157q67 0 105.5 37.5t38.5 103.5t-38.5 103.5t-105.5 37.5h-157v-282z" />
    <glyph glyph-name="uni0412" unicode="&#x412;" 
d="M130 0v800h226q122 0 191.5 -57.5t69.5 -158.5q0 -60 -32 -103.5t-89 -60.5v-15q64 -19 99 -68t35 -119q0 -102 -73 -160t-201 -58h-226zM230 92h126q85 0 129.5 35.5t44.5 98.5q0 65 -44.5 100t-129.5 35h-126v-269zM230 448h126q80 0 122.5 33.5t42.5 96.5q0 62 -42 96
t-123 34h-126v-260z" />
    <glyph glyph-name="uni0413" unicode="&#x413;" 
d="M184 800h448v-93h-348v-707h-100v800z" />
    <glyph glyph-name="uni0414" unicode="&#x414;" 
d="M40 -171v264h50q12 25 21.5 49.5t17.5 57.5t14 81t11 117.5t9 168.5t6 233h404v-707h87v-264h-96v171h-428v-171h-96zM191 93h282v614h-210q-3 -136 -7.5 -230t-11.5 -157.5t-14.5 -104t-17.5 -69t-21 -53.5z" />
    <glyph glyph-name="uni0415" unicode="&#x415;" 
d="M149 0v800h460v-93h-361v-260h311v-88h-311v-266h351v-93h-450z" />
    <glyph glyph-name="uni0416" unicode="&#x416;" 
d="M559 0l-113 291l-9 49h-47v92h48l8 48l126 320h101l-160 -408l153 -392h-107zM34 0l153 392l-160 408h101l126 -320l8 -48h48v-92h-47l-9 -49l-113 -291h-107zM301 0v800h98v-800h-98z" />
    <glyph glyph-name="uni0417" unicode="&#x417;" 
d="M609 211q0 -67 -32.5 -118.5t-89 -79.5t-130.5 -28q-80 0 -138 29.5t-90.5 85.5t-35.5 134h96q9 -75 53 -115.5t114 -40.5q46 0 80 17.5t53 49t19 73.5q0 65 -39.5 104t-105.5 39h-96v92h96q68 0 109 36.5t41 96.5q0 61 -41.5 98.5t-111.5 37.5q-73 0 -118 -42.5
t-58 -123.5h-96q5 83 39 140.5t93.5 88t140.5 30.5q75 0 131.5 -27.5t88 -77t31.5 -117.5q0 -66 -34 -113t-92 -63v-15q56 -16 89.5 -67t33.5 -124z" />
    <glyph glyph-name="uni0418" unicode="&#x418;" 
d="M607 0h-97v532l4 203h-11l-240 -735h-170v800h97v-531l-4 -204h11l240 735h170v-800z" />
    <glyph glyph-name="uni0419" unicode="&#x419;" 
d="M607 0h-97v532l4 203h-11l-240 -735h-170v800h97v-531l-4 -204h11l240 735h170v-800zM270 1028q3 -38 23.5 -57t56.5 -19q37 0 57 19t23 57h86q-5 -71 -47 -107.5t-119 -36.5t-118.5 36.5t-47.5 107.5h86z" />
    <glyph glyph-name="uni041A" unicode="&#x41a;" 
d="M147 800h99v-800h-99v800zM507 0l-290 387l306 413h116l-304 -409l294 -391h-122z" />
    <glyph glyph-name="uni041B" unicode="&#x41b;" 
d="M500 0v707h-261v93h361v-800h-100zM21 -8v93h15q24 0 43.5 6t33.5 28t22.5 70t11.5 132l17 479h95l-19 -541q-2 -77 -13.5 -127.5t-30 -79t-42.5 -41t-51.5 -16t-56.5 -3.5h-25z" />
    <glyph glyph-name="uni041C" unicode="&#x41c;" 
d="M78 0v800h160l110 -468h10l109 468h155v-800h-91v489l3 241h-11l-105 -456h-135l-106 456h-11l3 -241v-489h-91z" />
    <glyph glyph-name="uni041D" unicode="&#x41d;" 
d="M100 0v800h100v-350h300v350h100v-800h-100v356h-300v-356h-100z" />
    <glyph glyph-name="uni041E" unicode="&#x41e;" 
d="M350 -15q-142 0 -213.5 103.5t-71.5 311.5t71 311.5t214 103.5q142 0 213.5 -103.5t71.5 -311.5t-71 -311.5t-214 -103.5zM350 78q95 0 140.5 78.5t45.5 243.5t-45.5 243.5t-140.5 78.5t-140.5 -78.5t-45.5 -243.5t45.5 -243.5t140.5 -78.5z" />
    <glyph glyph-name="uni041F" unicode="&#x41f;" 
d="M100 800h500v-800h-100v705h-300v-705h-100v800z" />
    <glyph glyph-name="uni0420" unicode="&#x420;" 
d="M137 0v800h266q75 0 130.5 -28.5t86 -80.5t30.5 -124q0 -70 -30.5 -122t-86 -80.5t-130.5 -28.5h-166v-336h-100zM237 425h170q67 0 105 37.5t38 103.5t-38 103.5t-105 37.5h-170v-282z" />
    <glyph glyph-name="uni0421" unicode="&#x421;" 
d="M366 -15q-139 0 -209 103.5t-70 311.5t72 311.5t217 103.5q78 0 134.5 -33.5t89 -98.5t38.5 -159h-92q-13 98 -56 148t-114 50q-97 0 -143 -78.5t-46 -243.5t43.5 -243.5t135.5 -78.5q69 0 110 46.5t53 136.5h92q-6 -89 -37.5 -150.5t-86.5 -93.5t-131 -32z" />
    <glyph glyph-name="uni0422" unicode="&#x422;" 
d="M300 0v707h-237v93h574v-93h-237v-707h-100z" />
    <glyph glyph-name="uni0423" unicode="&#x423;" 
d="M180 800l194 -455h93l-30 -84h-130l-233 539h106zM544 800h97l-182 -651q-16 -57 -37.5 -93.5t-50.5 -53.5t-69 -17q-65 0 -103 41t-50 123h90q9 -41 24 -59t37 -18q23 0 38.5 21.5t30.5 76.5z" />
    <glyph glyph-name="uni0424" unicode="&#x424;" 
d="M303 -28v105h-13q-77 0 -133 39t-86.5 111.5t-30.5 172.5q0 101 30.5 173t86.5 111t133 39h13v105h100v-105h12q78 0 134 -39t86.5 -111t30.5 -173q0 -100 -30.5 -172.5t-86.5 -111.5t-134 -39h-12v-105h-100zM290 170h14v460h-14q-47 0 -81 -27t-52 -78.5t-18 -124.5
t18 -124.5t52 -78.5t81 -27zM402 170h13q48 0 82 27t51.5 78.5t17.5 124.5t-17.5 124.5t-51.5 78.5t-82 27h-13v-460z" />
    <glyph glyph-name="uni0425" unicode="&#x425;" 
d="M73 0l199 385l-213 415h112l166 -325l9 -42h10l8 42l169 325h108l-213 -410l199 -390h-114l-150 295l-9 44h-9l-9 -44l-152 -295h-111z" />
    <glyph glyph-name="uni0426" unicode="&#x426;" 
d="M100 0v800h100v-707h284v707h100v-707h87v-264h-96v171h-475z" />
    <glyph glyph-name="uni0427" unicode="&#x427;" 
d="M80 800h100v-252q0 -82 37.5 -119t119.5 -37q41 0 74 6t73 21v381h99v-800h-99v326q-44 -15 -81.5 -21.5t-86.5 -6.5q-236 0 -236 240v262z" />
    <glyph glyph-name="uni0428" unicode="&#x428;" 
d="M61 800h93v-707h149v707h94v-707h149v707h93v-800h-578v800z" />
    <glyph glyph-name="uni0429" unicode="&#x429;" 
d="M58 800h94v-707h138v707h93v-707h139v707h93v-707h74v-264h-94v171h-537v800z" />
    <glyph glyph-name="uni042A" unicode="&#x42a;" 
d="M50 800h241v-336h112q75 0 130.5 -28.5t86 -80t30.5 -122.5t-30.5 -123.5t-86 -81t-130.5 -28.5h-211v711h-142v89zM291 93h116q67 0 105 37.5t38 103.5t-38 103.5t-105 37.5h-116v-282z" />
    <glyph glyph-name="uni042B" unicode="&#x42b;" 
d="M78 800h97v-296h57q101 0 157.5 -66.5t56.5 -184.5q0 -119 -56.5 -186t-157.5 -67h-154v800zM175 416v-324h58q57 0 86.5 41.5t29.5 120.5t-29.5 120.5t-86.5 41.5h-58zM525 800h97v-800h-97v800z" />
    <glyph glyph-name="uni042C" unicode="&#x42c;" 
d="M137 800h100v-336h166q75 0 130.5 -28.5t86 -80t30.5 -123.5q0 -71 -30.5 -123t-86 -80.5t-130.5 -28.5h-266v800zM237 375v-282h170q67 0 105 37.5t38 103.5t-38 103.5t-105 37.5h-170z" />
    <glyph glyph-name="uni042D" unicode="&#x42d;" 
d="M240 355v90h287v-90h-287zM334 -15q-76 0 -131 32t-86.5 93.5t-37.5 150.5h92q13 -90 54 -136.5t109 -46.5q92 0 135.5 78.5t43.5 243.5t-45.5 243.5t-143.5 78.5q-70 0 -113 -50t-57 -148h-92q6 94 38.5 159t89 98.5t134.5 33.5q145 0 217 -103.5t72 -311.5
t-69.5 -311.5t-209.5 -103.5z" />
    <glyph glyph-name="Yucy" unicode="&#x42e;" 
d="M55 800h99v-350h119v-94h-119v-356h-99v800zM465 -15q-57 0 -97.5 23t-66.5 72.5t-38 128.5t-12 191t12 191t38 128.5t66.5 72.5t97.5 23q56 0 96.5 -23t66 -72.5t37 -128.5t11.5 -191t-11.5 -191t-37 -128.5t-66 -72.5t-96.5 -23zM461 78q32 0 54 17t35.5 55t20 99.5
t6.5 150.5t-6.5 150.5t-20 99.5t-35.5 55t-54 17q-31 0 -53.5 -17t-36 -55t-19.5 -99.5t-6 -150.5t6 -150.5t19.5 -99.5t36 -55t53.5 -17z" />
    <glyph glyph-name="Yacy" unicode="&#x42f;" 
d="M479 0v328h-151q-77 0 -134 28.5t-88 81t-31 123.5q0 74 31 127.5t88 82.5t134 29h251v-800h-100zM48 0l246 346h108l-242 -346h-112zM331 414h148v293h-148q-73 0 -114.5 -39t-41.5 -108q0 -68 41.5 -107t114.5 -39z" />
    <glyph glyph-name="uni0430" unicode="&#x430;" 
d="M492 369v-86l-187 -28q-46 -8 -69 -32.5t-23 -63.5q0 -38 27.5 -61.5t73.5 -23.5t84 22t60.5 59t22.5 83v154q0 62 -36.5 97t-101.5 35q-46 0 -81 -15.5t-57.5 -44.5t-29.5 -71h-92q5 68 39 117.5t91 76t133 26.5q109 0 168.5 -55.5t59.5 -158.5v-399h-93v58h-28
q-24 -35 -64.5 -54t-96.5 -19q-55 0 -95.5 21.5t-62.5 59.5t-22 89q0 74 46.5 121t133.5 61z" />
    <glyph glyph-name="uni0431" unicode="&#x431;" 
d="M351 -15q-128 0 -197.5 94t-69.5 267q0 219 68 328.5t209 115.5l84 4q30 2 42 13t13 37h95q-1 -57 -16.5 -87t-47 -42t-81.5 -15l-88 -5q-81 -4 -125.5 -57.5t-56.5 -157.5h12q26 46 71 71t105 25q76 0 131.5 -36t86 -102t30.5 -156t-32.5 -157t-92 -103.5t-140.5 -36.5z
M354 75q78 0 122 55t44 152t-43.5 152t-121.5 55t-122 -55t-44 -152t44 -152t121 -55z" />
    <glyph glyph-name="uni0432" unicode="&#x432;" 
d="M138 0v598h252q95 0 146.5 -43.5t51.5 -122.5q0 -41 -22.5 -73t-61.5 -45v-12q44 -15 69 -51.5t25 -84.5q0 -79 -53 -122.5t-148 -43.5h-259zM234 89h163q51 0 78 22t27 63t-27 63t-78 22h-163v-170zM234 342h157q50 0 77.5 22t27.5 62q0 39 -27.5 61t-77.5 22h-157v-167
z" />
    <glyph glyph-name="uni0433" unicode="&#x433;" 
d="M203 0v598h398v-90h-302v-508h-96z" />
    <glyph glyph-name="uni0434" unicode="&#x434;" 
d="M59 -151v241h40q18 22 30 47.5t19.5 61.5t12.5 89t8 128.5t6 181.5h393v-508h73v-241h-90v151h-402v-151h-90zM205 90h267v418h-209q-4 -99 -8 -166.5t-9.5 -113.5t-15 -78.5t-25.5 -59.5z" />
    <glyph glyph-name="uni0435" unicode="&#x435;" 
d="M173 353h370l-33 -42q0 104 -38 159.5t-111 55.5q-79 0 -122.5 -58.5t-43.5 -163.5q0 -113 44 -172.5t126 -59.5q55 0 95 28.5t65 83.5h90q-15 -62 -50 -107t-85.5 -68.5t-114.5 -23.5q-83 0 -142 37.5t-90.5 109t-31.5 172.5q0 96 32 165t90.5 106.5t137.5 37.5
q76 0 129 -35t81 -102.5t28 -163.5q0 -11 -0.5 -22.5t-1.5 -21.5h-424v85z" />
    <glyph glyph-name="uni0436" unicode="&#x436;" 
d="M549 0l-119 219l-8 28h-34v83h36l7 29l135 239h99l-171 -304l162 -294h-107zM44 0l162 294l-171 304h99l135 -239l7 -29h36v-83h-34l-8 -28l-119 -219h-107zM303 0v598h94v-598h-94z" />
    <glyph glyph-name="uni0437" unicode="&#x437;" 
d="M366 -15q-104 0 -167.5 53t-69.5 146h92q9 -52 48 -81.5t97 -29.5q41 0 71 12t47.5 35t17.5 52q0 42 -28.5 65t-78.5 23h-87v81h88q50 0 79.5 23t29.5 63q0 29 -17.5 50.5t-48 34.5t-71.5 13q-64 0 -105.5 -35t-50.5 -96h-91q5 103 71 161t176 58q70 0 122 -23t80.5 -63
t28.5 -93q0 -41 -22.5 -73t-61.5 -48v-11q39 -16 61 -53.5t22 -84.5q0 -54 -29 -94t-81 -62.5t-122 -22.5z" />
    <glyph glyph-name="uni0438" unicode="&#x438;" 
d="M110 0v598h95v-370l-3 -163h11l214 533h163v-598h-95v372l3 161h-11l-214 -533h-163z" />
    <glyph glyph-name="uni0439" unicode="&#x439;" 
d="M110 0v598h95v-370l-3 -163h11l214 533h163v-598h-95v372l3 161h-11l-214 -533h-163zM264 826q3 -38 23.5 -57t56.5 -19q37 0 57 19t23 57h86q-5 -71 -47 -107.5t-119 -36.5t-118.5 36.5t-47.5 107.5h86z" />
    <glyph glyph-name="uni043A" unicode="&#x43a;" 
d="M493 0l-269 292l278 306h122l-276 -303l273 -295h-128zM157 0v598h96v-598h-96z" />
    <glyph glyph-name="uni043B" unicode="&#x43b;" 
d="M60 -8v88h18q26 0 43.5 5.5t28 23.5t16 54.5t8.5 98.5l12 336h394v-598h-96v508h-209l-10 -274q-3 -80 -14.5 -128.5t-32.5 -73t-53 -32.5t-76 -8h-29z" />
    <glyph glyph-name="uni043C" unicode="&#x43c;" 
d="M87 0v598h157l104 -429h10l103 429h152v-598h-89v286l3 241h-11l-100 -415h-132l-100 415h-11l3 -241v-286h-89z" />
    <glyph glyph-name="uni043D" unicode="&#x43d;" 
d="M120 0v598h96v-258h268v258h96v-598h-96v250h-268v-250h-96z" />
    <glyph glyph-name="uni043E" unicode="&#x43e;" 
d="M350 -15q-81 0 -141 38t-92.5 108.5t-32.5 167.5t32.5 167t92.5 108.5t141 38.5q82 0 141.5 -38.5t92 -108.5t32.5 -167t-32.5 -167.5t-92 -108.5t-141.5 -38zM350 75q81 0 125.5 59t44.5 165t-44.5 165t-125.5 59q-80 0 -125 -59t-45 -165t45 -165t125 -59z" />
    <glyph glyph-name="uni043F" unicode="&#x43f;" 
d="M125 0v598h450v-598h-96v508h-258v-508h-96z" />
    <glyph glyph-name="uni0440" unicode="&#x440;" 
d="M111 -200v798h96v-61h28q21 36 62.5 56t91.5 20q74 0 129 -38.5t84.5 -108.5t29.5 -167t-29.5 -167.5t-84.5 -108.5t-129 -38q-50 0 -91.5 20t-62.5 55h-28v-260h-96zM370 75q79 0 122.5 59t43.5 165t-43.5 165t-122.5 59t-123 -59t-44 -165t44 -165t123 -59z" />
    <glyph glyph-name="uni0441" unicode="&#x441;" 
d="M363 -15q-81 0 -140 37.5t-91 107.5t-32 166q0 98 33 169t94 109.5t145 38.5q73 0 127 -30t85.5 -85t34.5 -130h-88q-12 74 -54 114.5t-108 40.5q-83 0 -128 -59.5t-45 -167.5q0 -106 43.5 -163.5t123.5 -57.5q60 0 100 36t55 101h88q-6 -70 -38 -121t-84.5 -78.5
t-120.5 -27.5z" />
    <glyph glyph-name="uni0442" unicode="&#x442;" 
d="M302 0v508h-200v90h496v-90h-200v-508h-96z" />
    <glyph glyph-name="uni0443" unicode="&#x443;" 
d="M75 598h103l163 -460h65l-26 -88h-110zM628 598l-229 -690q-20 -59 -58 -91t-87 -32q-72 0 -112 39.5t-46 116.5h88q11 -36 26 -52.5t40 -16.5q23 0 37.5 15t26.5 48l218 663h96z" />
    <glyph glyph-name="uni0444" unicode="&#x444;" 
d="M302 -200v185h-19q-71 0 -122.5 38t-79.5 109t-28 168t28 167t79.5 108t122.5 38h19v187h96v-187h19q71 0 123 -38t79.5 -108t27.5 -167t-27.5 -168t-79.5 -109t-123 -38h-19v-185h-96zM283 75h19v448h-19q-64 0 -99.5 -58t-35.5 -165q0 -72 16 -122t46.5 -76.5
t72.5 -26.5zM398 75h19q43 0 73 26.5t46 76.5t16 122q0 107 -35.5 165t-99.5 58h-19v-448z" />
    <glyph glyph-name="uni0445" unicode="&#x445;" 
d="M90 0l179 286l-190 312h112l147 -239l7 -26h10l7 26l154 239h105l-194 -304l183 -294h-114l-137 219l-8 25h-9l-7 -25l-138 -219h-107z" />
    <glyph glyph-name="uni0446" unicode="&#x446;" 
d="M553 -151v151h-433v598h96v-508h258v508h96v-508h73v-241h-90z" />
    <glyph glyph-name="uni0447" unicode="&#x447;" 
d="M466 0v231q-32 -11 -68.5 -17t-78.5 -6q-109 0 -163 52t-54 154v184h96v-184q0 -59 33 -88.5t102 -29.5q38 0 70 6t63 18v278h96v-598h-96z" />
    <glyph glyph-name="uni0448" unicode="&#x448;" 
d="M63 0v598h90v-508h152v508h90v-508h152v508h90v-598h-574z" />
    <glyph glyph-name="uni0449" unicode="&#x449;" 
d="M582 -151v151h-518v598h89v-508h134v508h89v-508h134v508h89v-508h74v-241h-91z" />
    <glyph glyph-name="uni044A" unicode="&#x44a;" 
d="M207 0v508h-152v90h248v-204h132q100 0 157 -52.5t57 -144.5q0 -93 -57 -145t-157 -52h-228zM303 90h132q57 0 87.5 28t30.5 80q0 51 -30.5 79t-87.5 28h-132v-215z" />
    <glyph glyph-name="uni044B" unicode="&#x44b;" 
d="M62 0v598h96v-204h84q97 0 152.5 -52.5t55.5 -144.5t-55.5 -144.5t-152.5 -52.5h-180zM158 90h90q50 0 78.5 28.5t28.5 79.5q0 50 -28.5 78.5t-78.5 28.5h-90v-215zM542 0v598h96v-598h-96z" />
    <glyph glyph-name="uni044C" unicode="&#x44c;" 
d="M157 0v598h96v-204h150q100 0 157 -52.5t57 -144.5q0 -93 -57 -145t-157 -52h-246zM253 90h150q57 0 87.5 28t30.5 80q0 51 -30.5 79t-87.5 28h-150v-215z" />
    <glyph glyph-name="uni044D" unicode="&#x44d;" 
d="M517 254h-260v84h260v-84zM337 -15q-68 0 -120.5 27.5t-84.5 78.5t-38 121h88q15 -65 55.5 -101t99.5 -36q80 0 123.5 57.5t43.5 163.5q0 108 -45 167.5t-128 59.5q-65 0 -107.5 -40.5t-54.5 -114.5h-88q3 75 34.5 130t85.5 85t127 30q84 0 145 -38.5t94 -109.5t33 -169
q0 -96 -32 -166t-90.5 -107.5t-140.5 -37.5z" />
    <glyph glyph-name="yucy" unicode="&#x44e;" 
d="M464 -15q-71 0 -118 34.5t-70.5 105t-23.5 175.5t23.5 174.5t70.5 104t118 34.5q70 0 117 -34.5t70.5 -104t23.5 -174.5t-23.5 -175.5t-70.5 -105t-117 -34.5zM62 0v598h96v-258h112v-90h-112v-250h-96zM462 75q40 0 66 24t39 74t13 127t-13 126t-39 73t-66 24t-65.5 -24
t-38.5 -73t-13 -126t13 -127t38.5 -74t65.5 -24z" />
    <glyph glyph-name="yacy" unicode="&#x44f;" 
d="M467 0v223h-138q-64 0 -110.5 23t-71.5 64.5t-25 99.5t25 100t71.5 65t110.5 23h234v-598h-96zM103 0l173 249h108l-169 -249h-112zM329 309h138v199h-138q-52 0 -82 -26.5t-30 -73.5q0 -46 30 -72.5t82 -26.5z" />
    <glyph glyph-name="uni0451" unicode="&#x451;" 
d="M173 353h370l-33 -42q0 104 -38 159.5t-111 55.5q-79 0 -122.5 -58.5t-43.5 -163.5q0 -113 44 -172.5t126 -59.5q55 0 95 28.5t65 83.5h90q-15 -62 -50 -107t-85.5 -68.5t-114.5 -23.5q-83 0 -142 37.5t-90.5 109t-31.5 172.5q0 96 32 165t90.5 106.5t137.5 37.5
q76 0 129 -35t81 -102.5t28 -163.5q0 -11 -0.5 -22.5t-1.5 -21.5h-424v85zM241 701q-31 0 -49.5 18t-18.5 49q0 32 18.5 50t49.5 18q32 0 50 -18t18 -50q0 -31 -17.5 -49t-50.5 -18zM475 701q-32 0 -50 18t-18 49q0 32 18 50t50 18t50 -18t18 -50q0 -31 -18 -49t-50 -18z
" />
    <glyph glyph-name="uni0454" unicode="&#x454;" 
d="M183 254v84h260v-84h-260zM363 -15q-81 0 -140 37.5t-91 107.5t-32 166q0 98 33 169t94 109.5t145 38.5q73 0 127 -30t85.5 -85t34.5 -130h-88q-12 74 -54 114.5t-108 40.5q-83 0 -128 -59.5t-45 -167.5q0 -106 43.5 -163.5t123.5 -57.5q60 0 100 36t55 101h88
q-6 -70 -38 -121t-84.5 -78.5t-120.5 -27.5z" />
    <glyph glyph-name="uni0456" unicode="&#x456;" 
d="M151 598h278v-508h182v-90h-460v90h182v418h-182v90zM373 691q-35 0 -55 20t-20 56q0 35 20 54.5t55 19.5t55 -19.5t20 -55.5q0 -35 -20 -55t-55 -20z" />
    <glyph glyph-name="uni0457" unicode="&#x457;" 
d="M151 598h278v-508h182v-90h-460v90h182v418h-182v90zM256 701q-31 0 -49.5 18t-18.5 49q0 32 18.5 50t49.5 18q32 0 50 -18t18 -50q0 -31 -17.5 -49t-50.5 -18zM490 701q-32 0 -50 18t-18 49q0 32 18 50t50 18t50 -18t18 -50q0 -31 -18 -49t-50 -18z" />
    <glyph glyph-name="uni045E" unicode="&#x45e;" 
d="M75 598h103l163 -460h65l-26 -88h-110zM628 598l-229 -690q-20 -59 -58 -91t-87 -32q-72 0 -112 39.5t-46 116.5h88q11 -36 26 -52.5t40 -16.5q23 0 37.5 15t26.5 48l218 663h96zM275 826q3 -38 23.5 -57t56.5 -19q37 0 57 19t23 57h86q-5 -71 -47 -107.5t-119 -36.5
t-118.5 36.5t-47.5 107.5h86z" />
    <glyph glyph-name="Geupturncy" unicode="&#x490;" 
d="M536 790v181h96v-181h-96zM184 800h448v-93h-348v-707h-100v800z" />
    <glyph glyph-name="geupturncy" unicode="&#x491;" 
d="M505 588v181h96v-181h-96zM203 0v598h398v-90h-302v-508h-96z" />
    <glyph glyph-name="uni04AA" unicode="&#x4aa;" 
d="M366 -15q-139 0 -209 103.5t-70 311.5t72 311.5t217 103.5q78 0 134.5 -33.5t89 -98.5t38.5 -159h-92q-13 98 -56 148t-114 50q-97 0 -143 -78.5t-46 -243.5t43.5 -243.5t135.5 -78.5q69 0 110 46.5t53 136.5h92q-6 -89 -37.5 -150.5t-86.5 -93.5t-131 -32zM355 20h76
l-17 -65q38 -7 58.5 -28t20.5 -53q0 -42 -33 -65.5t-92 -23.5q-54 0 -86.5 22.5t-35.5 64.5h73q5 -14 18 -22t32 -8t30 9t11 24q0 16 -10.5 26t-31.5 11l-36 4z" />
    <glyph glyph-name="uni04AB" unicode="&#x4ab;" 
d="M363 -15q-81 0 -140 37.5t-91 107.5t-32 166q0 98 33 169t94 109.5t145 38.5q73 0 127 -30t85.5 -85t34.5 -130h-88q-12 74 -54 114.5t-108 40.5q-83 0 -128 -59.5t-45 -167.5q0 -106 43.5 -163.5t123.5 -57.5q60 0 100 36t55 101h88q-6 -70 -38 -121t-84.5 -78.5
t-120.5 -27.5zM350 20h76l-17 -65q38 -7 58.5 -28t20.5 -53q0 -42 -33 -65.5t-92 -23.5q-54 0 -86.5 22.5t-35.5 64.5h73q5 -14 18 -22t32 -8t30 9t11 24q0 16 -10.5 26t-31.5 11l-36 4z" />
    <glyph glyph-name="uni04D0" unicode="&#x4d0;" 
d="M59 0l210 800h162l210 -800h-104l-185 724h-9l-186 -724h-98zM182 282v94h336v-94h-336zM270 1028q3 -38 23.5 -57t56.5 -19q37 0 57 19t23 57h86q-5 -71 -47 -107.5t-119 -36.5t-118.5 36.5t-47.5 107.5h86z" />
    <glyph glyph-name="uni04D1" unicode="&#x4d1;" 
d="M492 369v-86l-187 -28q-46 -8 -69 -32.5t-23 -63.5q0 -38 27.5 -61.5t73.5 -23.5t84 22t60.5 59t22.5 83v154q0 62 -36.5 97t-101.5 35q-46 0 -81 -15.5t-57.5 -44.5t-29.5 -71h-92q5 68 39 117.5t91 76t133 26.5q109 0 168.5 -55.5t59.5 -158.5v-399h-93v58h-28
q-24 -35 -64.5 -54t-96.5 -19q-55 0 -95.5 21.5t-62.5 59.5t-22 89q0 74 46.5 121t133.5 61zM263 826q3 -38 23.5 -57t56.5 -19q37 0 57 19t23 57h86q-5 -71 -47 -107.5t-119 -36.5t-118.5 36.5t-47.5 107.5h86z" />
    <glyph glyph-name="uni04D6" unicode="&#x4d6;" 
d="M149 0v800h460v-93h-361v-260h311v-88h-311v-266h351v-93h-450zM306 1028q3 -38 23.5 -57t56.5 -19q37 0 57 19t23 57h86q-5 -71 -47 -107.5t-119 -36.5t-118.5 36.5t-47.5 107.5h86z" />
    <glyph glyph-name="uni04D7" unicode="&#x4d7;" 
d="M173 353h370l-33 -42q0 104 -38 159.5t-111 55.5q-79 0 -122.5 -58.5t-43.5 -163.5q0 -113 44 -172.5t126 -59.5q55 0 95 28.5t65 83.5h90q-15 -62 -50 -107t-85.5 -68.5t-114.5 -23.5q-83 0 -142 37.5t-90.5 109t-31.5 172.5q0 96 32 165t90.5 106.5t137.5 37.5
q76 0 129 -35t81 -102.5t28 -163.5q0 -11 -0.5 -22.5t-1.5 -21.5h-424v85zM278 826q3 -38 23.5 -57t56.5 -19q37 0 57 19t23 57h86q-5 -71 -47 -107.5t-119 -36.5t-118.5 36.5t-47.5 107.5h86z" />
    <glyph glyph-name="uni04F2" unicode="&#x4f2;" 
d="M180 800l194 -455h93l-30 -84h-130l-233 539h106zM544 800h97l-182 -651q-16 -57 -37.5 -93.5t-50.5 -53.5t-69 -17q-65 0 -103 41t-50 123h90q9 -41 24 -59t37 -18q23 0 38.5 21.5t30.5 76.5zM211 888l90 154h109l-116 -154h-83zM400 888l117 154h115l-142 -154h-90z
" />
    <glyph glyph-name="uni04F3" unicode="&#x4f3;" 
d="M75 598h103l163 -460h65l-26 -88h-110zM628 598l-229 -690q-20 -59 -58 -91t-87 -32q-72 0 -112 39.5t-46 116.5h88q11 -36 26 -52.5t40 -16.5q23 0 37.5 15t26.5 48l218 663h96zM193 686l90 154h109l-116 -154h-83zM382 686l117 154h115l-142 -154h-90z" />
    <glyph glyph-name="uni1E0C" unicode="&#x1e0c;" 
d="M100 0v800h215q159 0 239.5 -100.5t80.5 -299.5q0 -198 -80.5 -299t-239.5 -101h-215zM200 93h115q110 0 165.5 76.5t55.5 230.5q0 155 -55.5 231t-165.5 76h-115v-614zM333 -244q-35 0 -55 20t-20 56q0 35 20 54.5t55 19.5t55 -19.5t20 -55.5q0 -35 -20 -55t-55 -20z
" />
    <glyph glyph-name="uni1E0D" unicode="&#x1e0d;" 
d="M311 -15q-74 0 -128.5 38t-84.5 108.5t-30 167.5t30 167t84.5 108.5t128.5 38.5q51 0 92 -20t62 -56h28v311h96v-848h-96v60h-28q-21 -35 -62 -55t-92 -20zM330 75q79 0 123 59t44 165t-44 165t-123 59t-122.5 -59t-43.5 -165t43.5 -165t122.5 -59zM350 -244
q-35 0 -55 20t-20 56q0 35 20 54.5t55 19.5t55 -19.5t20 -55.5q0 -35 -20 -55t-55 -20z" />
    <glyph glyph-name="uni1E24" unicode="&#x1e24;" 
d="M100 0v800h100v-350h300v350h100v-800h-100v356h-300v-356h-100zM350 -244q-35 0 -55 20t-20 56q0 35 20 54.5t55 19.5t55 -19.5t20 -55.5q0 -35 -20 -55t-55 -20z" />
    <glyph glyph-name="uni1E25" unicode="&#x1e25;" 
d="M120 0v848h96v-298h28q23 30 60 46.5t81 16.5q64 0 110 -28t71.5 -78.5t25.5 -119.5v-387h-96v361q0 78 -36 119t-104 41t-104 -41t-36 -119v-361h-96zM350 -244q-35 0 -55 20t-20 56q0 35 20 54.5t55 19.5t55 -19.5t20 -55.5q0 -35 -20 -55t-55 -20z" />
    <glyph glyph-name="uni1E62" unicode="&#x1e62;" 
d="M188 204q14 -62 57.5 -94t113.5 -32q72 0 114 38t42 104q0 51 -31 82.5t-91 40.5l-86 12q-102 17 -154 73t-52 151q0 72 32.5 125t91.5 82t138 29t137.5 -28.5t92 -81.5t37.5 -129h-94q-14 71 -58 108.5t-115 37.5q-76 0 -120 -38t-44 -105q0 -51 31.5 -82.5t90.5 -41.5
l86 -12q102 -16 154 -72.5t52 -150.5q0 -72 -31.5 -124.5t-88.5 -81.5t-134 -29q-79 0 -137.5 26t-91.5 75t-38 118h96zM355 -244q-35 0 -55 20t-20 56q0 35 20 54.5t55 19.5t55 -19.5t20 -55.5q0 -35 -20 -55t-55 -20z" />
    <glyph glyph-name="uni1E63" unicode="&#x1e63;" 
d="M204 182q13 -52 51.5 -79.5t100.5 -27.5q64 0 98 24t34 68q0 31 -27 51t-81 28l-75 11q-96 14 -141 56t-45 116q0 86 62.5 135t172.5 49q112 0 176.5 -55.5t69.5 -155.5h-88q-13 59 -53 90t-106 31q-67 0 -103 -24.5t-36 -68.5q0 -31 27 -50.5t82 -27.5l75 -11
q96 -15 140.5 -57t44.5 -116q0 -57 -27.5 -98t-78.5 -63t-122 -22q-109 0 -171.5 51.5t-68.5 145.5h89zM358 -244q-35 0 -55 20t-20 56q0 35 20 54.5t55 19.5t55 -19.5t20 -55.5q0 -35 -20 -55t-55 -20z" />
    <glyph glyph-name="uni1E6C" unicode="&#x1e6c;" 
d="M300 0v707h-237v93h574v-93h-237v-707h-100zM350 -244q-35 0 -55 20t-20 56q0 35 20 54.5t55 19.5t55 -19.5t20 -55.5q0 -35 -20 -55t-55 -20z" />
    <glyph glyph-name="uni1E6D" unicode="&#x1e6d;" 
d="M315 750v-152h273v-90h-273v-315q0 -58 24 -88t70 -30q48 0 75 32.5t37 98.5h86q-5 -108 -57 -164.5t-145 -56.5q-89 0 -137.5 53.5t-48.5 151.5v318h-136v90h136v152h96zM412 -244q-35 0 -55 20t-20 56q0 35 20 54.5t55 19.5t55 -19.5t20 -55.5q0 -35 -20 -55t-55 -20z
" />
    <glyph glyph-name="Wgrave" unicode="&#x1e80;" 
d="M121 800l74 -568l12 -163h11l68 529h136l65 -529h11l13 163l75 568h86l-106 -800h-144l-65 539h-11l-69 -539h-143l-106 800h93zM409 888h-86l-129 154h113z" />
    <glyph glyph-name="wgrave" unicode="&#x1e81;" 
d="M146 0l-111 598h95l62 -356l20 -173h9l65 529h135l67 -529h9l18 173l64 356h86l-112 -598h-131l-67 531h-10l-64 -531h-135zM399 686h-86l-129 154h113z" />
    <glyph glyph-name="Wacute" unicode="&#x1e82;" 
d="M121 800l74 -568l12 -163h11l68 529h136l65 -529h11l13 163l75 568h86l-106 -800h-144l-65 539h-11l-69 -539h-143l-106 800h93zM319 888l102 154h113l-129 -154h-86z" />
    <glyph glyph-name="wacute" unicode="&#x1e83;" 
d="M146 0l-111 598h95l62 -356l20 -173h9l65 529h135l67 -529h9l18 173l64 356h86l-112 -598h-131l-67 531h-10l-64 -531h-135zM313 686l102 154h113l-129 -154h-86z" />
    <glyph glyph-name="Wdieresis" unicode="&#x1e84;" 
d="M121 800l74 -568l12 -163h11l68 529h136l65 -529h11l13 163l75 568h86l-106 -800h-144l-65 539h-11l-69 -539h-143l-106 800h93zM233 903q-31 0 -49.5 18t-18.5 49q0 32 18.5 50t49.5 18q32 0 50 -18t18 -50q0 -31 -17.5 -49t-50.5 -18zM467 903q-32 0 -50 18t-18 49
q0 32 18 50t50 18t50 -18t18 -50q0 -31 -18 -49t-50 -18z" />
    <glyph glyph-name="wdieresis" unicode="&#x1e85;" 
d="M146 0l-111 598h95l62 -356l20 -173h9l65 529h135l67 -529h9l18 173l64 356h86l-112 -598h-131l-67 531h-10l-64 -531h-135zM233 701q-31 0 -49.5 18t-18.5 49q0 32 18.5 50t49.5 18q32 0 50 -18t18 -50q0 -31 -17.5 -49t-50.5 -18zM467 701q-32 0 -50 18t-18 49
q0 32 18 50t50 18t50 -18t18 -50q0 -31 -18 -49t-50 -18z" />
    <glyph glyph-name="uni1E92" unicode="&#x1e92;" 
d="M108 0v168l417 529v10h-417v93h484v-168l-417 -529v-10h417v-93h-484zM350 -244q-35 0 -55 20t-20 56q0 35 20 54.5t55 19.5t55 -19.5t20 -55.5q0 -35 -20 -55t-55 -20z" />
    <glyph glyph-name="uni1E93" unicode="&#x1e93;" 
d="M129 598h442v-168l-381 -331v-9h381v-90h-442v167l381 331v10h-381v90zM350 -244q-35 0 -55 20t-20 56q0 35 20 54.5t55 19.5t55 -19.5t20 -55.5q0 -35 -20 -55t-55 -20z" />
    <glyph glyph-name="uni1E9E" unicode="&#x1e9e;" 
d="M103 0v540q0 126 65.5 193t188.5 67h244v-93l-204 -278l-32 37h28q80 0 138 -28t89.5 -79t31.5 -123q0 -110 -69 -173t-190 -63h-74v93h70q76 0 119.5 38.5t43.5 104.5q0 67 -43.5 105t-119.5 38h-70v87l200 272l2 -31h-168q-72 0 -111.5 -42t-39.5 -121v-544h-99z" />
    <glyph glyph-name="uni1EBC" unicode="&#x1ebc;" 
d="M149 0v800h460v-93h-361v-260h311v-88h-311v-266h351v-93h-450zM219 896q6 72 30 103t73 31q35 0 57 -12t37.5 -24.5t33.5 -12.5q14 0 21 12.5t11 40.5h71q-6 -71 -30 -102.5t-73 -31.5q-35 0 -56.5 12.5t-37.5 24.5t-34 12q-13 0 -20.5 -12t-11.5 -41h-71z" />
    <glyph glyph-name="uni1EBD" unicode="&#x1ebd;" 
d="M173 353h370l-33 -42q0 104 -38 159.5t-111 55.5q-79 0 -122.5 -58.5t-43.5 -163.5q0 -113 44 -172.5t126 -59.5q55 0 95 28.5t65 83.5h90q-15 -62 -50 -107t-85.5 -68.5t-114.5 -23.5q-83 0 -142 37.5t-90.5 109t-31.5 172.5q0 96 32 165t90.5 106.5t137.5 37.5
q76 0 129 -35t81 -102.5t28 -163.5q0 -11 -0.5 -22.5t-1.5 -21.5h-424v85zM191 694q6 72 30 103t73 31q35 0 57 -12t37.5 -24.5t33.5 -12.5q14 0 21 12.5t11 40.5h71q-6 -71 -30 -102.5t-73 -31.5q-35 0 -56.5 12.5t-37.5 24.5t-34 12q-13 0 -20.5 -12t-11.5 -41h-71z" />
    <glyph glyph-name="uni1ECA" unicode="&#x1eca;" 
d="M100 0v93h200v614h-200v93h500v-93h-200v-614h200v-93h-500zM350 -244q-35 0 -55 20t-20 56q0 35 20 54.5t55 19.5t55 -19.5t20 -55.5q0 -35 -20 -55t-55 -20z" />
    <glyph glyph-name="uni1ECB" unicode="&#x1ecb;" 
d="M151 598h278v-508h182v-90h-460v90h182v418h-182v90zM373 691q-35 0 -55 20t-20 56q0 35 20 54.5t55 19.5t55 -19.5t20 -55.5q0 -35 -20 -55t-55 -20zM373 -244q-35 0 -55 20t-20 56q0 35 20 54.5t55 19.5t55 -19.5t20 -55.5q0 -35 -20 -55t-55 -20z" />
    <glyph glyph-name="uni1ECC" unicode="&#x1ecc;" 
d="M350 -15q-142 0 -213.5 103.5t-71.5 311.5t71 311.5t214 103.5q142 0 213.5 -103.5t71.5 -311.5t-71 -311.5t-214 -103.5zM350 78q95 0 140.5 78.5t45.5 243.5t-45.5 243.5t-140.5 78.5t-140.5 -78.5t-45.5 -243.5t45.5 -243.5t140.5 -78.5zM350 -244q-35 0 -55 20
t-20 56q0 35 20 54.5t55 19.5t55 -19.5t20 -55.5q0 -35 -20 -55t-55 -20z" />
    <glyph glyph-name="uni1ECD" unicode="&#x1ecd;" 
d="M350 -15q-81 0 -141 38t-92.5 108.5t-32.5 167.5t32.5 167t92.5 108.5t141 38.5q82 0 141.5 -38.5t92 -108.5t32.5 -167t-32.5 -167.5t-92 -108.5t-141.5 -38zM350 75q81 0 125.5 59t44.5 165t-44.5 165t-125.5 59q-80 0 -125 -59t-45 -165t45 -165t125 -59zM350 -244
q-35 0 -55 20t-20 56q0 35 20 54.5t55 19.5t55 -19.5t20 -55.5q0 -35 -20 -55t-55 -20z" />
    <glyph glyph-name="uni1EE4" unicode="&#x1ee4;" 
d="M91 800h100v-534q0 -89 42 -138.5t119 -49.5q76 0 118 49.5t42 138.5v534h97v-542q0 -132 -67 -202.5t-192 -70.5t-192 70.5t-67 202.5v542zM350 -244q-35 0 -55 20t-20 56q0 35 20 54.5t55 19.5t55 -19.5t20 -55.5q0 -35 -20 -55t-55 -20z" />
    <glyph glyph-name="uni1EE5" unicode="&#x1ee5;" 
d="M580 598v-598h-96v48h-28q-23 -30 -60 -46.5t-81 -16.5q-63 0 -109.5 27.5t-72 78.5t-25.5 120v387h96v-362q0 -77 36 -118.5t104 -41.5t104 41.5t36 118.5v362h96zM353 -243q-36 0 -56 19.5t-20 55.5q0 35 20 55t56 20q35 0 55 -20t20 -55q0 -36 -20 -55.5t-55 -19.5z
" />
    <glyph glyph-name="Ygrave" unicode="&#x1ef2;" 
d="M157 800l182 -334l9 -30h9l9 30l184 334h101l-251 -454v-346h-100v346l-251 454h108zM421 888h-86l-129 154h113z" />
    <glyph glyph-name="ygrave" unicode="&#x1ef3;" 
d="M75 598h103l163 -460h65l-26 -88h-110zM628 598l-229 -690q-20 -59 -58 -91t-87 -32q-72 0 -112 39.5t-46 116.5h88q11 -36 26 -52.5t40 -16.5q23 0 37.5 15t26.5 48l218 663h96zM427 686h-86l-129 154h112z" />
    <glyph glyph-name="uni1EF8" unicode="&#x1ef8;" 
d="M157 800l182 -334l9 -30h9l9 30l184 334h101l-251 -454v-346h-100v346l-251 454h108zM183 896q6 72 30 103t73 31q35 0 57 -12t37.5 -24.5t33.5 -12.5q14 0 21 12.5t11 40.5h71q-6 -71 -30 -102.5t-73 -31.5q-35 0 -56.5 12.5t-37.5 24.5t-34 12q-13 0 -20.5 -12
t-11.5 -41h-71z" />
    <glyph glyph-name="uni1EF9" unicode="&#x1ef9;" 
d="M75 598h103l163 -460h65l-26 -88h-110zM628 598l-229 -690q-20 -59 -58 -91t-87 -32q-72 0 -112 39.5t-46 116.5h88q11 -36 26 -52.5t40 -16.5q23 0 37.5 15t26.5 48l218 663h96zM188 694q6 72 30 103t73 31q35 0 57 -12t37.5 -24.5t33.5 -12.5q14 0 21 12.5t11 40.5h71
q-6 -71 -30 -102.5t-73 -31.5q-35 0 -56.5 12.5t-37.5 24.5t-34 12q-13 0 -20.5 -12t-11.5 -41h-71z" />
    <glyph glyph-name="uni2002" unicode="&#x2002;" 
 />
    <glyph glyph-name="uni2003" unicode="&#x2003;" 
 />
    <glyph glyph-name="uni2011" unicode="&#x2011;" 
d="M73 306v88h554v-88h-554z" />
    <glyph glyph-name="endash" unicode="&#x2013;" 
d="M75 393h550v-86h-550v86z" />
    <glyph glyph-name="emdash" unicode="&#x2014;" 
d="M45 393h610v-86h-610v86z" />
    <glyph glyph-name="quoteleft" unicode="&#x2018;" 
d="M445 848q-36 -31 -62.5 -79t-34.5 -99l2 -164q-47 0 -69.5 27.5t-22.5 84.5q0 43 7.5 85t21.5 79.5t32 65.5h126zM350 678q40 0 61.5 -22.5t21.5 -63.5t-21.5 -63.5t-61.5 -22.5q-39 0 -61 22.5t-22 63.5t22 63.5t61 22.5z" />
    <glyph glyph-name="quoteright" unicode="&#x2019;" 
d="M255 522q36 31 62.5 79.5t34.5 98.5l-2 164q48 0 70 -27.5t22 -84.5q0 -42 -7.5 -84t-21 -79.5t-32.5 -66.5h-126zM350 692q-39 0 -61 22.5t-22 63.5t22 63.5t61 22.5q40 0 61.5 -22.5t21.5 -63.5t-21.5 -63.5t-61.5 -22.5z" />
    <glyph glyph-name="quotesinglbase" unicode="&#x201a;" 
d="M255 -178q36 31 62.5 79.5t34.5 98.5l-2 164q48 0 70 -27.5t22 -84.5q0 -42 -7.5 -84t-21 -79.5t-32.5 -66.5h-126zM350 -8q-39 0 -61 22.5t-22 63.5t22 63.5t61 22.5q40 0 61.5 -22.5t21.5 -63.5t-21.5 -63.5t-61.5 -22.5z" />
    <glyph glyph-name="quotedblleft" unicode="&#x201c;" 
d="M583 848q-35 -31 -61.5 -79t-34.5 -99l2 -164q-47 0 -69.5 27.5t-22.5 84.5q0 43 7.5 85t21.5 79.5t32 65.5h125zM489 678q39 0 61 -22.5t22 -63.5t-22 -63.5t-61 -22.5t-61 22.5t-22 63.5t22 63.5t61 22.5zM333 848q-35 -31 -61.5 -79t-35.5 -99l3 -164
q-47 0 -69.5 27.5t-22.5 84.5q0 43 7.5 85t21.5 79.5t32 65.5h125zM239 678q39 0 61 -22.5t22 -63.5t-22 -63.5t-61 -22.5t-61 22.5t-22 63.5t22 63.5t61 22.5z" />
    <glyph glyph-name="quotedblright" unicode="&#x201d;" 
d="M116 522q36 31 62.5 79.5t34.5 98.5l-2 164q48 0 70 -27.5t22 -84.5q0 -42 -7.5 -84t-21 -79.5t-32.5 -66.5h-126zM211 692q-39 0 -61 22.5t-22 63.5t22 63.5t61 22.5q40 0 61.5 -22.5t21.5 -63.5t-21.5 -63.5t-61.5 -22.5zM366 522q36 31 62.5 79.5t34.5 98.5l-2 164
q48 0 70 -27.5t22 -84.5q0 -42 -7.5 -84t-21 -79.5t-32.5 -66.5h-126zM461 692q-39 0 -61 22.5t-22 63.5t22 63.5t61 22.5q40 0 61.5 -22.5t21.5 -63.5t-21.5 -63.5t-61.5 -22.5z" />
    <glyph glyph-name="quotedblbase" unicode="&#x201e;" 
d="M116 -178q36 31 62.5 79.5t34.5 98.5l-2 164q48 0 70 -27.5t22 -84.5q0 -42 -7.5 -84t-21 -79.5t-32.5 -66.5h-126zM211 -8q-39 0 -61 22.5t-22 63.5t22 63.5t61 22.5q40 0 61.5 -22.5t21.5 -63.5t-21.5 -63.5t-61.5 -22.5zM366 -178q36 31 62.5 79.5t34.5 98.5l-2 164
q48 0 70 -27.5t22 -84.5q0 -42 -7.5 -84t-21 -79.5t-32.5 -66.5h-126zM461 -8q-39 0 -61 22.5t-22 63.5t22 63.5t61 22.5q40 0 61.5 -22.5t21.5 -63.5t-21.5 -63.5t-61.5 -22.5z" />
    <glyph glyph-name="dagger" unicode="&#x2020;" 
d="M303 -20v840h94v-840h-94zM131 514v84h438v-84h-438z" />
    <glyph glyph-name="daggerdbl" unicode="&#x2021;" 
d="M303 -20v840h94v-840h-94zM131 202v84h438v-84h-438zM131 514v84h438v-84h-438z" />
    <glyph glyph-name="bullet" unicode="&#x2022;" 
d="M350 168q-88 0 -135 47t-47 135t47 135t135 47t135 -47t47 -135t-47 -135t-135 -47z" />
    <glyph glyph-name="ellipsis" unicode="&#x2026;" 
d="M350 -8q-33 0 -51 22.5t-18 63.5t18 63.5t51 22.5t51 -22.5t18 -63.5t-18 -63.5t-51 -22.5zM579 -8q-33 0 -51 22.5t-18 63.5t18 63.5t51 22.5t51 -22.5t18 -63.5t-18 -63.5t-51 -22.5zM121 -8q-33 0 -51 22.5t-18 63.5t18 63.5t51 22.5t51 -22.5t18 -63.5t-18 -63.5
t-51 -22.5z" />
    <glyph glyph-name="perthousand" unicode="&#x2030;" 
d="M49 262v79l602 308v-79zM319 -15q-64 0 -98 43t-34 124q0 82 34 125t98 43q65 0 99 -43t34 -125q0 -81 -34 -124t-99 -43zM328 68q28 0 42 21.5t14 62.5q0 42 -14 63.5t-42 21.5q-27 0 -41.5 -21.5t-14.5 -63.5q0 -41 14.5 -62.5t41.5 -21.5zM534 68q27 0 41.5 21.5
t14.5 62.5q0 42 -14.5 63.5t-41.5 21.5t-41.5 -21.5t-14.5 -63.5q0 -41 14.5 -62.5t41.5 -21.5zM543 -15q-64 0 -98.5 43t-34.5 124q0 82 34.5 125t98.5 43t98 -43t34 -125q0 -81 -34 -124t-98 -43zM166 480q-68 0 -104.5 43t-36.5 125q0 81 36.5 124t104.5 43q69 0 105 -43
t36 -124q0 -82 -36 -125t-105 -43zM166 563q27 0 41.5 21.5t14.5 63.5q0 41 -14.5 62.5t-41.5 21.5t-41.5 -21.5t-14.5 -62.5q0 -42 14.5 -63.5t41.5 -21.5z" />
    <glyph glyph-name="guilsinglleft" unicode="&#x2039;" 
d="M469 64l-237 215v112l237 216v-110l-210 -191v62l210 -190v-114z" />
    <glyph glyph-name="guilsinglright" unicode="&#x203a;" 
d="M231 607l237 -215v-113l-237 -215v110l210 190v-61l-210 189v115z" />
    <glyph glyph-name="fraction" unicode="&#x2044;" 
d="M654 800l-530 -800h-78l530 800h78z" />
    <glyph glyph-name="uni2070" unicode="&#x2070;" 
d="M350 471q-79 0 -121 57.5t-42 165.5q0 109 42 166t121 57q80 0 121.5 -57t41.5 -166q0 -108 -41.5 -165.5t-121.5 -57.5zM350 538q44 0 66 39t22 117t-21.5 117t-66.5 39q-43 0 -65.5 -39t-22.5 -117t22.5 -117t65.5 -39zM232 643l236 179v-77l-236 -179v77z" />
    <glyph glyph-name="uni2074" unicode="&#x2074;" 
d="M451 908v-241h62v-68h-62v-119h-75v119h-197v81l159 228h113zM229 641l-10 26h157v237h38z" />
    <glyph glyph-name="uni2075" unicode="&#x2075;" 
d="M218 908h283v-68h-239l31 37v-140h9q14 12 33 18t40 6q62 0 98.5 -39t36.5 -104q0 -66 -41.5 -106.5t-111.5 -40.5q-64 0 -105 33t-47 90h74q8 -27 28.5 -42t49.5 -15q37 0 57.5 22t20.5 60q0 36 -20 57t-56 21q-23 0 -42 -10.5t-30 -28.5h-69v250z" />
    <glyph glyph-name="uni2076" unicode="&#x2076;" 
d="M350 471q-45 0 -80 18.5t-54.5 51.5t-19.5 75q0 34 12 66t38 70l107 156h84l-104 -148l9 -8q5 2 12 3t14 1q39 0 70 -18t48.5 -49.5t17.5 -72.5q0 -42 -19.5 -75t-54.5 -51.5t-80 -18.5zM271 617q0 -35 22 -57t57 -22q36 0 57.5 22t21.5 57q0 36 -21.5 57.5t-57.5 21.5
q-35 0 -57 -21.5t-22 -57.5z" />
    <glyph glyph-name="uni2077" unicode="&#x2077;" 
d="M500 807l-157 -327h-78l187 384l7 -24h-229v68h270v-101z" />
    <glyph glyph-name="uni2078" unicode="&#x2078;" 
d="M350 729q38 0 58.5 16t20.5 45q0 28 -20.5 44t-58.5 16q-37 0 -58 -16t-21 -44q0 -29 21 -45t58 -16zM196 797q0 55 41.5 87.5t112.5 32.5t112.5 -32.5t41.5 -87.5q0 -34 -16.5 -58.5t-47.5 -35.5v-9q30 -10 46 -36t16 -62q0 -57 -41 -90.5t-111 -33.5t-111 33.5
t-41 90.5q0 36 16 62t46 36v9q-30 11 -47 35.5t-17 58.5zM273 603q0 -30 20.5 -47t56.5 -17t56.5 17t20.5 47t-20.5 47t-56.5 17t-56.5 -17t-20.5 -47z" />
    <glyph glyph-name="uni2079" unicode="&#x2079;" 
d="M350 917q45 0 80 -18.5t54.5 -51t19.5 -75.5q0 -34 -12 -66t-38 -70l-107 -156h-84l104 148l-9 8q-5 -2 -11.5 -3t-14.5 -1q-39 0 -70 18t-48.5 50t-17.5 72q0 43 19.5 75.5t54.5 51t80 18.5zM429 771q0 36 -21.5 57.5t-57.5 21.5q-35 0 -57 -21.5t-22 -57.5t22 -57.5
t57 -21.5q36 0 57.5 21.5t21.5 57.5z" />
    <glyph glyph-name="uni2080" unicode="&#x2080;" 
d="M350 -117q-79 0 -121 57.5t-42 165.5q0 109 42 166t121 57q80 0 121.5 -57t41.5 -166q0 -108 -41.5 -165.5t-121.5 -57.5zM350 -50q44 0 66 39t22 117t-21.5 117t-66.5 39q-43 0 -65.5 -39t-22.5 -117t22.5 -117t65.5 -39zM232 55l236 179v-77l-236 -179v77z" />
    <glyph glyph-name="uni2081" unicode="&#x2081;" 
d="M229 -108v68h111v339l34 -20l-145 -93v81l85 53h101v-360h99v-68h-285z" />
    <glyph glyph-name="uni2082" unicode="&#x2082;" 
d="M221 2l155 99q25 17 38.5 38.5t13.5 45.5q0 36 -18.5 56t-51.5 20q-30 0 -50.5 -18.5t-27.5 -52.5h-75q5 64 46 101.5t107 37.5q68 0 106.5 -38t38.5 -105q0 -43 -23 -79t-70 -65l-168 -105l-8 23h260v-68h-273v110z" />
    <glyph glyph-name="uni2083" unicode="&#x2083;" 
d="M503 14q0 -38 -18.5 -67.5t-51.5 -46.5t-76 -17q-67 0 -109 36.5t-46 98.5h74q6 -32 27 -50t53 -18t51 18t19 49q0 29 -17.5 45.5t-49.5 16.5h-42v64h42q34 0 52.5 15t18.5 43t-19.5 44.5t-51.5 16.5q-34 0 -57 -18.5t-29 -53.5h-75q5 64 49 101.5t113 37.5
q43 0 75.5 -16t51 -44t18.5 -65q0 -32 -17.5 -55.5t-48.5 -31.5v-8q31 -12 47.5 -37t16.5 -58z" />
    <glyph glyph-name="uni2084" unicode="&#x2084;" 
d="M451 320v-241h62v-68h-62v-119h-75v119h-197v81l159 228h113zM229 53l-10 26h157v237h38z" />
    <glyph glyph-name="uni2085" unicode="&#x2085;" 
d="M218 320h283v-68h-239l31 37v-140h9q14 12 33 18t40 6q62 0 98.5 -39t36.5 -104q0 -66 -41.5 -106.5t-111.5 -40.5q-64 0 -105 33t-47 90h74q8 -27 28.5 -42t49.5 -15q37 0 57.5 22t20.5 60q0 36 -20 57t-56 21q-23 0 -42 -10.5t-30 -28.5h-69v250z" />
    <glyph glyph-name="uni2086" unicode="&#x2086;" 
d="M350 -117q-45 0 -80 18.5t-54.5 51.5t-19.5 75q0 34 12 66t38 70l107 156h84l-104 -148l9 -8q5 2 12 3t14 1q39 0 70 -18t48.5 -49.5t17.5 -72.5q0 -42 -19.5 -75t-54.5 -51.5t-80 -18.5zM271 29q0 -35 22 -57t57 -22q36 0 57.5 22t21.5 57q0 36 -21.5 57.5t-57.5 21.5
q-35 0 -57 -21.5t-22 -57.5z" />
    <glyph glyph-name="uni2087" unicode="&#x2087;" 
d="M500 219l-157 -327h-78l187 384l7 -24h-229v68h270v-101z" />
    <glyph glyph-name="uni2088" unicode="&#x2088;" 
d="M350 141q38 0 58.5 16t20.5 45q0 28 -20.5 44t-58.5 16q-37 0 -58 -16t-21 -44q0 -29 21 -45t58 -16zM196 209q0 55 41.5 87.5t112.5 32.5t112.5 -32.5t41.5 -87.5q0 -34 -16.5 -58.5t-47.5 -35.5v-9q30 -10 46 -36t16 -62q0 -57 -41 -90.5t-111 -33.5t-111 33.5
t-41 90.5q0 36 16 62t46 36v9q-30 11 -47 35.5t-17 58.5zM273 15q0 -30 20.5 -47t56.5 -17t56.5 17t20.5 47t-20.5 47t-56.5 17t-56.5 -17t-20.5 -47z" />
    <glyph glyph-name="uni2089" unicode="&#x2089;" 
d="M350 329q45 0 80 -18.5t54.5 -51t19.5 -75.5q0 -34 -12 -66t-38 -70l-107 -156h-84l104 148l-9 8q-5 -2 -11.5 -3t-14.5 -1q-39 0 -70 18t-48.5 50t-17.5 72q0 43 19.5 75.5t54.5 51t80 18.5zM429 183q0 36 -21.5 57.5t-57.5 21.5q-35 0 -57 -21.5t-22 -57.5t22 -57.5
t57 -21.5q36 0 57.5 21.5t21.5 57.5z" />
    <glyph glyph-name="Euro" unicode="&#x20ac;" 
d="M393 -15q-127 0 -193.5 104t-66.5 311t67 311t196 104q73 0 126.5 -31.5t84.5 -93t36 -150.5h-91q-11 90 -50 136t-106 46q-85 0 -126 -78.5t-41 -243.5t40.5 -243.5t123.5 -78.5q59 0 95 41t47 121h92q-6 -81 -35.5 -138.5t-79.5 -87t-119 -29.5zM40 282v81h421v-81
h-421zM40 453v81h421v-81h-421z" />
    <glyph glyph-name="uni20B4" unicode="&#x20b4;" 
d="M360 -15q-74 0 -128.5 24t-84.5 68t-31 104q1 47 18.5 86.5t55 73.5t97.5 67l100 54q56 31 80.5 66.5t24.5 82.5q0 33 -17 57.5t-46 39t-67 14.5q-59 0 -98 -29.5t-53 -84.5h-94q12 100 76 153.5t169 53.5q68 0 119.5 -25.5t81.5 -69.5t30 -101q0 -48 -17.5 -87
t-55 -73.5t-98.5 -68.5l-100 -54q-54 -29 -78.5 -64.5t-24.5 -82.5q0 -51 38 -81t103 -30q59 0 95.5 28.5t50.5 85.5h95q-13 -102 -74 -154.5t-167 -52.5zM65 284v72h570v-72h-570zM65 444v72h570v-72h-570z" />
    <glyph glyph-name="uni20BD" unicode="&#x20bd;" 
d="M159 800h238q79 0 135.5 -28.5t87 -81t30.5 -126.5t-30.5 -127t-87 -81.5t-135.5 -28.5h-142v-90h188v-81h-188v-156h-96v156h-105v81h105v90h-105v81h105v392zM255 416h146q69 0 108 38.5t39 105.5t-39 105.5t-108 38.5h-146v-288z" />
    <glyph glyph-name="uni2116" unicode="&#x2116;" 
d="M67 0v800h164l107 -701h10l-5 170v531h91v-800h-164l-106 701h-11l5 -169v-532h-91zM574 471q-37 0 -60 18t-33.5 56t-10.5 99q0 62 10.5 99.5t33.5 55.5t60 18q36 0 59 -18t33.5 -55.5t10.5 -99.5q0 -61 -10.5 -99t-33.5 -56t-59 -18zM574 538q17 0 24 22t7 84t-7 84
t-24 22q-18 0 -24.5 -22t-6.5 -84t6.5 -84t24.5 -22zM489 352v66h168v-66h-168z" />
    <glyph glyph-name="trademark" unicode="&#x2122;" 
d="M153 440v299h-97v61h258v-61h-97v-299h-64zM363 440v360h98l30 -180h8l30 180h95v-360h-62v152l4 140h-8l-30 -176h-69l-30 176h-8l4 -140v-152h-62z" />
    <glyph glyph-name="arrowleft" unicode="&#x2190;" 
d="M287 64l-270 269v54l270 269v-119l-212 -208v62l212 -208v-119zM683 316h-626v88h626v-88z" />
    <glyph glyph-name="arrowup" unicode="&#x2191;" 
d="M54 546l269 269h54l269 -269h-119l-208 212h62l-208 -212h-119zM306 0v776h88v-776h-88z" />
    <glyph glyph-name="arrowright" unicode="&#x2192;" 
d="M413 64v119l212 208v-62l-212 208v119l270 -269v-54zM17 316v88h626v-88h-626z" />
    <glyph glyph-name="arrowdown" unicode="&#x2193;" 
d="M54 254h119l208 -212h-62l208 212h119l-269 -269h-54zM306 800h88v-776h-88v776z" />
    <glyph glyph-name="minus" unicode="&#x2212;" 
d="M73 306v88h554v-88h-554z" />
    <glyph glyph-name="approxequal" unicode="&#x2248;" 
d="M472 367q-38 0 -66.5 13t-51 32t-42.5 38t-40.5 32t-44.5 13q-26 0 -43.5 -20.5t-22.5 -58.5h-81q9 78 48 120.5t100 42.5q38 0 66.5 -13t51 -32t42.5 -38t40.5 -32t44.5 -13q26 0 43.5 21t22.5 58h81q-9 -77 -48 -120t-100 -43zM472 121q-38 0 -66.5 13t-51 32t-42.5 38
t-40.5 32t-44.5 13q-26 0 -43.5 -20.5t-22.5 -58.5h-81q9 78 48 120.5t100 42.5q38 0 66.5 -13t51 -32t42.5 -38t40.5 -32t44.5 -13q26 0 43.5 21t22.5 58h81q-9 -77 -48 -120t-100 -43z" />
    <glyph glyph-name="notequal" unicode="&#x2260;" 
d="M465 690h88l-318 -680h-88zM90 443v87h520v-87h-520zM90 170v87h520v-87h-520z" />
    <glyph glyph-name="uniA78B" unicode="&#xa78b;" 
d="M319 404v396h87v-178l-19 -218h-68z" />
    <glyph glyph-name="uniA78C" unicode="&#xa78c;" 
d="M320 384v376h87v-168l-19 -208h-68z" />
    <glyph glyph-name="uni004A0301" 
d="M332 -15q-77 0 -133 29.5t-85.5 84.5t-29.5 132v119h97v-111q0 -75 40 -118t111 -43q72 0 112 43t40 118v465h-346v96h445v-569q0 -77 -30 -132t-86.5 -84.5t-134.5 -29.5zM491 888l102 154h113l-129 -154h-86z" />
    <glyph glyph-name="i.loclTRK" 
d="M151 598h278v-508h182v-90h-460v90h182v418h-182v90zM373 691q-35 0 -55 20t-20 56q0 35 20 54.5t55 19.5t55 -19.5t20 -55.5q0 -35 -20 -55t-55 -20z" />
    <glyph glyph-name="uni006A0301" 
d="M135 598h360v-617q0 -94 -51 -145t-144 -51q-87 0 -138.5 44t-58.5 125h90q12 -39 39 -60t68 -21q47 0 73 29.5t26 83.5v522h-264v90zM404 686l102 154h113l-129 -154h-86z" />
    <glyph glyph-name="zero.dnom" 
d="M350 -9q-79 0 -121 57.5t-42 165.5q0 109 42 166t121 57q80 0 121.5 -57t41.5 -166q0 -108 -41.5 -165.5t-121.5 -57.5zM350 58q44 0 66 39t22 117t-21.5 117t-66.5 39q-43 0 -65.5 -39t-22.5 -117t22.5 -117t65.5 -39zM232 163l236 179v-77l-236 -179v77z" />
    <glyph glyph-name="one.dnom" 
d="M229 0v68h111v339l34 -20l-145 -93v81l85 53h101v-360h99v-68h-285z" />
    <glyph glyph-name="two.dnom" 
d="M221 110l155 99q25 17 38.5 38.5t13.5 45.5q0 36 -18.5 56t-51.5 20q-30 0 -50.5 -18.5t-27.5 -52.5h-75q5 64 46 101.5t107 37.5q68 0 106.5 -38t38.5 -105q0 -43 -23 -79t-70 -65l-168 -105l-8 23h260v-68h-273v110z" />
    <glyph glyph-name="three.dnom" 
d="M503 122q0 -38 -18.5 -67.5t-51.5 -46.5t-76 -17q-67 0 -109 36.5t-46 98.5h74q6 -32 27 -50t53 -18t51 18t19 49q0 29 -17.5 45.5t-49.5 16.5h-42v64h42q34 0 52.5 15t18.5 43t-19.5 44.5t-51.5 16.5q-34 0 -57 -18.5t-29 -53.5h-75q5 64 49 101.5t113 37.5
q43 0 75.5 -16t51 -44t18.5 -65q0 -32 -17.5 -55.5t-48.5 -31.5v-8q31 -12 47.5 -37t16.5 -58z" />
    <glyph glyph-name="four.dnom" 
d="M451 428v-241h62v-68h-62v-119h-75v119h-197v81l159 228h113zM229 161l-10 26h157v237h38z" />
    <glyph glyph-name="five.dnom" 
d="M218 428h283v-68h-239l31 37v-140h9q14 12 33 18t40 6q62 0 98.5 -39t36.5 -104q0 -66 -41.5 -106.5t-111.5 -40.5q-64 0 -105 33t-47 90h74q8 -27 28.5 -42t49.5 -15q37 0 57.5 22t20.5 60q0 36 -20 57t-56 21q-23 0 -42 -10.5t-30 -28.5h-69v250z" />
    <glyph glyph-name="six.dnom" 
d="M350 -9q-45 0 -80 18.5t-54.5 51.5t-19.5 75q0 34 12 66t38 70l107 156h84l-104 -148l9 -8q5 2 12 3t14 1q39 0 70 -18t48.5 -49.5t17.5 -72.5q0 -42 -19.5 -75t-54.5 -51.5t-80 -18.5zM271 137q0 -35 22 -57t57 -22q36 0 57.5 22t21.5 57q0 36 -21.5 57.5t-57.5 21.5
q-35 0 -57 -21.5t-22 -57.5z" />
    <glyph glyph-name="seven.dnom" 
d="M500 327l-157 -327h-78l187 384l7 -24h-229v68h270v-101z" />
    <glyph glyph-name="eight.dnom" 
d="M350 249q38 0 58.5 16t20.5 45q0 28 -20.5 44t-58.5 16q-37 0 -58 -16t-21 -44q0 -29 21 -45t58 -16zM196 317q0 55 41.5 87.5t112.5 32.5t112.5 -32.5t41.5 -87.5q0 -34 -16.5 -58.5t-47.5 -35.5v-9q30 -10 46 -36t16 -62q0 -57 -41 -90.5t-111 -33.5t-111 33.5
t-41 90.5q0 36 16 62t46 36v9q-30 11 -47 35.5t-17 58.5zM273 123q0 -30 20.5 -47t56.5 -17t56.5 17t20.5 47t-20.5 47t-56.5 17t-56.5 -17t-20.5 -47z" />
    <glyph glyph-name="nine.dnom" 
d="M350 437q45 0 80 -18.5t54.5 -51t19.5 -75.5q0 -34 -12 -66t-38 -70l-107 -156h-84l104 148l-9 8q-5 -2 -11.5 -3t-14.5 -1q-39 0 -70 18t-48.5 50t-17.5 72q0 43 19.5 75.5t54.5 51t80 18.5zM429 291q0 36 -21.5 57.5t-57.5 21.5q-35 0 -57 -21.5t-22 -57.5t22 -57.5
t57 -21.5q36 0 57.5 21.5t21.5 57.5z" />
    <glyph glyph-name="zero.numr" 
d="M350 363q-79 0 -121 57.5t-42 165.5q0 109 42 166t121 57q80 0 121.5 -57t41.5 -166q0 -108 -41.5 -165.5t-121.5 -57.5zM350 430q44 0 66 39t22 117t-21.5 117t-66.5 39q-43 0 -65.5 -39t-22.5 -117t22.5 -117t65.5 -39zM232 535l236 179v-77l-236 -179v77z" />
    <glyph glyph-name="one.numr" 
d="M229 372v68h111v339l34 -20l-145 -93v81l85 53h101v-360h99v-68h-285z" />
    <glyph glyph-name="two.numr" 
d="M221 482l155 99q25 17 38.5 38.5t13.5 45.5q0 36 -18.5 56t-51.5 20q-30 0 -50.5 -18.5t-27.5 -52.5h-75q5 64 46 101.5t107 37.5q68 0 106.5 -38t38.5 -105q0 -43 -23 -79t-70 -65l-168 -105l-8 23h260v-68h-273v110z" />
    <glyph glyph-name="three.numr" 
d="M503 494q0 -38 -18.5 -67.5t-51.5 -46.5t-76 -17q-67 0 -109 36.5t-46 98.5h74q6 -32 27 -50t53 -18t51 18t19 49q0 29 -17.5 45.5t-49.5 16.5h-42v64h42q34 0 52.5 15t18.5 43t-19.5 44.5t-51.5 16.5q-34 0 -57 -18.5t-29 -53.5h-75q5 64 49 101.5t113 37.5
q43 0 75.5 -16t51 -44t18.5 -65q0 -32 -17.5 -55.5t-48.5 -31.5v-8q31 -12 47.5 -37t16.5 -58z" />
    <glyph glyph-name="four.numr" 
d="M451 800v-241h62v-68h-62v-119h-75v119h-197v81l159 228h113zM229 533l-10 26h157v237h38z" />
    <glyph glyph-name="five.numr" 
d="M218 800h283v-68h-239l31 37v-140h9q14 12 33 18t40 6q62 0 98.5 -39t36.5 -104q0 -66 -41.5 -106.5t-111.5 -40.5q-64 0 -105 33t-47 90h74q8 -27 28.5 -42t49.5 -15q37 0 57.5 22t20.5 60q0 36 -20 57t-56 21q-23 0 -42 -10.5t-30 -28.5h-69v250z" />
    <glyph glyph-name="six.numr" 
d="M350 363q-45 0 -80 18.5t-54.5 51.5t-19.5 75q0 34 12 66t38 70l107 156h84l-104 -148l9 -8q5 2 12 3t14 1q39 0 70 -18t48.5 -49.5t17.5 -72.5q0 -42 -19.5 -75t-54.5 -51.5t-80 -18.5zM271 509q0 -35 22 -57t57 -22q36 0 57.5 22t21.5 57q0 36 -21.5 57.5t-57.5 21.5
q-35 0 -57 -21.5t-22 -57.5z" />
    <glyph glyph-name="seven.numr" 
d="M500 699l-157 -327h-78l187 384l7 -24h-229v68h270v-101z" />
    <glyph glyph-name="eight.numr" 
d="M350 621q38 0 58.5 16t20.5 45q0 28 -20.5 44t-58.5 16q-37 0 -58 -16t-21 -44q0 -29 21 -45t58 -16zM196 689q0 55 41.5 87.5t112.5 32.5t112.5 -32.5t41.5 -87.5q0 -34 -16.5 -58.5t-47.5 -35.5v-9q30 -10 46 -36t16 -62q0 -57 -41 -90.5t-111 -33.5t-111 33.5
t-41 90.5q0 36 16 62t46 36v9q-30 11 -47 35.5t-17 58.5zM273 495q0 -30 20.5 -47t56.5 -17t56.5 17t20.5 47t-20.5 47t-56.5 17t-56.5 -17t-20.5 -47z" />
    <glyph glyph-name="nine.numr" 
d="M350 809q45 0 80 -18.5t54.5 -51t19.5 -75.5q0 -34 -12 -66t-38 -70l-107 -156h-84l104 148l-9 8q-5 -2 -11.5 -3t-14.5 -1q-39 0 -70 18t-48.5 50t-17.5 72q0 43 19.5 75.5t54.5 51t80 18.5zM429 663q0 36 -21.5 57.5t-57.5 21.5q-35 0 -57 -21.5t-22 -57.5t22 -57.5
t57 -21.5q36 0 57.5 21.5t21.5 57.5z" />
    <glyph glyph-name="colon.case" 
d="M350 93q-39 0 -61 22.5t-22 63.5t22 63.5t61 22.5q40 0 61.5 -22.5t21.5 -63.5t-22 -63.5t-61 -22.5zM350 535q-39 0 -61 22.5t-22 63.5t22 63.5t61 22.5q40 0 61.5 -22.5t21.5 -63.5t-22 -63.5t-61 -22.5z" />
    <glyph glyph-name="hyphen.case" 
d="M73 356v88h554v-88h-554z" />
    <glyph glyph-name="endash.case" 
d="M75 443h550v-86h-550v86z" />
    <glyph glyph-name="emdash.case" 
d="M45 443h610v-86h-610v86z" />
    <glyph glyph-name="plus.case" 
d="M306 123v233h-233v88h233v233h88v-233h233v-88h-233v-233h-88z" />
    <glyph glyph-name="minus.case" 
d="M73 356v88h554v-88h-554z" />
    <glyph glyph-name="multiply.case" 
d="M176 168l-58 58l175 174l-175 174l58 58l174 -174l174 174l58 -58l-174 -174l174 -174l-58 -58l-174 175z" />
    <glyph glyph-name="divide.case" 
d="M73 356v88h554v-88h-554zM350 520q-35 0 -55 20t-20 56q0 35 20 54.5t55 19.5t55 -19.5t20 -55.5q0 -35 -20 -55t-55 -20zM350 129q-35 0 -55 20t-20 56q0 35 20 54.5t55 19.5t55 -19.5t20 -55.5q0 -35 -20 -55t-55 -20z" />
    <glyph glyph-name="equal.case" 
d="M90 493v87h520v-87h-520zM90 220v87h520v-87h-520z" />
    <glyph glyph-name="notequal.case" 
d="M465 740h88l-318 -680h-88zM90 493v87h520v-87h-520zM90 220v87h520v-87h-520z" />
    <glyph glyph-name="greater.case" 
d="M120 99v99l401 197v10l-401 197v99l460 -231v-140z" />
    <glyph glyph-name="less.case" 
d="M580 99l-460 231v140l460 231v-99l-401 -197v-10l401 -197v-99z" />
    <glyph glyph-name="plusminus.case" 
d="M306 224v201h-233v87h233v202h88v-202h233v-87h-233v-201h-88zM73 86v88h554v-88h-554z" />
    <glyph glyph-name="approxequal.case" 
d="M472 417q-38 0 -66.5 13t-51 32t-42.5 38t-40.5 32t-44.5 13q-26 0 -43.5 -20.5t-22.5 -58.5h-81q9 78 48 120.5t100 42.5q38 0 66.5 -13t51 -32t42.5 -38t40.5 -32t44.5 -13q26 0 43.5 21t22.5 58h81q-9 -77 -48 -120t-100 -43zM472 171q-38 0 -66.5 13t-51 32t-42.5 38
t-40.5 32t-44.5 13q-26 0 -43.5 -20.5t-22.5 -58.5h-81q9 78 48 120.5t100 42.5q38 0 66.5 -13t51 -32t42.5 -38t40.5 -32t44.5 -13q26 0 43.5 21t22.5 58h81q-9 -77 -48 -120t-100 -43z" />
    <glyph glyph-name="asciitilde.case" 
d="M472 294q-38 0 -66.5 13t-51 32t-42.5 38t-40.5 32t-44.5 13q-26 0 -43.5 -20.5t-22.5 -58.5h-81q9 78 48 120.5t100 42.5q38 0 66.5 -13t51 -32t42.5 -38t40.5 -32t44.5 -13q26 0 43.5 21t22.5 58h81q-9 -77 -48 -120t-100 -43z" />
    <glyph glyph-name="percent.cv01" 
d="M489 -15q-74 0 -110.5 51.5t-36.5 157.5q0 104 36.5 155t110.5 51t110 -51t36 -155q0 -106 -36 -157.5t-110 -51.5zM95 0l142 340h74l-137 -340h-79zM489 68q31 0 46 31.5t15 94.5q0 62 -15 92.5t-46 30.5t-46.5 -30.5t-15.5 -92.5q0 -63 15.5 -94.5t46.5 -31.5zM211 815
q74 0 110.5 -51.5t36.5 -157.5q0 -104 -36.5 -155t-110.5 -51q-73 0 -109.5 51t-36.5 155q0 106 36.5 157.5t109.5 51.5zM605 800l-142 -340h-74l137 340h79zM211 732q-30 0 -45.5 -31t-15.5 -95q0 -61 15.5 -92t45.5 -31q31 0 46.5 31t15.5 92q0 64 -15.5 95t-46.5 31z" />
    <glyph glyph-name="percent.cv02" 
d="M599 818v-115l-498 -721v115zM489 -15q-71 0 -109 45.5t-38 131.5q0 87 38 132.5t109 45.5t108.5 -45.5t37.5 -132.5q0 -86 -37.5 -131.5t-108.5 -45.5zM489 68q29 0 45 24.5t16 69.5q0 46 -16 70.5t-45 24.5q-30 0 -46 -24.5t-16 -70.5q0 -45 16 -69.5t46 -24.5z
M211 815q71 0 109 -45.5t38 -131.5q0 -87 -38 -132.5t-109 -45.5q-70 0 -108 45.5t-38 132.5q0 86 38 131.5t108 45.5zM211 732q-29 0 -45 -24.5t-16 -69.5q0 -46 16 -70.5t45 -24.5q30 0 46 24.5t16 70.5q0 45 -16 69.5t-46 24.5z" />
    <glyph glyph-name="arrowright.case" 
d="M413 104v119l212 208v-62l-212 208v119l270 -269v-54zM17 356v88h626v-88h-626z" />
    <glyph glyph-name="arrowleft.case" 
d="M287 104l-270 269v54l270 269v-119l-212 -208v62l212 -208v-119zM683 356h-626v88h626v-88z" />
    <glyph glyph-name="brevecombcy" horiz-adv-x="0" 
d="M270 826q3 -38 23.5 -57t56.5 -19q37 0 57 19t23 57h86q-5 -71 -47 -107.5t-119 -36.5t-118.5 36.5t-47.5 107.5h86z" />
    <glyph glyph-name="uni030C.alt" horiz-adv-x="0" 
d="M100 648l41 200h96l-59 -200h-78z" />
    <glyph glyph-name="uni0328.e" horiz-adv-x="0" 
d="M505 -215q-52 0 -82 25.5t-30 70.5q0 34 22.5 74t60.5 75l139 154q-6 -32 -26 -71t-50 -76q-27 -33 -43 -65t-16 -62q0 -26 13 -40.5t35 -14.5q7 0 13.5 1.5t11.5 2.5v-68q-10 -3 -21 -4.5t-27 -1.5z" />
    <glyph glyph-name="periodcentered.loclCAT" horiz-adv-x="0" 
d="M234 330q-39 0 -61 22.5t-22 63.5t22 63.5t61 22.5q40 0 61.5 -22.5t21.5 -63.5t-22 -63.5t-61 -22.5z" />
    <glyph glyph-name="ringacutecomb.case" horiz-adv-x="0" 
d="M350 626q-50 0 -78 19t-28 53t28 53t78 19q51 0 78.5 -19t27.5 -53t-27.5 -53t-78.5 -19zM350 672q44 0 44 26q0 25 -44 25q-43 0 -43 -25q0 -26 43 -26zM309 798l55 80h102l-80 -80h-77z" />
    <glyph glyph-name="periodcentered.loclCAT.case" horiz-adv-x="0" 
d="M114 306q-39 0 -61 22.5t-22 63.5t22 63.5t61 22.5q40 0 61.5 -22.5t21.5 -63.5t-22 -63.5t-61 -22.5z" />
  </font>
</defs>
</svg>
